<svg width="60" height="60" viewBox="0 0 60 60" fill="none" xmlns="http://www.w3.org/2000/svg">
<path d="M34 12V8C34 5.791 32.209 4 30 4C27.791 4 26 5.791 26 8V12.072" stroke="#DC9628" stroke-width="2" stroke-miterlimit="10" stroke-linecap="round" stroke-linejoin="round"/>
<path d="M16.491 50.638C27.192 52.485 33.149 52.485 43.851 50.638L53.341 49C48.656 44.343 46.024 38.585 46.024 32V23C46.062 16.953 42.067 12.522 38.078 10.699C33.079 8.41404 27.263 8.40503 22.272 10.707C18.319 12.53 14.038 16.958 14 23V32C14 38.585 11.685 44.343 7 49L16.491 50.638Z" fill="#EEAF4B"/>
<path d="M19 25.9911C18.998 25.9911 18.996 25.9911 18.994 25.9911C18.442 25.9871 17.997 25.5371 18 24.9851C18.03 20.3031 21.752 17.3421 23.948 16.3311C27.797 14.5561 32.542 14.5591 36.417 16.3291C36.919 16.5581 37.14 17.1511 36.911 17.6541C36.682 18.1561 36.089 18.3781 35.585 18.1471C32.231 16.6141 28.116 16.6101 24.786 18.1471C23.019 18.9611 20.024 21.3201 20.001 24.9971C19.997 25.5471 19.549 25.9911 19 25.9911Z" fill="#FBD490"/>
<path d="M21.906 51.46C23.35 54.728 26.508 57 30.183 57C33.859 57 37.017 54.727 38.461 51.457C32.533 52.209 27.83 52.21 21.906 51.46Z" fill="#DC9628"/>
<path d="M4.095 39.967C3.839 39.967 3.583 39.869 3.388 39.674C1.203 37.489 0 34.58 0 31.483C0 28.385 1.203 25.477 3.388 23.293C3.779 22.902 4.411 22.902 4.802 23.293C5.193 23.684 5.193 24.316 4.802 24.707C2.995 26.514 2 28.92 2 31.483C2 34.046 2.995 36.452 4.802 38.259C5.193 38.65 5.193 39.282 4.802 39.673C4.606 39.869 4.351 39.967 4.095 39.967Z" fill="#F2ECBF"/>
<path d="M8.305 37.69C8.049 37.69 7.793 37.592 7.598 37.397C4.261 34.06 4.261 28.629 7.598 25.293C7.989 24.902 8.621 24.902 9.012 25.293C9.403 25.684 9.403 26.316 9.012 26.707C6.454 29.265 6.454 33.426 9.012 35.983C9.403 36.374 9.403 37.006 9.012 37.397C8.817 37.593 8.561 37.69 8.305 37.69Z" fill="#F2ECBF"/>
<path d="M55.905 39.967C55.649 39.967 55.393 39.869 55.198 39.674C54.807 39.283 54.807 38.651 55.198 38.26C57.005 36.452 58 34.046 58 31.483C58 28.92 57.005 26.513 55.198 24.707C54.807 24.316 54.807 23.684 55.198 23.293C55.589 22.902 56.221 22.902 56.612 23.293C58.797 25.478 60 28.386 60 31.483C60 34.58 58.797 37.489 56.612 39.673C56.417 39.869 56.161 39.967 55.905 39.967Z" fill="#F2ECBF"/>
<path d="M51.695 37.69C51.439 37.69 51.183 37.592 50.988 37.397C50.597 37.006 50.597 36.374 50.988 35.983C53.546 33.425 53.546 29.264 50.988 26.707C50.597 26.316 50.597 25.684 50.988 25.293C51.379 24.902 52.011 24.902 52.402 25.293C55.739 28.63 55.739 34.061 52.402 37.397C52.207 37.593 51.951 37.69 51.695 37.69Z" fill="#F2ECBF"/>
</svg>
