<svg width="18" height="18" viewBox="0 0 18 18" fill="none" xmlns="http://www.w3.org/2000/svg">
<path d="M6.57152 10.6682H4.96512C4.73858 10.6682 4.55322 10.8536 4.55322 11.0801V17.5469C4.55322 17.7735 4.73858 17.9588 4.96512 17.9588H6.57152C6.79807 17.9588 6.98342 17.7735 6.98342 17.5469V11.0801C6.98342 10.8536 6.79807 10.6682 6.57152 10.6682ZM6.15962 17.135H5.37702V11.492H6.15962V17.135Z" fill="#555555"/>
<path d="M9.82545 9.72083H8.21903C7.99248 9.72083 7.80713 9.90618 7.80713 10.1327V17.5881C7.80713 17.8146 7.99248 18 8.21903 18H9.82545C10.052 18 10.2373 17.8146 10.2373 17.5881V10.1327C10.2373 9.90618 10.052 9.72083 9.82545 9.72083ZM9.41355 17.135H8.63093V10.5446H9.41355V17.135Z" fill="#555555"/>
<path d="M3.35864 14.2106H1.75223C1.52569 14.2106 1.34033 14.3959 1.34033 14.6225V17.547C1.34033 17.7735 1.52569 17.9589 1.75223 17.9589H3.35864C3.58519 17.9589 3.77054 17.7735 3.77054 17.547V14.6225C3.77054 14.3959 3.58519 14.2106 3.35864 14.2106ZM2.90555 17.1351H2.16413V15.0344H2.90555V17.1351Z" fill="#555555"/>
<path d="M13.0383 7.33179H11.4319C11.2054 7.33179 11.02 7.51714 11.02 7.74369V17.5469C11.02 17.7734 11.2054 17.9588 11.4319 17.9588H13.0383C13.2649 17.9588 13.4502 17.7734 13.4502 17.5469V7.74369C13.4502 7.51714 13.2649 7.33179 13.0383 7.33179ZM12.6264 17.135H11.8438V8.15559H12.6264V17.135Z" fill="#555555"/>
<path d="M16.2922 5.18994H14.6858C14.4593 5.18994 14.2739 5.3753 14.2739 5.60184V17.5469C14.2739 17.7735 14.4593 17.9588 14.6858 17.9588H16.2922C16.5188 17.9588 16.7041 17.7735 16.7041 17.5469V5.60184C16.7041 5.3753 16.5188 5.18994 16.2922 5.18994ZM15.8391 17.135H15.0977V6.01374H15.8391V17.135Z" fill="#555555"/>
<path d="M16.9059 0.111213C16.8235 0.0411899 16.7206 0 16.6094 0H13.7878C13.5613 0 13.3759 0.185355 13.3759 0.411899C13.3759 0.638444 13.5613 0.823799 13.7878 0.823799L15.6084 0.81968L11.1558 5.27643L9.59471 3.70709C9.51645 3.62883 9.41348 3.58352 9.30226 3.57941C9.19105 3.58352 9.08808 3.62883 9.00982 3.70709L1.10135 11.6238C0.936588 11.7803 0.932469 12.0439 1.08899 12.2087C1.24551 12.3735 1.50913 12.3776 1.67389 12.2211C1.67801 12.2169 1.68213 12.2128 1.68624 12.2128L9.30638 4.59268L10.8675 6.14966C10.9457 6.2238 11.0487 6.26499 11.1599 6.26499C11.267 6.26499 11.3741 6.2238 11.4524 6.14966L16.2016 1.40046L16.1975 3.21693C16.1975 3.44348 16.3787 3.62471 16.6052 3.62471H16.6094C16.8359 3.62883 17.0171 3.4476 17.0213 3.22105C17.0213 3.22105 17.0213 3.22105 17.0213 3.21693L17.0254 0.399542C17.0254 0.292449 16.9801 0.189474 16.9059 0.111213Z" fill="#555555"/>
</svg>
