<svg width="135" height="40" viewBox="0 0 135 40" fill="none" xmlns="http://www.w3.org/2000/svg">
<path d="M130.197 40H4.729C2.122 40 0 37.872 0 35.267V4.726C0 2.12 2.122 0 4.729 0H130.197C132.803 0 135 2.12 135 4.726V35.267C135 37.872 132.803 40 130.197 40Z" fill="#A6A6A6"/>
<path d="M134.032 35.2681C134.032 37.3841 132.318 39.0981 130.198 39.0981H4.72889C2.60989 39.0981 0.889893 37.3841 0.889893 35.2681V4.72514C0.889893 2.61014 2.60989 0.890137 4.72889 0.890137H130.197C132.318 0.890137 134.031 2.61014 134.031 4.72514L134.032 35.2681Z" fill="black"/>
<path d="M30.1281 19.7837C30.0991 16.5607 32.7671 14.9927 32.8891 14.9197C31.3781 12.7167 29.0361 12.4157 28.2131 12.3917C26.2461 12.1847 24.3381 13.5687 23.3361 13.5687C22.3141 13.5687 20.7711 12.4117 19.1081 12.4457C16.9681 12.4787 14.9661 13.7177 13.8681 15.6417C11.6021 19.5647 13.2921 25.3297 15.4631 28.5007C16.5491 30.0537 17.8181 31.7877 19.4791 31.7267C21.1041 31.6597 21.7111 30.6907 23.6721 30.6907C25.6151 30.6907 26.1851 31.7267 27.8791 31.6877C29.6231 31.6597 30.7211 30.1277 31.7691 28.5607C33.0241 26.7807 33.5281 25.0277 33.5481 24.9377C33.5071 24.9237 30.1611 23.6467 30.1281 19.7837Z" fill="white"/>
<path d="M26.928 10.3058C27.802 9.2128 28.4 7.7258 28.234 6.2168C26.969 6.2728 25.387 7.0918 24.476 8.1608C23.67 9.1028 22.95 10.6468 23.136 12.0988C24.557 12.2048 26.016 11.3818 26.928 10.3058Z" fill="white"/>
<path d="M53.6449 31.5038H51.3739L50.1299 27.5948H45.8059L44.6209 31.5038H42.4099L46.6939 18.1958H49.3399L53.6449 31.5038ZM49.7549 25.9548L48.6299 22.4798C48.5109 22.1248 48.2879 21.2888 47.9589 19.9728H47.9189C47.7879 20.5388 47.5769 21.3748 47.2869 22.4798L46.1819 25.9548H49.7549Z" fill="white"/>
<path d="M64.6619 26.5879C64.6619 28.2199 64.2209 29.5099 63.3389 30.4569C62.5489 31.2999 61.5679 31.7209 60.3969 31.7209C59.1329 31.7209 58.2249 31.2669 57.6719 30.3589H57.6319V35.4139H55.4999V25.0669C55.4999 24.0409 55.4729 22.9879 55.4209 21.9079H57.2959L57.4149 23.4289H57.4549C58.1659 22.2829 59.2449 21.7109 60.6929 21.7109C61.8249 21.7109 62.7699 22.1579 63.5259 23.0529C64.2839 23.9489 64.6619 25.1269 64.6619 26.5879ZM62.4899 26.6659C62.4899 25.7319 62.2799 24.9619 61.8579 24.3559C61.3969 23.7239 60.7779 23.4079 60.0019 23.4079C59.4759 23.4079 58.9979 23.5839 58.5709 23.9309C58.1429 24.2809 57.8629 24.7379 57.7319 25.3039C57.6659 25.5679 57.6329 25.7839 57.6329 25.9539V27.5539C57.6329 28.2519 57.8469 28.8409 58.2749 29.3219C58.7029 29.8029 59.2589 30.0429 59.9429 30.0429C60.7459 30.0429 61.3709 29.7329 61.8179 29.1149C62.2659 28.4959 62.4899 27.6799 62.4899 26.6659Z" fill="white"/>
<path d="M75.699 26.5879C75.699 28.2199 75.258 29.5099 74.375 30.4569C73.586 31.2999 72.605 31.7209 71.434 31.7209C70.17 31.7209 69.262 31.2669 68.71 30.3589H68.67V35.4139H66.538V25.0669C66.538 24.0409 66.511 22.9879 66.459 21.9079H68.334L68.453 23.4289H68.493C69.203 22.2829 70.282 21.7109 71.731 21.7109C72.862 21.7109 73.807 22.1579 74.565 23.0529C75.32 23.9489 75.699 25.1269 75.699 26.5879ZM73.527 26.6659C73.527 25.7319 73.316 24.9619 72.894 24.3559C72.433 23.7239 71.816 23.4079 71.039 23.4079C70.512 23.4079 70.035 23.5839 69.607 23.9309C69.179 24.2809 68.9 24.7379 68.769 25.3039C68.704 25.5679 68.67 25.7839 68.67 25.9539V27.5539C68.67 28.2519 68.884 28.8409 69.31 29.3219C69.738 29.8019 70.294 30.0429 70.98 30.0429C71.783 30.0429 72.408 29.7329 72.855 29.1149C73.303 28.4959 73.527 27.6799 73.527 26.6659Z" fill="white"/>
<path d="M88.039 27.772C88.039 28.904 87.646 29.825 86.857 30.536C85.99 31.313 84.783 31.701 83.232 31.701C81.8 31.701 80.652 31.425 79.783 30.872L80.277 29.095C81.213 29.661 82.24 29.945 83.359 29.945C84.162 29.945 84.787 29.763 85.236 29.401C85.683 29.039 85.906 28.553 85.906 27.947C85.906 27.407 85.722 26.952 85.353 26.583C84.986 26.214 84.373 25.871 83.517 25.554C81.187 24.685 80.023 23.412 80.023 21.738C80.023 20.644 80.431 19.747 81.248 19.049C82.062 18.35 83.148 18.001 84.506 18.001C85.717 18.001 86.723 18.212 87.526 18.633L86.993 20.371C86.243 19.963 85.395 19.759 84.446 19.759C83.696 19.759 83.11 19.944 82.69 20.312C82.335 20.641 82.157 21.042 82.157 21.517C82.157 22.043 82.36 22.478 82.768 22.82C83.123 23.136 83.768 23.478 84.704 23.847C85.849 24.308 86.69 24.847 87.231 25.465C87.77 26.081 88.039 26.852 88.039 27.772Z" fill="white"/>
<path d="M95.0879 23.5081H92.7379V28.1671C92.7379 29.3521 93.1519 29.9441 93.9819 29.9441C94.3629 29.9441 94.6789 29.9111 94.9289 29.8451L94.9879 31.4641C94.5679 31.6211 94.0149 31.7001 93.3299 31.7001C92.4879 31.7001 91.8299 31.4431 91.3549 30.9301C90.8819 30.4161 90.6439 29.5541 90.6439 28.3431V23.5061H89.2439V21.9061H90.6439V20.1491L92.7379 19.5171V21.9061H95.0879V23.5081Z" fill="white"/>
<path d="M105.691 26.6269C105.691 28.1019 105.269 29.3129 104.427 30.2599C103.544 31.2349 102.372 31.7209 100.911 31.7209C99.503 31.7209 98.382 31.2539 97.546 30.3199C96.71 29.3859 96.292 28.2069 96.292 26.7859C96.292 25.2989 96.722 24.0809 97.585 23.1339C98.446 22.1859 99.608 21.7119 101.069 21.7119C102.477 21.7119 103.61 22.1789 104.465 23.1139C105.283 24.0209 105.691 25.1919 105.691 26.6269ZM103.479 26.6959C103.479 25.8109 103.29 25.0519 102.907 24.4189C102.46 23.6529 101.821 23.2709 100.993 23.2709C100.136 23.2709 99.485 23.6539 99.038 24.4189C98.655 25.0529 98.466 25.8239 98.466 26.7359C98.466 27.6209 98.655 28.3799 99.038 29.0119C99.499 29.7779 100.143 30.1599 100.974 30.1599C101.788 30.1599 102.427 29.7699 102.888 28.9919C103.281 28.3469 103.479 27.5799 103.479 26.6959Z" fill="white"/>
<path d="M112.621 23.7829C112.41 23.7439 112.185 23.7239 111.949 23.7239C111.199 23.7239 110.619 24.0069 110.211 24.5739C109.856 25.0739 109.678 25.7059 109.678 26.4689V31.5039H107.547L107.567 24.9299C107.567 23.8239 107.54 22.8169 107.487 21.9089H109.344L109.422 23.7449H109.481C109.706 23.1139 110.061 22.6059 110.547 22.2249C111.022 21.8819 111.535 21.7109 112.088 21.7109C112.285 21.7109 112.463 21.7249 112.621 21.7499V23.7829Z" fill="white"/>
<path d="M122.156 26.2519C122.156 26.6339 122.131 26.9559 122.078 27.2189H115.682C115.707 28.1669 116.016 28.8919 116.61 29.3919C117.149 29.8389 117.846 30.0629 118.702 30.0629C119.649 30.0629 120.513 29.9119 121.29 29.6089L121.624 31.0889C120.716 31.4849 119.644 31.6819 118.407 31.6819C116.919 31.6819 115.751 31.2439 114.901 30.3689C114.053 29.4939 113.628 28.3189 113.628 26.8449C113.628 25.3979 114.023 24.1929 114.814 23.2319C115.642 22.2059 116.761 21.6929 118.169 21.6929C119.552 21.6929 120.599 22.2059 121.31 23.2319C121.873 24.0469 122.156 25.0549 122.156 26.2519ZM120.123 25.6989C120.137 25.0669 119.998 24.5209 119.709 24.0599C119.34 23.4669 118.773 23.1709 118.01 23.1709C117.313 23.1709 116.746 23.4599 116.313 24.0399C115.958 24.5009 115.747 25.0539 115.682 25.6979H120.123V25.6989Z" fill="white"/>
<path d="M43.424 7.27309C43.651 7.13709 43.907 7.02309 44.195 6.92909C44.482 6.83509 44.82 6.78809 45.209 6.78809C45.836 6.78809 46.33 6.93709 46.692 7.23409C47.054 7.53109 47.235 7.93209 47.235 8.43709C47.235 8.83809 47.114 9.17409 46.872 9.44609C46.63 9.71809 46.32 9.89909 45.945 9.98909V10.0181C46.152 10.0511 46.348 10.1071 46.532 10.1881C46.717 10.2691 46.879 10.3771 47.017 10.5131C47.156 10.6491 47.266 10.8071 47.347 10.9891C47.427 11.1701 47.468 11.3701 47.468 11.5911C47.468 11.9531 47.395 12.2571 47.249 12.5031C47.103 12.7491 46.913 12.9491 46.677 13.1051C46.442 13.2601 46.178 13.3721 45.887 13.4391C45.596 13.5061 45.305 13.5411 45.014 13.5411C44.703 13.5411 44.396 13.5081 44.092 13.4441C43.788 13.3801 43.507 13.2731 43.248 13.1241L43.51 12.3191C43.678 12.4031 43.895 12.4841 44.16 12.5621C44.425 12.6401 44.693 12.6781 44.965 12.6781C45.411 12.6781 45.756 12.5781 45.998 12.3781C46.24 12.1771 46.362 11.9091 46.362 11.5731C46.362 11.3461 46.313 11.1611 46.216 11.0151C46.118 10.8691 45.992 10.7551 45.837 10.6701C45.682 10.5861 45.509 10.5281 45.318 10.4961C45.127 10.4641 44.938 10.4471 44.751 10.4471H44.314V9.65009H44.751C44.951 9.65009 45.137 9.62509 45.309 9.57209C45.48 9.52109 45.629 9.44809 45.755 9.35409C45.881 9.26009 45.98 9.14809 46.051 9.01909C46.121 8.89009 46.157 8.74409 46.157 8.58209C46.157 8.29109 46.053 8.06309 45.846 7.89809C45.639 7.73309 45.361 7.65009 45.012 7.65009C44.773 7.65009 44.533 7.68909 44.294 7.76609C44.055 7.84409 43.841 7.92809 43.653 8.01809L43.424 7.27309Z" fill="white"/>
<path d="M51.7551 13.433L51.6781 12.89H51.6491C51.3331 13.323 50.8741 13.54 50.2721 13.54C50.0581 13.54 49.8651 13.504 49.6901 13.433C49.5151 13.362 49.3631 13.265 49.2341 13.142C49.1041 13.019 49.0051 12.874 48.9331 12.705C48.8621 12.537 48.8271 12.352 48.8271 12.152C48.8271 11.564 49.0661 11.122 49.5451 10.828C50.0241 10.534 50.7021 10.387 51.5821 10.387V10.3C51.5821 9.67905 51.2561 9.36905 50.6041 9.36905C50.1391 9.36905 49.7291 9.48605 49.3751 9.71805L49.1621 9.03005C49.5951 8.75905 50.1341 8.62305 50.7791 8.62305C52.0121 8.62305 52.6292 9.27305 52.6292 10.573V12.309C52.6292 12.794 52.6521 13.169 52.6971 13.434H51.7551V13.433ZM51.6101 11.086C51.0251 11.086 50.5891 11.16 50.3031 11.309C50.0171 11.458 49.8741 11.701 49.8741 12.037C49.8741 12.283 49.9411 12.467 50.0761 12.59C50.2111 12.713 50.3821 12.774 50.5881 12.774C50.7231 12.774 50.8511 12.75 50.9741 12.701C51.0961 12.653 51.2032 12.586 51.2961 12.502C51.3902 12.418 51.4651 12.316 51.5241 12.196C51.5821 12.076 51.6101 11.949 51.6101 11.813V11.086Z" fill="white"/>
<path d="M57.683 8.71924V9.58224H55.723V13.4332H54.676V8.71924H57.683Z" fill="white"/>
<path d="M63.677 11.0181C63.677 11.3931 63.625 11.7361 63.522 12.0461C63.418 12.3571 63.275 12.6221 63.09 12.8411C62.906 13.0611 62.686 13.2331 62.431 13.3551C62.175 13.4781 61.893 13.5401 61.582 13.5401C60.961 13.5401 60.515 13.3171 60.243 12.8711H60.223V15.3541H59.175V10.2711C59.175 10.0191 59.172 9.76509 59.165 9.50909C59.159 9.25409 59.149 8.99009 59.137 8.71809H60.058L60.117 9.46509H60.137C60.486 8.90309 61.016 8.62109 61.728 8.62109C62.005 8.62109 62.263 8.67909 62.499 8.79509C62.735 8.91209 62.94 9.07509 63.115 9.28509C63.29 9.49509 63.427 9.74709 63.527 10.0421C63.627 10.3371 63.677 10.6621 63.677 11.0181ZM62.611 11.0571C62.611 10.8241 62.583 10.6091 62.528 10.4121C62.473 10.2151 62.392 10.0471 62.286 9.90809C62.18 9.76909 62.05 9.65909 61.898 9.57809C61.746 9.49709 61.576 9.45709 61.388 9.45709C61.24 9.45709 61.094 9.49009 60.951 9.55409C60.808 9.61809 60.684 9.70609 60.578 9.81609C60.471 9.92609 60.386 10.0591 60.321 10.2141C60.256 10.3691 60.223 10.5341 60.223 10.7091V11.4951C60.223 11.6691 60.25 11.8311 60.306 11.9801C60.361 12.1291 60.438 12.2581 60.538 12.3681C60.638 12.4781 60.758 12.5641 60.897 12.6251C61.036 12.6871 61.189 12.7171 61.357 12.7171C61.752 12.7171 62.059 12.5671 62.279 12.2661C62.499 11.9651 62.611 11.5611 62.611 11.0571Z" fill="white"/>
<path d="M69.305 8.71924L68.111 11.9882C67.827 12.7642 67.55 13.3992 67.282 13.8942C67.013 14.3892 66.757 14.7492 66.511 14.9762C66.149 15.2992 65.764 15.4972 65.356 15.5672L65.104 14.6852C65.375 14.6142 65.634 14.4752 65.88 14.2682C66.125 14.0612 66.322 13.8032 66.472 13.4922C66.524 13.3892 66.549 13.3182 66.549 13.2792C66.549 13.2402 66.529 13.1662 66.491 13.0562L64.783 8.72024H65.937L66.83 11.3492C66.876 11.4722 66.921 11.6112 66.966 11.7662C67.012 11.9212 67.06 12.0932 67.112 12.2802H67.132C67.164 12.1762 67.2 12.0462 67.238 11.8872C67.277 11.7292 67.329 11.5462 67.393 11.3392L68.189 8.72024H69.305V8.71924Z" fill="white"/>
<path d="M71.1189 10.6781H71.6029C71.9579 10.6781 72.2339 10.6141 72.4269 10.4841C72.6199 10.3541 72.7179 10.1961 72.7179 10.0081C72.7179 9.81407 72.6359 9.65907 72.4699 9.54307C72.3059 9.42707 72.0769 9.36807 71.7859 9.36807C71.5979 9.36807 71.4089 9.39907 71.2199 9.46007C71.0289 9.52207 70.8529 9.59807 70.6909 9.68807L70.4199 9.01007C70.6909 8.86207 70.9609 8.76007 71.2309 8.70507C71.4989 8.65007 71.7679 8.62207 72.0399 8.62207C72.2549 8.62207 72.4699 8.64307 72.6859 8.68507C72.9009 8.72707 73.0939 8.79807 73.2619 8.89807C73.4299 8.99807 73.5689 9.12907 73.6739 9.29107C73.7809 9.45307 73.8339 9.65307 73.8339 9.89307C73.8339 10.0421 73.8049 10.1731 73.7459 10.2861C73.6889 10.3991 73.6109 10.4991 73.5139 10.5861C73.4179 10.6731 73.3089 10.7451 73.1899 10.7991C73.0709 10.8541 72.9479 10.8951 72.8269 10.9211V10.9501C72.9809 10.9701 73.1319 11.0091 73.2779 11.0671C73.4229 11.1251 73.5529 11.2011 73.6709 11.2951C73.7859 11.3891 73.8799 11.5021 73.9519 11.6341C74.0219 11.7671 74.0569 11.9171 74.0569 12.0851C74.0569 12.3631 73.9909 12.5961 73.8539 12.7831C73.7189 12.9711 73.5449 13.1191 73.3339 13.2291C73.1249 13.3391 72.8929 13.4181 72.6409 13.4671C72.3889 13.5151 72.1429 13.5401 71.9049 13.5401C71.6139 13.5401 71.3249 13.5091 71.0419 13.4481C70.7569 13.3861 70.5009 13.2911 70.2739 13.1621L70.5469 12.4731C70.7149 12.5641 70.9059 12.6401 71.1229 12.7011C71.3399 12.7621 71.5609 12.7931 71.7869 12.7931C72.1419 12.7931 72.4159 12.7241 72.6069 12.5851C72.7959 12.4461 72.8919 12.2731 72.8919 12.0661C72.8919 11.9301 72.8609 11.8161 72.7959 11.7221C72.7309 11.6281 72.6399 11.5521 72.5249 11.4941C72.4079 11.4361 72.2729 11.3951 72.1169 11.3731C71.9629 11.3501 71.7929 11.3391 71.6129 11.3391H71.1189V10.6781Z" fill="white"/>
<path d="M76.7151 8.71929V10.3873C76.7151 10.7693 76.7091 11.1123 76.6951 11.4153C76.6811 11.7193 76.6661 12.0393 76.6461 12.3753L76.6661 12.3943C76.7891 12.1483 76.9101 11.9083 77.0291 11.6713C77.1501 11.4353 77.2711 11.1943 77.3941 10.9483L78.5581 8.71729H79.9151V13.4313H78.9251V11.7633C78.9251 11.4143 78.9351 11.0653 78.9501 10.7163C78.9661 10.3663 78.9831 10.0143 79.0031 9.65829H78.9541C78.8451 9.94929 78.7351 10.2013 78.6241 10.4153C78.5151 10.6283 78.4051 10.8483 78.2961 11.0753C78.0951 11.4633 77.8961 11.8513 77.6981 12.2393C77.5011 12.6273 77.2921 13.0253 77.0731 13.4323H75.7161V8.71929H76.7151Z" fill="white"/>
<path d="M85.445 8.71924V9.58224H84.01V13.4332H82.98V9.58224H81.554V8.71924H85.445Z" fill="white"/>
<path d="M90.7891 10.8533C90.7891 10.9433 90.7851 11.0293 90.7791 11.1103C90.7731 11.1913 90.7631 11.2643 90.7501 11.3283H87.6071C87.6211 11.7743 87.7611 12.1193 88.0291 12.3613C88.2971 12.6033 88.6521 12.7253 89.0911 12.7253C89.5501 12.7253 89.9741 12.6513 90.3621 12.5023L90.5261 13.2303C90.0791 13.4243 89.5531 13.5213 88.9441 13.5213C88.5771 13.5213 88.2471 13.4643 87.9561 13.3513C87.6651 13.2383 87.4191 13.0783 87.2181 12.8713C87.0191 12.6643 86.8641 12.4153 86.7571 12.1243C86.6521 11.8333 86.5991 11.5073 86.5991 11.1453C86.5991 10.7833 86.6521 10.4483 86.7571 10.1413C86.8641 9.83428 87.0151 9.56728 87.2081 9.34128C87.4031 9.11428 87.6381 8.93728 87.9111 8.80728C88.1861 8.67828 88.4931 8.61328 88.8291 8.61328C89.1261 8.61328 89.3951 8.66628 89.6401 8.77328C89.8821 8.87928 90.0891 9.03128 90.2591 9.22928C90.4311 9.42628 90.5621 9.66328 90.6521 9.93728C90.7441 10.2113 90.7891 10.5173 90.7891 10.8533ZM89.7891 10.5823C89.7891 10.2133 89.7011 9.91428 89.5231 9.68528C89.3451 9.45628 89.0881 9.34028 88.7521 9.34028C88.4471 9.34028 88.1901 9.45628 87.9771 9.68928C87.7641 9.92228 87.6411 10.2193 87.6081 10.5823H89.7891Z" fill="white"/>
<path d="M95.01 8.75788C95.198 8.72588 95.436 8.69988 95.727 8.67988C96.018 8.65988 96.315 8.65088 96.62 8.65088C96.813 8.65088 97.032 8.66288 97.274 8.68488C97.516 8.70688 97.749 8.75888 97.967 8.83988C98.188 8.92088 98.371 9.04188 98.52 9.20388C98.669 9.36588 98.745 9.58488 98.745 9.86288C98.745 10.0059 98.718 10.1339 98.667 10.2459C98.614 10.3589 98.546 10.4579 98.458 10.5419C98.37 10.6259 98.27 10.6959 98.157 10.7499C98.044 10.8049 97.927 10.8459 97.803 10.8709L97.813 10.8999C98.155 10.9579 98.434 11.0809 98.647 11.2689C98.86 11.4569 98.967 11.7149 98.967 12.0449C98.967 12.3749 98.875 12.6369 98.696 12.8309C98.514 13.0249 98.292 13.1709 98.026 13.2679C97.76 13.3649 97.481 13.4269 97.186 13.4529C96.893 13.4779 96.629 13.4919 96.397 13.4919C96.137 13.4919 95.883 13.4859 95.635 13.4719C95.385 13.4589 95.178 13.4459 95.01 13.4329V8.75788ZM96.018 10.6399H96.551C96.713 10.6399 96.867 10.6289 97.012 10.6059C97.158 10.5839 97.285 10.5479 97.395 10.4999C97.506 10.4509 97.59 10.3869 97.653 10.3059C97.714 10.2249 97.745 10.1269 97.745 10.0099C97.745 9.79688 97.657 9.63988 97.477 9.53988C97.299 9.43988 97.02 9.38988 96.639 9.38988C96.53 9.38988 96.434 9.39288 96.352 9.39988C96.272 9.40588 96.161 9.41588 96.018 9.42888V10.6399ZM96.018 12.7249C96.147 12.7379 96.256 12.7469 96.342 12.7539C96.43 12.7609 96.531 12.7639 96.649 12.7639C96.792 12.7639 96.936 12.7549 97.085 12.7349C97.233 12.7159 97.37 12.6789 97.493 12.6239C97.616 12.5699 97.714 12.4959 97.788 12.4019C97.862 12.3089 97.901 12.1849 97.901 12.0309C97.901 11.7609 97.78 11.5749 97.542 11.4719C97.302 11.3689 96.98 11.3179 96.571 11.3179H96.018V12.7249Z" fill="white"/>
</svg>
