<svg width="234" height="37" viewBox="0 0 234 37" fill="none" xmlns="http://www.w3.org/2000/svg">
<path d="M105.403 27.3828L105.37 26.8839L105.403 27.3828ZM0.573133 23.3238C0.429311 23.0881 0.503798 22.7804 0.739524 22.6366L4.5809 20.2927C4.81661 20.1488 5.1243 20.2233 5.26814 20.459C5.41198 20.6948 5.33749 21.0025 5.10177 21.1463L1.68721 23.2298L3.77068 26.6443C3.91452 26.88 3.84001 27.1877 3.60429 27.3316C3.36858 27.4754 3.06088 27.4009 2.91704 27.1652L0.573133 23.3238ZM232.426 3C232.61 3.46472 232.61 3.46483 232.609 3.46502C232.609 3.46518 232.608 3.46544 232.608 3.46576C232.606 3.4664 232.604 3.46732 232.6 3.46854C232.594 3.47097 232.585 3.47455 232.573 3.47927C232.549 3.48871 232.513 3.50269 232.466 3.52109C232.371 3.55788 232.23 3.61234 232.043 3.68347C231.669 3.82573 231.11 4.03463 230.372 4.30213C228.896 4.83713 226.701 5.6065 223.822 6.5458C218.063 8.42439 209.566 10.9827 198.604 13.705C176.679 19.1497 144.894 25.2506 105.436 27.8817L105.37 26.8839C144.761 24.2573 176.488 18.1669 198.362 12.7345C209.3 10.0184 217.774 7.46678 223.512 5.5951C226.38 4.65927 228.565 3.89342 230.031 3.36197C230.765 3.09625 231.318 2.88913 231.688 2.74866C231.873 2.67843 232.012 2.62486 232.104 2.58896C232.15 2.57101 232.185 2.55748 232.208 2.54849C232.219 2.544 232.228 2.54064 232.233 2.53843C232.236 2.53733 232.238 2.53651 232.239 2.53599C232.24 2.53573 232.24 2.53555 232.241 2.53542C232.241 2.53531 232.241 2.53528 232.426 3ZM105.436 27.8817C71.4742 30.1463 45.3467 29.0659 27.7041 27.418C18.8828 26.594 12.1829 25.6282 7.68548 24.8677C5.43679 24.4874 3.73874 24.1585 2.60148 23.9243C2.03286 23.8072 1.60443 23.7138 1.31748 23.6495C1.174 23.6174 1.06589 23.5925 0.993312 23.5756C0.95703 23.5671 0.92962 23.5606 0.911105 23.5562C0.901847 23.554 0.894824 23.5524 0.890022 23.5512C0.887629 23.5506 0.885783 23.5502 0.884485 23.5499C0.883844 23.5497 0.883296 23.5496 0.882983 23.5495C0.882577 23.5494 0.882311 23.5493 0.999957 23.0634C1.1176 22.5774 1.11762 22.5774 1.11778 22.5775C1.11801 22.5775 1.11829 22.5776 1.11876 22.5777C1.11972 22.5779 1.12122 22.5783 1.12327 22.5788C1.12738 22.5798 1.13371 22.5813 1.14228 22.5833C1.15941 22.5874 1.18544 22.5935 1.22035 22.6017C1.29016 22.6179 1.39548 22.6422 1.53616 22.6737C1.81751 22.7368 2.24028 22.829 2.80318 22.9449C3.929 23.1767 5.61539 23.5034 7.85221 23.8817C12.3258 24.6382 19.0012 25.6007 27.7971 26.4223C45.3888 28.0655 71.4629 29.1448 105.37 26.8839L105.436 27.8817Z" fill="black"/>
</svg>
