<svg width="95" height="34" viewBox="0 0 95 34" fill="none" xmlns="http://www.w3.org/2000/svg">
<path d="M44.3596 24.4305L44.2833 23.9364L44.3596 24.4305ZM1.1801 19.7809C1.10293 19.5157 1.25531 19.2382 1.52046 19.1611L5.84118 17.9035C6.10632 17.8264 6.38381 17.9788 6.46098 18.2439C6.53815 18.509 6.38577 18.7865 6.12063 18.8637L2.27999 19.9815L3.39779 23.8221C3.47496 24.0873 3.32258 24.3648 3.05743 24.4419C2.79229 24.5191 2.5148 24.3667 2.43763 24.1016L1.1801 19.7809ZM91.3303 1.13574C91.7072 1.4642 91.7071 1.46442 91.7068 1.46471C91.7066 1.4649 91.7063 1.46527 91.706 1.46565C91.7053 1.46641 91.7044 1.46746 91.7032 1.46879C91.7009 1.47144 91.6976 1.47521 91.6933 1.48008C91.6847 1.48982 91.6722 1.50397 91.6557 1.5224C91.6227 1.55926 91.574 1.61326 91.5095 1.68341C91.3806 1.82371 91.1888 2.02862 90.9345 2.29022C90.4258 2.81341 89.667 3.56348 88.6608 4.47713C86.6487 6.30432 83.6465 8.78657 79.6775 11.417C71.7393 16.678 59.9294 22.5344 44.4358 24.9247L44.2833 23.9364C59.6067 21.5723 71.2821 15.7813 79.125 10.5835C83.0465 7.98455 86.0089 5.53454 87.9886 3.73682C88.9784 2.83802 89.7223 2.10247 90.2175 1.59315C90.465 1.33851 90.6504 1.14044 90.7731 1.00683C90.8345 0.940023 90.8803 0.889335 90.9103 0.855749C90.9253 0.838956 90.9364 0.826439 90.9436 0.818321C90.9472 0.814262 90.9498 0.811302 90.9514 0.809458C90.9522 0.808536 90.9527 0.807893 90.9531 0.80753C90.9532 0.807349 90.9533 0.807288 90.9534 0.807197C90.9533 0.807206 90.9533 0.807286 91.3303 1.13574ZM44.4358 24.9247C31.1027 26.9817 20.3632 25.779 12.9498 24.0575C9.24339 23.1968 6.36871 22.2066 4.41688 21.4295C3.44094 21.0409 2.69562 20.7056 2.1923 20.4664C1.94063 20.3467 1.74946 20.2511 1.62019 20.1848C1.55556 20.1517 1.5064 20.1259 1.47289 20.1081C1.45614 20.0992 1.4433 20.0923 1.4344 20.0875C1.42995 20.0851 1.42648 20.0832 1.42399 20.0819C1.42276 20.0812 1.42176 20.0806 1.42102 20.0802C1.42064 20.08 1.42026 20.0798 1.42008 20.0797C1.41977 20.0796 1.41952 20.0794 1.66018 19.6411C1.90085 19.2029 1.90072 19.2028 1.90066 19.2028C1.90072 19.2028 1.90071 19.2028 1.90083 19.2029C1.90107 19.203 1.90155 19.2033 1.90229 19.2037C1.90375 19.2045 1.90619 19.2058 1.90961 19.2076C1.91646 19.2113 1.92722 19.2171 1.94188 19.2249C1.9712 19.2405 2.0161 19.264 2.0764 19.295C2.19702 19.3568 2.37923 19.448 2.62163 19.5632C3.10644 19.7937 3.83195 20.1203 4.78678 20.5004C6.69649 21.2608 9.52314 22.2352 13.1759 23.0834C20.4808 24.7797 31.0911 25.9717 44.2833 23.9364L44.4358 24.9247Z" fill="black"/>
</svg>
