<svg width="234" height="225" viewBox="0 0 234 225" fill="none" xmlns="http://www.w3.org/2000/svg">
<path d="M110.556 129.752L110.897 130.118L110.556 129.752ZM2.86629 214.988C2.6002 214.914 2.44433 214.639 2.51817 214.373L3.7212 210.036C3.79503 209.77 4.07058 209.614 4.33667 209.688C4.60276 209.762 4.75863 210.038 4.68482 210.304L3.61544 214.158L7.46984 215.227C7.73593 215.301 7.89179 215.577 7.81796 215.843C7.74415 216.109 7.4686 216.265 7.20251 216.191L2.86629 214.988ZM223.398 3C223.816 3.27472 223.816 3.27501 223.816 3.27551C223.815 3.27596 223.815 3.27668 223.814 3.27758C223.813 3.27938 223.811 3.28204 223.809 3.28555C223.804 3.29256 223.797 3.30296 223.788 3.31674C223.77 3.34431 223.743 3.38538 223.707 3.43979C223.634 3.54862 223.526 3.71083 223.381 3.92518C223.092 4.35388 222.658 4.99111 222.08 5.82684C220.923 7.4983 219.187 9.96376 216.865 13.143C212.223 19.5014 205.242 28.7148 195.883 40.1411C177.167 62.9936 148.941 94.6984 110.897 130.118L110.215 129.386C148.223 94.001 176.418 62.3298 195.11 39.5075C204.456 28.0964 211.425 18.8977 216.058 12.5533C218.374 9.38108 220.106 6.92249 221.258 5.25773C221.834 4.42536 222.265 3.79144 222.552 3.36602C222.696 3.15331 222.803 2.99273 222.874 2.88552C222.91 2.83191 222.937 2.79165 222.954 2.7649C222.963 2.75152 222.97 2.74151 222.974 2.7349C222.976 2.7316 222.978 2.72914 222.979 2.72754C222.98 2.72674 222.98 2.72617 222.98 2.72577C222.98 2.72542 222.981 2.72528 223.398 3ZM110.897 130.118C78.1508 160.604 51.246 181.806 32.5237 195.388C23.1625 202.179 15.8471 207.065 10.8699 210.255C8.38133 211.849 6.47734 213.02 5.1945 213.792C4.5531 214.179 4.06698 214.465 3.74072 214.656C3.57759 214.751 3.45445 214.822 3.37181 214.87C3.33051 214.893 3.29932 214.911 3.27835 214.923C3.26787 214.929 3.25994 214.934 3.25457 214.937C3.25186 214.938 3.24983 214.939 3.24841 214.94C3.24772 214.941 3.24715 214.941 3.24679 214.941C3.24638 214.941 3.24613 214.941 2.99996 214.506C2.75379 214.071 2.75387 214.071 2.7541 214.071C2.75439 214.071 2.75478 214.07 2.75536 214.07C2.75653 214.069 2.75832 214.068 2.76078 214.067C2.76565 214.064 2.77309 214.06 2.7831 214.054C2.80309 214.043 2.83329 214.026 2.87362 214.003C2.95429 213.956 3.0755 213.886 3.23665 213.792C3.55899 213.604 4.04117 213.32 4.67866 212.936C5.95362 212.168 7.8497 211.002 10.3304 209.413C15.2917 206.233 22.5912 201.358 31.9365 194.578C50.6269 181.019 77.5001 159.844 110.215 129.386L110.897 130.118Z" fill="black"/>
</svg>
