<svg width="19" height="16" viewBox="0 0 19 16" fill="none" xmlns="http://www.w3.org/2000/svg">
<path d="M5.86528 10.6668H5.86611C5.86681 10.6668 5.8675 10.6667 5.86819 10.6667H15.5378C15.7758 10.6667 15.9851 10.5087 16.0506 10.2799L18.1839 2.81319C18.2299 2.65222 18.1976 2.47917 18.0969 2.34556C17.9961 2.21194 17.8385 2.13333 17.6711 2.13333H4.63528L4.25403 0.417639C4.19972 0.173611 3.98333 0 3.73333 0H0.533333C0.23875 0 0 0.23875 0 0.533333C0 0.827917 0.23875 1.06667 0.533333 1.06667H3.30556C3.37306 1.37069 5.13 9.27708 5.23111 9.73195C4.66431 9.97833 4.26667 10.5435 4.26667 11.2C4.26667 12.0822 4.98444 12.8 5.86667 12.8H15.5378C15.8324 12.8 16.0711 12.5613 16.0711 12.2667C16.0711 11.9721 15.8324 11.7333 15.5378 11.7333H5.86667C5.57264 11.7333 5.33333 11.494 5.33333 11.2C5.33333 10.9064 5.57181 10.6675 5.86528 10.6668ZM16.964 3.2L15.1354 9.6H6.29444L4.87222 3.2H16.964Z" fill="#33CC00"/>
<path d="M5.33398 14.4C5.33398 15.2822 6.05176 16 6.93398 16C7.81621 16 8.53398 15.2822 8.53398 14.4C8.53398 13.5178 7.81621 12.8 6.93398 12.8C6.05176 12.8 5.33398 13.5178 5.33398 14.4ZM6.93398 13.8667C7.22801 13.8667 7.46732 14.106 7.46732 14.4C7.46732 14.694 7.22801 14.9333 6.93398 14.9333C6.63996 14.9333 6.40065 14.694 6.40065 14.4C6.40065 14.106 6.63996 13.8667 6.93398 13.8667Z" fill="#33CC00"/>
<path d="M12.8711 14.4C12.8711 15.2822 13.5889 16 14.4711 16C15.3533 16 16.0711 15.2822 16.0711 14.4C16.0711 13.5178 15.3533 12.8 14.4711 12.8C13.5889 12.8 12.8711 13.5178 12.8711 14.4ZM14.4711 13.8667C14.7651 13.8667 15.0044 14.106 15.0044 14.4C15.0044 14.694 14.7651 14.9333 14.4711 14.9333C14.1771 14.9333 13.9378 14.694 13.9378 14.4C13.9378 14.106 14.1771 13.8667 14.4711 13.8667Z" fill="#33CC00"/>
</svg>
