<svg width="25" height="19" viewBox="0 0 25 19" fill="none" xmlns="http://www.w3.org/2000/svg">
<path d="M14.1321 11.3335H14.1328C14.1335 11.3335 14.1341 11.3333 14.1347 11.3333H22.5956C22.8039 11.3333 22.987 11.1952 23.0442 10.9949L24.9109 4.46154C24.9511 4.32069 24.9229 4.16927 24.8348 4.05236C24.7466 3.93545 24.6087 3.86667 24.4622 3.86667H13.0559L12.7223 2.36543C12.6748 2.15191 12.4854 2 12.2667 2H9.46667C9.20891 2 9 2.20891 9 2.46667C9 2.72443 9.20891 2.93333 9.46667 2.93333H11.8924C11.9514 3.19936 13.4887 10.1174 13.5772 10.5155C13.0813 10.731 12.7333 11.2255 12.7333 11.8C12.7333 12.5719 13.3614 13.2 14.1333 13.2H22.5956C22.8533 13.2 23.0622 12.9911 23.0622 12.7333C23.0622 12.4756 22.8533 12.2667 22.5956 12.2667H14.1333C13.8761 12.2667 13.6667 12.0573 13.6667 11.8C13.6667 11.5431 13.8753 11.3341 14.1321 11.3335ZM23.8435 4.8L22.2435 10.4H14.5076L13.2632 4.8H23.8435Z" fill="#33CC00"/>
<path d="M13.666 14.6C13.666 15.372 14.2941 16 15.066 16C15.838 16 16.466 15.372 16.466 14.6C16.466 13.8281 15.838 13.2 15.066 13.2C14.2941 13.2 13.666 13.8281 13.666 14.6ZM15.066 14.1333C15.3233 14.1333 15.5327 14.3427 15.5327 14.6C15.5327 14.8573 15.3233 15.0667 15.066 15.0667C14.8087 15.0667 14.5993 14.8573 14.5993 14.6C14.5993 14.3427 14.8087 14.1333 15.066 14.1333Z" fill="#33CC00"/>
<path d="M20.2617 14.6C20.2617 15.372 20.8898 16 21.6617 16C22.4337 16 23.0617 15.372 23.0617 14.6C23.0617 13.8281 22.4337 13.2 21.6617 13.2C20.8898 13.2 20.2617 13.8281 20.2617 14.6ZM21.6617 14.1333C21.919 14.1333 22.1284 14.3427 22.1284 14.6C22.1284 14.8573 21.919 15.0667 21.6617 15.0667C21.4044 15.0667 21.1951 14.8573 21.1951 14.6C21.1951 14.3427 21.4044 14.1333 21.6617 14.1333Z" fill="#33CC00"/>
<path d="M8.05238 9.152H5.09238V12.464H3.90838V9.152H0.948375V8.064H3.90838V4.864H5.09238V8.064H8.05238V9.152Z" fill="#33CC00"/>
</svg>
