<svg width="16" height="16" viewBox="0 0 16 16" fill="none" xmlns="http://www.w3.org/2000/svg">
<path d="M10.7936 5.51664L9.55231 5.4707L9.2832 12.8857L10.5245 12.9315L10.7936 5.51664Z" fill="white"/>
<path d="M8.39247 5.49414H7.15039V12.9092H8.39247V5.49414Z" fill="white"/>
<path d="M6.26234 12.8857L5.99323 5.4707L4.75195 5.51667L5.0211 12.9317L6.26234 12.8857Z" fill="white"/>
<path d="M0.382812 2.40234V3.65557H1.67708L2.70385 15.4284C2.732 15.7519 3.00052 16 3.32241 16H12.2032C12.5251 16 12.7938 15.7517 12.8217 15.4281L13.8485 3.65557H15.1637V2.40234H0.382812ZM11.6343 14.7468H3.89111L2.92393 3.65557H12.6017L11.6343 14.7468Z" fill="white"/>
<path d="M9.7996 0H5.7421C5.17136 0 4.70703 0.468493 4.70703 1.04436V3.02867H5.94911V1.25323H9.59259V3.02867H10.8347V1.04436C10.8347 0.468493 10.3703 0 9.7996 0Z" fill="white"/>
</svg>
