<svg width="16" height="14" viewBox="0 0 16 14" fill="none" xmlns="http://www.w3.org/2000/svg">
<path d="M8 0C6.54167 0 5.19792 0.291667 3.96875 0.875C2.76042 1.45833 1.79167 2.25 1.0625 3.25C0.354167 4.22917 0 5.3125 0 6.5C0 7.27083 0.15625 8 0.46875 8.6875C0.78125 9.375 1.21875 10.0104 1.78125 10.5938C1.61458 11.2396 1.28125 11.9271 0.78125 12.6562C0.489583 13.0729 0.25 13.375 0.0625 13.5625C0 13.6458 -0.0104167 13.7396 0.03125 13.8438C0.0729167 13.9479 0.145833 14 0.25 14C1.16667 14 2.0625 13.8125 2.9375 13.4375C3.54167 13.1667 4.11458 12.8229 4.65625 12.4062C5.71875 12.8021 6.83333 13 8 13C9.45833 13 10.7917 12.7083 12 12.125C13.2292 11.5417 14.1979 10.7604 14.9062 9.78125C15.6354 8.78125 16 7.6875 16 6.5C16 5.3125 15.6354 4.22917 14.9062 3.25C14.1979 2.25 13.2292 1.45833 12 0.875C10.7917 0.291667 9.45833 0 8 0Z" fill="#0033CC"/>
</svg>
