<svg width="40" height="40" viewBox="0 0 40 40" fill="none" xmlns="http://www.w3.org/2000/svg">
<path d="M18.9062 30.4219L19.2617 30.0156C19.3633 29.9141 19.4141 29.7786 19.4141 29.6094C19.4141 29.4401 19.3633 29.2878 19.2617 29.1523L10.1719 20.1133H29.2656C29.4349 20.1133 29.5703 20.0625 29.6719 19.9609C29.8073 19.8255 29.875 19.6732 29.875 19.5039V18.9961C29.875 18.8268 29.8073 18.6914 29.6719 18.5898C29.5703 18.4544 29.4349 18.3867 29.2656 18.3867H10.1719L19.2617 9.34766C19.3633 9.21224 19.4141 9.0599 19.4141 8.89062C19.4141 8.72135 19.3633 8.58594 19.2617 8.48438L18.9062 8.07812C18.7708 7.97656 18.6185 7.92578 18.4492 7.92578C18.2799 7.92578 18.1445 7.97656 18.043 8.07812L7.32812 18.8438C7.19271 18.9453 7.125 19.0807 7.125 19.25C7.125 19.4193 7.19271 19.5547 7.32812 19.6562L18.043 30.4219C18.1445 30.5234 18.2799 30.5742 18.4492 30.5742C18.6185 30.5742 18.7708 30.5234 18.9062 30.4219Z" fill="white"/>
</svg>
