<svg width="14" height="16" viewBox="0 0 14 16" fill="none" xmlns="http://www.w3.org/2000/svg">
<path d="M12.5 2H11V0.25C11 0.1875 10.9688 0.135417 10.9062 0.09375C10.8646 0.03125 10.8125 0 10.75 0H10.25C10.1875 0 10.125 0.03125 10.0625 0.09375C10.0208 0.135417 10 0.1875 10 0.25V2H4V0.25C4 0.1875 3.96875 0.135417 3.90625 0.09375C3.86458 0.03125 3.8125 0 3.75 0H3.25C3.1875 0 3.125 0.03125 3.0625 0.09375C3.02083 0.135417 3 0.1875 3 0.25V2H1.5C1.08333 2 0.729167 2.14583 0.4375 2.4375C0.145833 2.72917 0 3.08333 0 3.5V14.5C0 14.9167 0.145833 15.2708 0.4375 15.5625C0.729167 15.8542 1.08333 16 1.5 16H12.5C12.9167 16 13.2708 15.8542 13.5625 15.5625C13.8542 15.2708 14 14.9167 14 14.5V3.5C14 3.08333 13.8542 2.72917 13.5625 2.4375C13.2708 2.14583 12.9167 2 12.5 2ZM4.34375 15H1.5C1.35417 15 1.22917 14.9479 1.125 14.8438C1.04167 14.7604 1 14.6458 1 14.5V12.6562H4.34375V15ZM4.34375 11.6562H1V9.34375H4.34375V11.6562ZM1 8.34375V6H4.34375V8.34375H1ZM8.65625 15H5.34375V12.6562H8.65625V15ZM8.65625 11.6562H5.34375V9.34375H8.65625V11.6562ZM5.34375 8.34375V6H8.65625V8.34375H5.34375ZM13 14.5C13 14.6458 12.9479 14.7604 12.8438 14.8438C12.7604 14.9479 12.6458 15 12.5 15H9.65625V12.6562H13V14.5ZM13 11.6562H9.65625V9.34375H13V11.6562ZM13 8.34375H9.65625V6H13V8.34375ZM13 5H1V3.5C1 3.35417 1.04167 3.23958 1.125 3.15625C1.22917 3.05208 1.35417 3 1.5 3H12.5C12.6458 3 12.7604 3.05208 12.8438 3.15625C12.9479 3.23958 13 3.35417 13 3.5V5Z" fill="#999999"/>
</svg>
