<svg width="16" height="17" viewBox="0 0 16 17" fill="none" xmlns="http://www.w3.org/2000/svg">
<g clip-path="url(#clip0_82_726)">
<path d="M15.36 1.5191H12V0.239102C12 0.151102 11.928 0.0791016 11.84 0.0791016H10.72C10.632 0.0791016 10.56 0.151102 10.56 0.239102V1.5191H5.44V0.239102C5.44 0.151102 5.368 0.0791016 5.28 0.0791016H4.16C4.072 0.0791016 4 0.151102 4 0.239102V1.5191H0.64C0.286 1.5191 0 1.8051 0 2.1591V15.4391C0 15.7931 0.286 16.0791 0.64 16.0791H15.36C15.714 16.0791 16 15.7931 16 15.4391V2.1591C16 1.8051 15.714 1.5191 15.36 1.5191ZM14.56 14.6391H1.44V7.0391H14.56V14.6391ZM1.44 5.6791V2.9591H4V3.9191C4 4.0071 4.072 4.0791 4.16 4.0791H5.28C5.368 4.0791 5.44 4.0071 5.44 3.9191V2.9591H10.56V3.9191C10.56 4.0071 10.632 4.0791 10.72 4.0791H11.84C11.928 4.0791 12 4.0071 12 3.9191V2.9591H14.56V5.6791H1.44Z" fill="black" fill-opacity="0.9"/>
</g>
<defs>
<clipPath id="clip0_82_726">
<rect width="16" height="16" fill="white" transform="translate(0 0.0791016)"/>
</clipPath>
</defs>
</svg>
