<svg width="20" height="20" viewBox="0 0 20 20" fill="none" xmlns="http://www.w3.org/2000/svg">
<path d="M17.5 2.5H16.6667V0.833282C16.6667 0.373383 16.2933 0 15.8333 0H15C14.5399 0 14.1667 0.373383 14.1667 0.833282V2.5H5.83328V0.833282C5.83328 0.373383 5.46005 0 5 0H4.16672C3.70667 0 3.33328 0.373383 3.33328 0.833282V2.5H2.5C1.12167 2.5 0 3.62167 0 5V17.5C0 18.8783 1.12167 20 2.5 20H17.5C18.8783 20 20 18.8783 20 17.5V5C20 3.62167 18.8783 2.5 17.5 2.5ZM18.3333 17.5C18.3333 17.9591 17.9591 18.3333 17.5 18.3333H2.5C2.04086 18.3333 1.66672 17.9591 1.66672 17.5V8.3667H18.3333V17.5Z" fill="white"/>
<path d="M12.6716 13.5313H12.6719H10.4688V11.3323C10.4688 11.1513 10.3222 11 10.1412 11H9.85934C9.67841 11 9.53124 11.1513 9.53124 11.3323V13.5313H7.32815C7.14727 13.5313 7 13.6776 7 13.8587V14.1422C7 14.3231 7.14722 14.4688 7.32815 14.4688H9.53129V16.6757C9.53129 16.8566 9.67841 17 9.85939 17H10.1413C10.3223 17 10.4688 16.8565 10.4688 16.6757V14.4688H12.6716C12.8525 14.4688 13 14.323 13 14.1422V13.8587C13 13.6776 12.8525 13.5313 12.6716 13.5313Z" fill="white"/>
</svg>
