<svg width="60" height="60" viewBox="0 0 60 60" fill="none" xmlns="http://www.w3.org/2000/svg">
<path d="M43.9286 5.35718H16.0714H0V17.1429H60V5.35718H43.9286Z" fill="#61B872"/>
<path d="M20.3571 11.7857C21.5406 11.7857 22.5 10.8263 22.5 9.64286C22.5 8.45939 21.5406 7.5 20.3571 7.5C19.1737 7.5 18.2143 8.45939 18.2143 9.64286C18.2143 10.8263 19.1737 11.7857 20.3571 11.7857Z" fill="#50965C"/>
<path d="M26.7857 11.7857C27.9692 11.7857 28.9286 10.8263 28.9286 9.64286C28.9286 8.45939 27.9692 7.5 26.7857 7.5C25.6022 7.5 24.6429 8.45939 24.6429 9.64286C24.6429 10.8263 25.6022 11.7857 26.7857 11.7857Z" fill="#50965C"/>
<path d="M33.2143 11.7857C34.3978 11.7857 35.3571 10.8263 35.3571 9.64286C35.3571 8.45939 34.3978 7.5 33.2143 7.5C32.0308 7.5 31.0714 8.45939 31.0714 9.64286C31.0714 10.8263 32.0308 11.7857 33.2143 11.7857Z" fill="#50965C"/>
<path d="M39.6429 11.7857C40.8263 11.7857 41.7857 10.8263 41.7857 9.64286C41.7857 8.45939 40.8263 7.5 39.6429 7.5C38.4594 7.5 37.5 8.45939 37.5 9.64286C37.5 10.8263 38.4594 11.7857 39.6429 11.7857Z" fill="#50965C"/>
<path d="M60 17.1428H0V60H60V17.1428Z" fill="#EDEADA"/>
<path d="M22.5 26.7857C23.0917 26.7857 23.5714 26.306 23.5714 25.7142C23.5714 25.1225 23.0917 24.6428 22.5 24.6428C21.9083 24.6428 21.4286 25.1225 21.4286 25.7142C21.4286 26.306 21.9083 26.7857 22.5 26.7857Z" fill="#424A60"/>
<path d="M30 26.7857C30.5917 26.7857 31.0714 26.306 31.0714 25.7142C31.0714 25.1225 30.5917 24.6428 30 24.6428C29.4083 24.6428 28.9286 25.1225 28.9286 25.7142C28.9286 26.306 29.4083 26.7857 30 26.7857Z" fill="#424A60"/>
<path d="M37.5 26.7857C38.0917 26.7857 38.5714 26.306 38.5714 25.7142C38.5714 25.1225 38.0917 24.6428 37.5 24.6428C36.9083 24.6428 36.4286 25.1225 36.4286 25.7142C36.4286 26.306 36.9083 26.7857 37.5 26.7857Z" fill="#424A60"/>
<path d="M45 26.7857C45.5917 26.7857 46.0714 26.306 46.0714 25.7142C46.0714 25.1225 45.5917 24.6428 45 24.6428C44.4083 24.6428 43.9286 25.1225 43.9286 25.7142C43.9286 26.306 44.4083 26.7857 45 26.7857Z" fill="#424A60"/>
<path d="M52.5 26.7857C53.0917 26.7857 53.5714 26.306 53.5714 25.7142C53.5714 25.1225 53.0917 24.6428 52.5 24.6428C51.9083 24.6428 51.4286 25.1225 51.4286 25.7142C51.4286 26.306 51.9083 26.7857 52.5 26.7857Z" fill="#424A60"/>
<path d="M7.5 35.3572C8.09174 35.3572 8.57143 34.8775 8.57143 34.2858C8.57143 33.6941 8.09174 33.2144 7.5 33.2144C6.90827 33.2144 6.42857 33.6941 6.42857 34.2858C6.42857 34.8775 6.90827 35.3572 7.5 35.3572Z" fill="#424A60"/>
<path d="M15 35.3572C15.5917 35.3572 16.0714 34.8775 16.0714 34.2858C16.0714 33.6941 15.5917 33.2144 15 33.2144C14.4083 33.2144 13.9286 33.6941 13.9286 34.2858C13.9286 34.8775 14.4083 35.3572 15 35.3572Z" fill="#424A60"/>
<path d="M22.5 35.3572C23.0917 35.3572 23.5714 34.8775 23.5714 34.2858C23.5714 33.6941 23.0917 33.2144 22.5 33.2144C21.9083 33.2144 21.4286 33.6941 21.4286 34.2858C21.4286 34.8775 21.9083 35.3572 22.5 35.3572Z" fill="#424A60"/>
<path d="M30 35.3572C30.5917 35.3572 31.0714 34.8775 31.0714 34.2858C31.0714 33.6941 30.5917 33.2144 30 33.2144C29.4083 33.2144 28.9286 33.6941 28.9286 34.2858C28.9286 34.8775 29.4083 35.3572 30 35.3572Z" fill="#424A60"/>
<path d="M37.5 35.3572C38.0917 35.3572 38.5714 34.8775 38.5714 34.2858C38.5714 33.6941 38.0917 33.2144 37.5 33.2144C36.9083 33.2144 36.4286 33.6941 36.4286 34.2858C36.4286 34.8775 36.9083 35.3572 37.5 35.3572Z" fill="#424A60"/>
<path d="M45 35.3572C45.5917 35.3572 46.0714 34.8775 46.0714 34.2858C46.0714 33.6941 45.5917 33.2144 45 33.2144C44.4083 33.2144 43.9286 33.6941 43.9286 34.2858C43.9286 34.8775 44.4083 35.3572 45 35.3572Z" fill="#424A60"/>
<path d="M52.5 35.3572C53.0917 35.3572 53.5714 34.8775 53.5714 34.2858C53.5714 33.6941 53.0917 33.2144 52.5 33.2144C51.9083 33.2144 51.4286 33.6941 51.4286 34.2858C51.4286 34.8775 51.9083 35.3572 52.5 35.3572Z" fill="#424A60"/>
<path d="M7.5 42.8572C8.09174 42.8572 8.57143 42.3775 8.57143 41.7858C8.57143 41.1941 8.09174 40.7144 7.5 40.7144C6.90827 40.7144 6.42857 41.1941 6.42857 41.7858C6.42857 42.3775 6.90827 42.8572 7.5 42.8572Z" fill="#424A60"/>
<path d="M15 42.8572C15.5917 42.8572 16.0714 42.3775 16.0714 41.7858C16.0714 41.1941 15.5917 40.7144 15 40.7144C14.4083 40.7144 13.9286 41.1941 13.9286 41.7858C13.9286 42.3775 14.4083 42.8572 15 42.8572Z" fill="#424A60"/>
<path d="M22.5 42.8572C23.0917 42.8572 23.5714 42.3775 23.5714 41.7858C23.5714 41.1941 23.0917 40.7144 22.5 40.7144C21.9083 40.7144 21.4286 41.1941 21.4286 41.7858C21.4286 42.3775 21.9083 42.8572 22.5 42.8572Z" fill="#424A60"/>
<path d="M30 42.8572C30.5917 42.8572 31.0714 42.3775 31.0714 41.7858C31.0714 41.1941 30.5917 40.7144 30 40.7144C29.4083 40.7144 28.9286 41.1941 28.9286 41.7858C28.9286 42.3775 29.4083 42.8572 30 42.8572Z" fill="#424A60"/>
<path d="M37.5 42.8572C38.0917 42.8572 38.5714 42.3775 38.5714 41.7858C38.5714 41.1941 38.0917 40.7144 37.5 40.7144C36.9083 40.7144 36.4286 41.1941 36.4286 41.7858C36.4286 42.3775 36.9083 42.8572 37.5 42.8572Z" fill="#424A60"/>
<path d="M45 42.8572C45.5917 42.8572 46.0714 42.3775 46.0714 41.7858C46.0714 41.1941 45.5917 40.7144 45 40.7144C44.4083 40.7144 43.9286 41.1941 43.9286 41.7858C43.9286 42.3775 44.4083 42.8572 45 42.8572Z" fill="#424A60"/>
<path d="M52.5 42.8572C53.0917 42.8572 53.5714 42.3775 53.5714 41.7858C53.5714 41.1941 53.0917 40.7144 52.5 40.7144C51.9083 40.7144 51.4286 41.1941 51.4286 41.7858C51.4286 42.3775 51.9083 42.8572 52.5 42.8572Z" fill="#424A60"/>
<path d="M7.5 51.4285C8.09174 51.4285 8.57143 50.9488 8.57143 50.3571C8.57143 49.7653 8.09174 49.2856 7.5 49.2856C6.90827 49.2856 6.42857 49.7653 6.42857 50.3571C6.42857 50.9488 6.90827 51.4285 7.5 51.4285Z" fill="#424A60"/>
<path d="M15 51.4285C15.5917 51.4285 16.0714 50.9488 16.0714 50.3571C16.0714 49.7653 15.5917 49.2856 15 49.2856C14.4083 49.2856 13.9286 49.7653 13.9286 50.3571C13.9286 50.9488 14.4083 51.4285 15 51.4285Z" fill="#424A60"/>
<path d="M22.5 51.4285C23.0917 51.4285 23.5714 50.9488 23.5714 50.3571C23.5714 49.7653 23.0917 49.2856 22.5 49.2856C21.9083 49.2856 21.4286 49.7653 21.4286 50.3571C21.4286 50.9488 21.9083 51.4285 22.5 51.4285Z" fill="#424A60"/>
<path d="M30 51.4285C30.5917 51.4285 31.0714 50.9488 31.0714 50.3571C31.0714 49.7653 30.5917 49.2856 30 49.2856C29.4083 49.2856 28.9286 49.7653 28.9286 50.3571C28.9286 50.9488 29.4083 51.4285 30 51.4285Z" fill="#424A60"/>
<path d="M37.5 51.4285C38.0917 51.4285 38.5714 50.9488 38.5714 50.3571C38.5714 49.7653 38.0917 49.2856 37.5 49.2856C36.9083 49.2856 36.4286 49.7653 36.4286 50.3571C36.4286 50.9488 36.9083 51.4285 37.5 51.4285Z" fill="#424A60"/>
<path d="M39.6429 0C38.4321 0 37.3264 0.418929 36.4286 1.09821C37.0007 1.53214 37.4775 2.07536 37.8375 2.7C38.3529 2.34857 38.9743 2.14286 39.6429 2.14286C41.415 2.14286 42.8571 3.585 42.8571 5.35714C42.8571 7.12929 41.415 8.57143 39.6429 8.57143C39.0504 8.57143 38.5714 9.05036 38.5714 9.64286C38.5714 10.2354 39.0504 10.7143 39.6429 10.7143C42.5968 10.7143 45 8.31107 45 5.35714C45 2.40321 42.5968 0 39.6429 0Z" fill="#D8A852"/>
<path d="M35.0196 2.69995C34.5654 3.48638 34.2857 4.38531 34.2857 5.35709H36.4286C36.4286 4.25352 35.8693 3.27959 35.0196 2.69995Z" fill="#A37F46"/>
<path d="M28.5911 2.69995C28.1368 3.48638 27.8571 4.38531 27.8571 5.35709H30C30 4.25352 29.4407 3.27959 28.5911 2.69995Z" fill="#A37F46"/>
<path d="M37.8375 2.7C37.4775 2.07536 37.0007 1.53214 36.4286 1.09821C35.5307 0.418929 34.425 0 33.2143 0C32.0036 0 30.8979 0.418929 30 1.09821C30.5721 1.53214 31.0489 2.07536 31.4089 2.7C31.9243 2.34857 32.5457 2.14286 33.2143 2.14286C33.8829 2.14286 34.5043 2.34857 35.0196 2.7C35.8693 3.27964 36.4286 4.25357 36.4286 5.35714C36.4286 7.12929 34.9864 8.57143 33.2143 8.57143C32.6218 8.57143 32.1429 9.05036 32.1429 9.64286C32.1429 10.2354 32.6218 10.7143 33.2143 10.7143C36.1682 10.7143 38.5714 8.31107 38.5714 5.35714C38.5714 4.38536 38.2918 3.48643 37.8375 2.7Z" fill="#D8A852"/>
<path d="M22.1625 2.69995C21.7082 3.48638 21.4286 4.38531 21.4286 5.35709H23.5714C23.5714 4.25352 23.0121 3.27959 22.1625 2.69995Z" fill="#A37F46"/>
<path d="M31.4089 2.7C31.0489 2.07536 30.5721 1.53214 30 1.09821C29.1021 0.418929 27.9964 0 26.7857 0C25.575 0 24.4693 0.418929 23.5714 1.09821C24.1436 1.53214 24.6204 2.07536 24.9804 2.7C25.4957 2.34857 26.1171 2.14286 26.7857 2.14286C27.4543 2.14286 28.0757 2.34857 28.5911 2.7C29.4407 3.27964 30 4.25357 30 5.35714C30 7.12929 28.5579 8.57143 26.7857 8.57143C26.1932 8.57143 25.7143 9.05036 25.7143 9.64286C25.7143 10.2354 26.1932 10.7143 26.7857 10.7143C29.7396 10.7143 32.1429 8.31107 32.1429 5.35714C32.1429 4.38536 31.8632 3.48643 31.4089 2.7Z" fill="#D8A852"/>
<path d="M24.9804 2.7C24.6204 2.07536 24.1436 1.53214 23.5714 1.09821C22.6736 0.418929 21.5679 0 20.3571 0C17.4032 0 15 2.40321 15 5.35714H17.1429C17.1429 3.585 18.585 2.14286 20.3571 2.14286C21.0257 2.14286 21.6471 2.34857 22.1625 2.7C23.0121 3.27964 23.5714 4.25357 23.5714 5.35714C23.5714 7.12929 22.1293 8.57143 20.3571 8.57143C19.7646 8.57143 19.2857 9.05036 19.2857 9.64286C19.2857 10.2354 19.7646 10.7143 20.3571 10.7143C23.3111 10.7143 25.7143 8.31107 25.7143 5.35714C25.7143 4.38536 25.4346 3.48643 24.9804 2.7Z" fill="#D8A852"/>
</svg>
