<svg width="20" height="20" viewBox="0 0 20 20" fill="none" xmlns="http://www.w3.org/2000/svg">
<path d="M19.9097 17.7388C19.9099 18.0203 19.8546 18.2991 19.747 18.5593C19.6394 18.8195 19.4816 19.0559 19.2826 19.2551C19.0836 19.4542 18.8473 19.6122 18.5873 19.7201C18.3272 19.8279 18.0484 19.8834 17.7669 19.8834H2.16936C1.60085 19.8831 1.05576 19.657 0.653972 19.2548C0.252184 18.8526 0.026607 18.3073 0.0268557 17.7388V2.14375C0.0268557 0.96 0.986231 0 2.16936 0H17.7669C18.0483 4.103e-05 18.327 0.0555256 18.587 0.163285C18.8471 0.271045 19.0833 0.428969 19.2823 0.628038C19.4813 0.827108 19.6391 1.06342 19.7467 1.32349C19.8544 1.58356 19.9097 1.86228 19.9097 2.14375V17.7388Z" fill="#E6E7E8"/>
<path d="M0.0268555 3.29639H19.9112V3.60889H0.0299805L0.0268555 3.29639Z" fill="#939598"/>
<path d="M0.0268555 7.91797H19.9112V8.23047H0.0299805L0.0268555 7.91797Z" fill="#939598"/>
<path d="M0.0268555 12.5498H19.9112V12.8623H0.0299805L0.0268555 12.5498Z" fill="#939598"/>
<path d="M0.0268555 17.1704H19.9112V17.4829H0.0299805L0.0268555 17.1704Z" fill="#939598"/>
<path d="M3.05615 0H3.36865V19.8844H3.05615V0Z" fill="#939598"/>
<path d="M7.67676 0H7.98926V19.8844H7.67676V0Z" fill="#939598"/>
<path d="M12.3096 0H12.6221V19.8844H12.3096V0Z" fill="#939598"/>
<path d="M16.9282 0H17.2407V19.8844H16.9282V0Z" fill="#939598"/>
<path d="M0 13.253L5.41906 8.54051C5.35923 8.44238 5.30397 8.34155 5.25344 8.23832C5.02813 8.16863 4.80156 8.12363 4.58219 8.03613L0 11.9996V13.2558" fill="#EE4036"/>
<path d="M8.5546 13.3135C9.16616 13.3763 9.10085 13.3207 9.48429 12.947L5.25304 8.08196C5.17016 7.98673 5.05284 7.92833 4.9269 7.9196C4.80096 7.91087 4.67671 7.95252 4.58148 8.0354C4.48625 8.11828 4.42784 8.2356 4.41911 8.36154C4.41038 8.48748 4.45203 8.61173 4.53491 8.70696L8.54366 13.3151C8.54741 13.3138 8.55023 13.3129 8.5546 13.3135Z" fill="#EE4036"/>
<path d="M19.9086 8.30376L17.4858 5.51813C17.4448 5.47106 17.3949 5.43252 17.3391 5.40472C17.2832 5.37692 17.2223 5.3604 17.1601 5.35611C17.0978 5.35181 17.0353 5.35983 16.9761 5.37969C16.9169 5.39956 16.8622 5.43088 16.8152 5.47188C16.7679 5.51277 16.7291 5.5626 16.7011 5.6185C16.6732 5.6744 16.6565 5.73528 16.6521 5.79764C16.6477 5.86001 16.6556 5.92263 16.6754 5.98191C16.6953 6.0412 16.7266 6.09598 16.7677 6.14313L19.9083 9.75344V8.30376" fill="#EE4036"/>
<path d="M9.41549 13.0129C9.17174 13.2251 8.83486 13.236 8.66236 13.0367C8.49017 12.8389 8.54736 12.5067 8.79049 12.2948L16.6436 5.46324C16.8864 5.25199 17.2242 5.24105 17.397 5.43886C17.5692 5.63667 17.5117 5.97011 17.2683 6.18136L9.41517 13.0129" fill="#EE4036"/>
</svg>
