<svg width="50" height="50" viewBox="0 0 50 50" fill="none" xmlns="http://www.w3.org/2000/svg">
<path d="M36.049 17.0679C36.8121 17.831 36.8121 19.0671 36.049 19.8302L22.9471 32.9321C22.184 33.6952 20.948 33.6952 20.1849 32.9321L13.951 26.6982C13.1879 25.9351 13.1879 24.6991 13.951 23.9359C14.7141 23.1728 15.9501 23.1728 16.7132 23.9359L21.5714 28.7941L33.2975 17.0679C34.0499 16.3048 35.2859 16.3048 36.049 17.0679ZM50 25C50 38.822 38.822 50 25 50C11.178 50 0 38.822 0 25C0 11.178 11.178 0 25 0C38.822 0 50 11.178 50 25ZM46.0984 25C46.0984 13.3383 36.6617 3.90155 25 3.90155C13.3383 3.90155 3.90155 13.3383 3.90155 25C3.90155 36.6617 13.3383 46.0984 25 46.0984C36.6617 46.0984 46.0984 36.6617 46.0984 25Z" fill="#808080"/>
</svg>
