<svg width="18" height="19" viewBox="0 0 18 19" fill="none" xmlns="http://www.w3.org/2000/svg">
<path d="M5.27863 8.47653C5.03057 8.22846 4.62747 8.22846 4.37941 8.47653C4.13134 8.72459 4.13134 9.12769 4.37941 9.37575L7.30964 12.306C7.43367 12.43 7.58871 12.492 7.75925 12.492C7.77475 12.492 7.77475 12.492 7.79026 12.492C7.9608 12.4765 8.13134 12.399 8.25537 12.2595L15.5887 3.46877C15.8058 3.20521 15.7748 2.80211 15.5112 2.56955C15.2476 2.35249 14.8445 2.3835 14.612 2.64707L7.71274 10.9106L5.27863 8.47653Z" fill="#33CC00"/>
<path d="M13.7442 1.37584C10.1783 -0.856718 5.60465 -0.329586 2.62791 2.64716C-0.875969 6.15103 -0.875969 11.872 2.62791 15.3758C4.37985 17.1278 6.68992 18.0115 8.9845 18.0115C11.2791 18.0115 13.5891 17.1278 15.3411 15.3758C18.3333 12.3836 18.845 7.79445 16.5969 4.22855C16.4109 3.93398 16.0233 3.84096 15.7287 4.027C15.4341 4.21305 15.3411 4.60065 15.5271 4.89522C17.4651 7.96499 17.0155 11.903 14.4419 14.4766C11.4341 17.4844 6.51938 17.4844 3.51163 14.4766C0.503876 11.4689 0.503876 6.55413 3.51163 3.54638C6.08527 0.988243 10.0078 0.538631 13.0775 2.44561C13.3721 2.63165 13.7597 2.53863 13.9457 2.24406C14.1318 1.94948 14.0388 1.56189 13.7442 1.37584Z" fill="#33CC00"/>
</svg>
