<svg width="18" height="24" viewBox="0 0 18 24" fill="none" xmlns="http://www.w3.org/2000/svg">
<path d="M15.75 0H2.25C1.625 0 1.09375 0.21875 0.65625 0.65625C0.21875 1.09375 0 1.625 0 2.25V24L9 18.75L18 24V2.25C18 1.625 17.7812 1.09375 17.3438 0.65625C16.9062 0.21875 16.375 0 15.75 0ZM15.75 20.0625L9 16.125L2.25 20.0625V2.53125C2.25 2.46875 2.28125 2.40625 2.34375 2.34375C2.40625 2.28125 2.46875 2.25 2.53125 2.25H15.4688C15.5312 2.25 15.5938 2.28125 15.6562 2.34375C15.7188 2.40625 15.75 2.46875 15.75 2.53125V20.0625Z" fill="black"/>
</svg>
