<svg width="18" height="16" viewBox="0 0 18 16" fill="none" xmlns="http://www.w3.org/2000/svg">
<path d="M8.99999 6.11718C10.6865 6.11718 12.0586 4.7451 12.0586 3.05859C12.0586 1.37208 10.6865 0 8.99999 0C7.31348 0 5.94141 1.37208 5.94141 3.05859C5.94141 4.7451 7.31348 6.11718 8.99999 6.11718ZM8.99999 1.05469C10.105 1.05469 11.0039 1.95363 11.0039 3.05859C11.0039 4.16355 10.105 5.06249 8.99999 5.06249C7.89504 5.06249 6.99609 4.16355 6.99609 3.05859C6.99609 1.95363 7.89504 1.05469 8.99999 1.05469Z" fill="#555555"/>
<path d="M15.1875 6.11718C16.2537 6.11718 17.1211 5.24977 17.1211 4.18359C17.1211 3.11741 16.2537 2.25 15.1875 2.25C14.1213 2.25 13.2539 3.11741 13.2539 4.18359C13.2539 5.24977 14.1213 6.11718 15.1875 6.11718ZM15.1875 3.30469C15.6721 3.30469 16.0664 3.69896 16.0664 4.18359C16.0664 4.66822 15.6721 5.06249 15.1875 5.06249C14.7029 5.06249 14.3086 4.66822 14.3086 4.18359C14.3086 3.69896 14.7029 3.30469 15.1875 3.30469Z" fill="#555555"/>
<path d="M15.6129 7.3125H14.7972C13.8361 7.3125 13.0064 7.88034 12.6283 8.69597C11.85 7.84624 10.7319 7.3125 9.49143 7.3125H8.50857C7.26812 7.3125 6.15005 7.84624 5.37165 8.69597C4.99355 7.88034 4.16386 7.3125 3.20273 7.3125H2.3871C1.07086 7.3125 0 8.37689 0 9.68519V13.5246C0 14.0926 0.463851 14.5547 1.03401 14.5547H4.25878C4.31286 15.184 4.84203 15.6797 5.48514 15.6797H12.5149C13.1579 15.6797 13.6871 15.184 13.7412 14.5547H16.9291C17.5196 14.5547 18 14.0762 18 13.488V9.68519C18 8.37689 16.9291 7.3125 15.6129 7.3125ZM1.05469 9.68519C1.05469 8.95844 1.65241 8.36719 2.3871 8.36719H3.20273C3.93742 8.36719 4.53515 8.95844 4.53515 9.68519V10.0463C4.18053 10.9696 4.2539 11.523 4.2539 13.5H1.05469V9.68519ZM12.6914 14.4485C12.6914 14.5458 12.6122 14.625 12.5149 14.625H5.4851C5.38776 14.625 5.30858 14.5458 5.30858 14.4485V11.5672C5.30858 9.80268 6.74408 8.36719 8.50853 8.36719H9.4914C11.2559 8.36719 12.6914 9.80268 12.6914 11.5671V14.4485ZM16.9453 13.488C16.9453 13.5062 17.1419 13.5 13.7461 13.5C13.7461 11.5084 13.8189 10.9681 13.4648 10.0463V9.68519C13.4648 8.95844 14.0625 8.36719 14.7972 8.36719H15.6129C16.3476 8.36719 16.9453 8.95844 16.9453 9.68519V13.488Z" fill="#555555"/>
<path d="M2.8125 6.11718C3.87868 6.11718 4.74609 5.24977 4.74609 4.18359C4.74609 3.11741 3.87868 2.25 2.8125 2.25C1.74631 2.25 0.878906 3.11741 0.878906 4.18359C0.878906 5.24977 1.74631 6.11718 2.8125 6.11718ZM2.8125 3.30469C3.29712 3.30469 3.6914 3.69896 3.6914 4.18359C3.6914 4.66822 3.29712 5.06249 2.8125 5.06249C2.32787 5.06249 1.93359 4.66822 1.93359 4.18359C1.93359 3.69896 2.32787 3.30469 2.8125 3.30469Z" fill="#555555"/>
</svg>
