<svg width="17" height="16" viewBox="0 0 17 16" fill="none" xmlns="http://www.w3.org/2000/svg">
<path d="M10.3677 6.23647C10.1799 6.04581 9.97159 5.87681 9.74674 5.73256C9.15119 5.34778 8.45885 5.14332 7.75167 5.14332C6.77012 5.14147 5.82846 5.53497 5.13562 6.23647L1.7744 9.63052C1.08273 10.3297 0.693979 11.2771 0.69336 12.265C0.69206 14.3265 2.34728 15.9987 4.39044 16C5.37047 16.0035 6.31126 15.6119 7.00386 14.9122L9.77845 12.1127C9.82886 12.0623 9.85701 11.9935 9.85661 11.9219C9.85577 11.7746 9.73677 11.656 9.59082 11.6568H9.48514C8.90544 11.6589 8.33092 11.5465 7.79397 11.3262C7.69503 11.2851 7.58132 11.3083 7.50595 11.3849L5.51087 13.4005C4.89136 14.0256 3.88693 14.0256 3.26741 13.4005C2.6479 12.7754 2.6479 11.762 3.26741 11.1369L6.64186 7.73485C7.26088 7.11106 8.26367 7.11106 8.88268 7.73485C9.29986 8.131 9.95059 8.131 10.3677 7.73485C10.5472 7.55361 10.656 7.31321 10.6743 7.05763C10.6936 6.75222 10.5819 6.45311 10.3677 6.23647Z" fill="white"/>
<path d="M15.4652 1.09333C14.0204 -0.364443 11.678 -0.364443 10.2332 1.09333L7.46119 3.88749C7.38507 3.96466 7.36312 4.08073 7.4057 4.18078C7.44778 4.2811 7.54613 4.3455 7.65408 4.3434H7.75184C8.33085 4.34234 8.90444 4.45554 9.44038 4.67669C9.53932 4.71777 9.65302 4.69459 9.7284 4.61804L11.7182 2.61306C12.3377 1.98798 13.3421 1.98798 13.9616 2.61306C14.5811 3.23813 14.5811 4.25158 13.9616 4.87665L11.483 7.37486L11.4618 7.39886L10.5951 8.26805C9.9761 8.89184 8.97331 8.89184 8.35429 8.26805C7.93711 7.8719 7.28638 7.8719 6.86923 8.26805C6.68861 8.45067 6.5797 8.69316 6.5627 8.95058C6.54337 9.256 6.65501 9.5551 6.86923 9.77178C7.17509 10.0817 7.53294 10.3344 7.92621 10.5183C7.9817 10.545 8.0372 10.5663 8.09269 10.5903C8.14818 10.6143 8.2063 10.6329 8.26179 10.6543C8.31729 10.6756 8.37541 10.6943 8.4309 10.7103L8.58682 10.7529C8.69251 10.7796 8.79823 10.8009 8.90655 10.8196C9.03704 10.8391 9.16846 10.8516 9.30029 10.8569H9.48525H9.5011L9.65965 10.8382C9.71777 10.8356 9.77856 10.8222 9.84728 10.8222H9.93711L10.1194 10.7956L10.204 10.7796L10.3573 10.7476H10.3863C11.0354 10.5831 11.6281 10.244 12.1013 9.76644L15.4651 6.37239C16.91 4.91461 16.91 2.5511 15.4652 1.09333Z" fill="white"/>
</svg>
