<svg width="97" height="97" viewBox="0 0 97 97" fill="none" xmlns="http://www.w3.org/2000/svg">
<g clip-path="url(#clip0)">
<path d="M48.5 0.666504C22.0333 0.666504 0.5 22.1998 0.5 48.6665C0.5 75.1332 22.0333 96.6665 48.5 96.6665C74.9667 96.6665 96.5 75.1332 96.5 48.6665C96.5 22.1998 74.9667 0.666504 48.5 0.666504ZM48.5 90.6665C25.3408 90.6665 6.50003 71.8257 6.50003 48.6665C6.50003 25.5073 25.3408 6.66653 48.5 6.66653C71.6592 6.66653 90.5 25.5073 90.5 48.6665C90.5 71.8257 71.6592 90.6665 48.5 90.6665V90.6665Z" fill="white"/>
<path d="M51.5 18.6665H45.4999V49.9086L64.3788 68.7875L68.621 64.5453L51.5 47.4243V18.6665Z" fill="white"/>
</g>
<defs>
<clipPath id="clip0">
<rect width="96" height="96" fill="white" transform="translate(0.5 0.666504)"/>
</clipPath>
</defs>
</svg>
