<svg width="51" height="51" viewBox="0 0 51 51" fill="none" xmlns="http://www.w3.org/2000/svg">
<path d="M11.1451 31.4505L11.6167 32.4245C11.6167 32.4245 19.0947 38.4967 25.4999 38.4967C31.9051 38.4967 39.4168 32.4245 39.4168 32.4245L39.8541 31.4505H39.8542C39.1354 29.302 38.2525 26.3523 37.6331 23.2369L36.2645 22.4672H14.5343L13.3662 23.2366C12.7469 26.3521 11.8639 29.3019 11.145 31.4505H11.1451Z" fill="#365E7D"/>
<path d="M17.4964 22.7978L17.9983 22.4672H14.5343L13.3662 23.2366C12.7469 26.3521 11.8639 29.3019 11.145 31.4505H11.1451L11.6167 32.4245C11.6167 32.4245 12.7677 33.3589 14.5529 34.4947C15.5992 30.9997 16.6662 26.9736 17.4964 22.7978V22.7978Z" fill="#294B64"/>
<path d="M50.0176 15.8488L26.7494 7.98497C25.939 7.71114 25.061 7.71114 24.2507 7.98497L0.98237 15.8488C0.381685 16.0518 0.328658 16.8808 0.89858 17.1586L23.7899 28.319C24.8692 28.8452 26.1307 28.8452 27.21 28.319L50.1014 17.1586C50.6713 16.8808 50.6184 16.0518 50.0176 15.8488V15.8488Z" fill="#477B9E"/>
<path d="M7.94088 17.158C7.37086 16.8801 7.42388 16.0511 8.02467 15.8481L29.0211 8.75209L26.7493 7.98431C25.9389 7.71039 25.0609 7.71039 24.2506 7.98431L0.98237 15.8481C0.381685 16.0511 0.328658 16.8801 0.89858 17.158L23.7899 28.3183C24.8692 28.8445 26.1307 28.8445 27.21 28.3183L29.0212 27.4353L7.94088 17.158Z" fill="#3F6D8E"/>
<path d="M44.8618 35.6122C44.4451 35.6122 44.1073 35.2744 44.1073 34.8577V20.9035C44.1073 20.5453 43.8653 20.2319 43.5188 20.1414L26.4898 15.6513C26.0869 15.5451 25.8464 15.1323 25.9526 14.7294C26.0589 14.3264 26.4714 14.0856 26.8746 14.1922L43.902 18.6817C44.9107 18.9452 45.6164 19.859 45.6164 20.9034V34.8575C45.6163 35.2744 45.2785 35.6122 44.8618 35.6122Z" fill="#ECF4FF"/>
<path d="M46.1827 36.5347H43.5409L43.2267 41.4208C43.2008 41.8257 43.513 42.1688 43.9074 42.1688H45.8162C46.2106 42.1688 46.5228 41.8257 46.4968 41.4208L46.1827 36.5347Z" fill="#FFD064"/>
<path d="M44.946 41.4208L45.2601 36.5347H43.5409L43.2267 41.4208C43.2008 41.8257 43.513 42.1687 43.9074 42.1687H45.6266C45.2322 42.1687 44.92 41.8257 44.946 41.4208Z" fill="#EBB044"/>
<path d="M45.4734 33.023H44.2504C43.6411 33.023 43.1427 33.5215 43.1427 34.1308V36.3298C43.1427 36.5298 43.3049 36.692 43.5049 36.692H46.219C46.419 36.692 46.5812 36.5298 46.5812 36.3298V34.1308C46.5811 33.5214 46.0826 33.023 45.4734 33.023V33.023Z" fill="#FFE07D"/>
<path d="M45.0876 36.3298V34.1308C45.0876 33.648 45.4012 33.2358 45.8344 33.085C45.721 33.0456 45.5998 33.023 45.4733 33.023H44.2504C43.6411 33.023 43.1426 33.5215 43.1426 34.1308V36.3298C43.1426 36.5299 43.3048 36.692 43.5048 36.692H45.4498C45.2497 36.692 45.0876 36.5299 45.0876 36.3298V36.3298Z" fill="#FFD064"/>
<path d="M25.6555 12.8223C24.2048 12.7344 23.0009 13.8849 23.0009 15.3166V15.3293C23.0041 15.9732 23.5435 16.4865 24.1875 16.4865H26.8126C27.435 16.4865 28.035 16.0048 27.9961 15.1942C27.9357 13.9334 26.9155 12.8986 25.6555 12.8223V12.8223Z" fill="#3F6D8E"/>
<path d="M25.2646 15.3293C25.2646 15.3251 25.2646 15.3209 25.2646 15.3166C25.2646 14.3457 25.8186 13.5048 26.6273 13.091C26.3313 12.9395 26.0032 12.8434 25.6557 12.8223C24.2049 12.7344 23.001 13.8849 23.001 15.3166V15.3293C23.0042 15.9732 23.5437 16.4865 24.1876 16.4865H26.4512C25.8072 16.4865 25.2678 15.9732 25.2646 15.3293Z" fill="#365E7D"/>
<path d="M39.8543 31.4504C37.232 33.6058 32.9677 36.0182 28.361 37.5027C26.535 38.0913 24.5111 38.1062 22.6386 37.5027C18.0423 36.0215 13.7796 33.6146 11.1452 31.4504C10.8932 32.2036 10.6611 32.8588 10.468 33.3874C10.136 34.2955 10.422 35.3163 11.1821 35.9138C15.3938 39.2239 19.8394 41.0325 22.6386 41.9347C23.563 42.2326 24.5285 42.3816 25.4997 42.3816C26.471 42.3816 27.4364 42.2326 28.3609 41.9347C31.1601 41.0325 35.6057 39.2239 39.8173 35.9138C40.5775 35.3163 40.8634 34.2955 40.5315 33.3874C40.3383 32.8587 40.1064 32.2035 39.8543 31.4504V31.4504Z" fill="#FFE07D"/>
<path d="M14.7228 33.9231C13.3471 33.1058 12.1319 32.2611 11.1451 31.4504C10.893 32.2036 10.6611 32.8588 10.4678 33.3874C10.1359 34.2955 10.4218 35.3163 11.182 35.9138C11.9764 36.5381 12.7791 37.1089 13.5775 37.6305C13.9498 36.4773 14.3358 35.2351 14.7228 33.9231V33.9231Z" fill="#FFD064"/>
</svg>
