<svg width="51" height="51" viewBox="0 0 51 51" fill="none" xmlns="http://www.w3.org/2000/svg">
<path d="M50.5 9.6665H0.5V41.8911H50.5V9.6665Z" fill="#36CC8F"/>
<path d="M50.5 9.6665H25.5V41.8911H50.5V9.6665Z" fill="#00BA64"/>
<path d="M42.8828 17.6393H30.1875V20.569H42.8828V17.6393Z" fill="#DECCBC"/>
<path d="M42.8828 24.314H30.1875V27.2437H42.8828V24.314Z" fill="#DECCBC"/>
<path d="M42.8828 30.9899H30.1875V33.9196H42.8828V30.9899Z" fill="#DECCBC"/>
<path d="M21.2422 32.6922V36.4058H5.93463V32.6922C5.93463 29.3045 8.69 26.5491 12.0778 26.5491H15.0991C18.486 26.5491 21.2422 29.3045 21.2422 32.6922Z" fill="#00459D"/>
<path d="M18.5007 20.1158C18.5007 22.8355 16.3014 25.0511 13.5881 25.0786C13.5711 25.0794 13.5532 25.0794 13.5362 25.0794C10.7986 25.0794 8.57178 22.8525 8.57178 20.1157C8.57178 17.3781 10.7986 15.1512 13.5362 15.1512C13.5532 15.1512 13.5711 15.1512 13.5881 15.152C16.3014 15.1797 18.5007 17.3952 18.5007 20.1158Z" fill="#00459D"/>
</svg>
