<svg width="97" height="97" viewBox="0 0 97 97" fill="none" xmlns="http://www.w3.org/2000/svg">
<g clip-path="url(#clip0)">
<path d="M54.5251 24.7664H39.4625C37.9092 24.7664 36.65 26.0257 36.65 27.5789V48.8664H33.4376C31.8843 48.8664 30.6251 50.1256 30.6251 51.6789C30.6251 53.2321 31.8843 54.4913 33.4376 54.4913H36.65V60.9164H33.4376C31.8843 60.9164 30.6251 62.1757 30.6251 63.7289C30.6251 65.2822 31.8843 66.5414 33.4376 66.5414H36.65V72.7664C36.65 74.3197 37.9092 75.5789 39.4625 75.5789C41.0157 75.5789 42.275 74.3197 42.275 72.7664V66.5414H54.5251C56.0784 66.5414 57.3376 65.2822 57.3376 63.7289C57.3376 62.1757 56.0784 60.9164 54.5251 60.9164H42.275V54.4913H54.5251C62.7204 54.4913 69.3877 47.824 69.3877 39.6288C69.3875 31.231 62.5469 24.7664 54.5251 24.7664V24.7664ZM54.5251 48.8664H42.275V30.3914H54.5251C59.588 30.3914 63.7627 34.4752 63.7627 39.629C63.7625 44.7226 59.6187 48.8664 54.5251 48.8664Z" fill="white"/>
<path d="M48.5 0.666504C22.0327 0.666504 0.5 22.1992 0.5 48.6665C0.5 75.1338 22.0327 96.6665 48.5 96.6665C74.9673 96.6665 96.5 75.1338 96.5 48.6665C96.5 22.1992 74.9673 0.666504 48.5 0.666504ZM48.5 91.0415C25.1343 91.0415 6.125 72.0322 6.125 48.6665C6.125 25.3008 25.1343 6.2915 48.5 6.2915C71.8657 6.2915 90.875 25.3008 90.875 48.6665C90.875 72.0322 71.8657 91.0415 48.5 91.0415Z" fill="white"/>
</g>
<defs>
<clipPath id="clip0">
<rect width="96" height="96" fill="white" transform="translate(0.5 0.666504)"/>
</clipPath>
</defs>
</svg>
