<svg width="97" height="97" viewBox="0 0 97 97" fill="none" xmlns="http://www.w3.org/2000/svg">
<g clip-path="url(#clip0)">
<path d="M48.4999 17.3621C40.4443 17.3621 33.8911 23.9151 33.8911 31.9708C33.8911 40.0266 40.4441 46.5796 48.4999 46.5796C56.5556 46.5796 63.1086 40.0264 63.1086 31.9708C63.1086 23.9153 56.5556 17.3621 48.4999 17.3621ZM48.4999 42.4056C42.7483 42.4056 38.0652 37.7224 38.0652 31.9708C38.0652 26.2193 42.7483 21.5361 48.4999 21.5361C54.2515 21.5361 58.9346 26.2193 58.9346 31.9708C58.9346 37.7224 54.2517 42.4056 48.4999 42.4056Z" fill="white"/>
<path d="M77.7174 34.0579C71.9658 34.0579 67.2827 38.741 67.2827 44.4926C67.2827 50.2442 71.9658 54.9273 77.7174 54.9273C83.469 54.9273 88.1521 50.2442 88.1521 44.4926C88.1521 38.741 83.469 34.0579 77.7174 34.0579ZM77.7174 50.7534C74.2655 50.7534 71.4566 47.9445 71.4566 44.4926C71.4566 41.0407 74.2655 38.2317 77.7174 38.2317C81.1693 38.2317 83.9783 41.0407 83.9783 44.4926C83.9783 47.9445 81.1691 50.7534 77.7174 50.7534Z" fill="white"/>
<path d="M19.579 34.0579C13.8231 34.0579 9.14429 38.741 9.14429 44.4926C9.14429 50.2442 13.8274 54.9273 19.579 54.9273C25.3306 54.9273 30.0137 50.2442 30.0137 44.4926C30.0137 38.741 25.3347 34.0579 19.579 34.0579ZM19.579 50.7534C16.1271 50.7534 13.3181 47.9445 13.3181 44.4926C13.3181 41.0407 16.1271 38.2317 19.579 38.2317C23.0309 38.2317 25.8399 41.0407 25.8399 44.4926C25.8399 47.9445 23.0307 50.7534 19.579 50.7534Z" fill="white"/>
<path d="M48.4999 50.7534C33.5405 50.7534 21.3694 62.9245 21.3694 77.8839C21.3694 79.0359 22.3044 79.9709 23.4564 79.9709C24.6084 79.9709 25.5435 79.0359 25.5435 77.8839C25.5435 65.2244 35.8404 54.9275 48.4999 54.9275C61.1594 54.9275 71.4563 65.2244 71.4563 77.8839C71.4563 79.0359 72.3914 79.9709 73.5434 79.9709C74.6954 79.9709 75.6304 79.0359 75.6304 77.8839C75.6304 62.9245 63.4593 50.7534 48.4999 50.7534Z" fill="white"/>
<path d="M77.7175 59.1013C74.2824 59.1013 70.9182 60.0404 67.9881 61.8144C67.0073 62.4155 66.69 63.6968 67.2869 64.6819C67.892 65.667 69.1693 65.98 70.1544 65.3831C72.429 64.0014 75.0419 63.2752 77.7175 63.2752C85.7731 63.2752 92.3263 69.8281 92.3263 77.8839C92.3263 79.0359 93.2613 79.9709 94.4133 79.9709C95.5653 79.9709 96.5003 79.0359 96.5003 77.8839C96.5001 67.5284 88.073 59.1013 77.7175 59.1013Z" fill="white"/>
<path d="M29.0079 61.8101C26.0819 60.0404 22.7179 59.1013 19.2826 59.1013C8.92712 59.1013 0.5 67.5284 0.5 77.8839C0.5 79.0359 1.43502 79.9709 2.58702 79.9709C3.73902 79.9709 4.67404 79.0359 4.67404 77.8839C4.67385 69.8281 11.227 63.2752 19.2826 63.2752C21.9581 63.2752 24.5709 64.0014 26.8416 65.3788C27.8224 65.9758 29.108 65.6627 29.7091 64.6776C30.3101 63.6925 29.9928 62.4112 29.0079 61.8101Z" fill="white"/>
</g>
<defs>
<clipPath id="clip0">
<rect width="96" height="96" fill="white" transform="translate(0.5 0.666504)"/>
</clipPath>
</defs>
</svg>
