<svg width="51" height="51" viewBox="0 0 51 51" fill="none" xmlns="http://www.w3.org/2000/svg">
<path d="M25.5 50.6666C39.3071 50.6666 50.5 39.4737 50.5 25.6665C50.5 11.8594 39.3071 0.666504 25.5 0.666504C11.6929 0.666504 0.499962 11.8594 0.499962 25.6665C0.499962 39.4737 11.6929 50.6666 25.5 50.6666Z" fill="#29B36F"/>
<path d="M49.9008 20.207H33.1564L35.1537 31.1258H49.9007C50.3002 29.3615 50.4999 27.5306 50.4999 25.6664C50.4999 23.8023 50.267 21.9714 49.9008 20.207Z" fill="#4F5565"/>
<path d="M17.8435 20.207H1.09913C0.699653 21.9714 0.499962 23.8023 0.499962 25.6664C0.499962 27.5306 0.699653 29.3615 1.09913 31.1258H15.8461L17.8435 20.207Z" fill="#4F5565"/>
<path d="M0.499962 26.0327H1.43205L1.73168 24.7344H0.533244C0.533244 25.034 0.499962 25.3668 0.499962 25.6665C0.499962 25.7996 0.499962 25.8994 0.499962 26.0327Z" fill="#FBD303"/>
<path d="M8.98868 26.0327H4.32815L4.5945 24.7344H9.18837L8.98868 26.0327Z" fill="#FBD303"/>
<path d="M16.512 26.0327H11.8515L12.0512 24.7344H16.6451L16.512 26.0327Z" fill="#FBD303"/>
<path d="M39.1485 26.0327H34.4879L34.3548 24.7344H38.9487L39.1485 26.0327Z" fill="#FBD303"/>
<path d="M46.6718 26.0327H42.0113L41.8115 24.7344H46.4054L46.6718 26.0327Z" fill="#FBD303"/>
<path d="M50.4667 24.7344H49.2349L49.5346 26.0327H50.4667C50.4667 25.8995 50.4667 25.7996 50.4667 25.6665C50.4999 25.3335 50.4667 25.0339 50.4667 24.7344Z" fill="#FBD303"/>
<path d="M21.3722 1.0328L12.9168 47.2712C16.6119 49.435 20.9061 50.6666 25.5001 50.6666C30.0941 50.6666 34.3882 49.4349 38.0834 47.2712L29.6278 1.0328C28.2963 0.799731 26.8981 0.699885 25.5 0.699885C24.1019 0.666603 22.7037 0.799731 21.3722 1.0328Z" fill="#646B79"/>
<path d="M24.8675 0.699766L24.8342 1.49873H26.1658L26.1325 0.699766C25.9328 0.699766 25.6997 0.699766 25.5 0.699766C25.3002 0.666484 25.0673 0.666484 24.8675 0.699766Z" fill="#FBD303"/>
<path d="M26.2323 3.66262H24.7677L24.8009 2.33105H26.1991L26.2323 3.66262Z" fill="#FBD303"/>
<path d="M26.2988 6.29216H24.701L24.7343 4.69434H26.2655L26.2988 6.29216Z" fill="#FBD303"/>
<path d="M26.3988 9.55447H24.6012L24.6678 7.59045H26.3323L26.3988 9.55447Z" fill="#FBD303"/>
<path d="M26.4987 13.6489H24.5014L24.5679 11.1522H26.4321L26.4987 13.6489Z" fill="#FBD303"/>
<path d="M26.665 19.0084H24.3348L24.4346 15.7461H26.5652L26.665 19.0084Z" fill="#FBD303"/>
<path d="M26.8649 26.2992H24.1352L24.2683 21.8052H26.7317L26.8649 26.2992Z" fill="#FBD303"/>
<path d="M27.1644 36.7851H23.8355L24.0019 30.2272H26.998L27.1644 36.7851Z" fill="#FBD303"/>
<path d="M23.4361 50.5667C24.1352 50.6332 24.8009 50.6665 25.5 50.6665C26.1991 50.6665 26.8982 50.6332 27.564 50.5667L27.3309 42.6772H23.6358L23.4361 50.5667Z" fill="#FBD303"/>
</svg>
