<svg width="21" height="16" viewBox="0 0 21 16" fill="none" xmlns="http://www.w3.org/2000/svg">
<mask id="path-1-inside-1" fill="white">
<path d="M19.7068 3.01213C19.4899 3.01213 19.3142 3.18804 19.3142 3.40469V8.17948C19.3142 8.98227 18.661 9.63553 17.8582 9.63553H15.6206C15.5164 9.63553 15.4167 9.67675 15.3429 9.75035L12.6302 12.4632V10.0281C12.6302 9.8112 12.4544 9.63553 12.2376 9.63553H6.61706C5.81427 9.63553 5.16101 8.9824 5.16101 8.17948V2.24106C5.16101 1.43826 5.81427 0.785132 6.61706 0.785132H17.8582C18.661 0.785132 19.3142 1.43826 19.3142 2.24106V3.63994C19.3142 3.85684 19.4899 4.03251 19.7068 4.03251C19.9235 4.03251 20.0994 3.85684 20.0994 3.63994V2.24106C20.0994 1.00534 19.094 0 17.8582 0H6.61706C5.38122 0 4.37588 1.00534 4.37588 2.24106V7.28443H1.51862C0.681347 7.28443 0 7.96553 0 8.80304V12.4205C0 13.2581 0.681347 13.9392 1.51862 13.9392H2.71925L4.66491 15.8849C4.74011 15.9601 4.84058 16 4.94265 16C4.99319 16 5.04435 15.9902 5.0928 15.9701C5.23953 15.9093 5.33521 15.7663 5.33521 15.6074V13.9392H8.36656C9.20395 13.9392 9.88517 13.2581 9.88517 12.4205V10.4207H11.8451V13.4109C11.8451 13.5698 11.9407 13.7128 12.0875 13.7735C12.1359 13.7937 12.187 13.8035 12.2376 13.8035C12.3398 13.8035 12.4402 13.7636 12.5152 13.6884L15.7831 10.4207H17.8582C19.094 10.4207 20.0994 9.41532 20.0994 8.17948V3.40469C20.0994 3.18804 19.9235 3.01213 19.7068 3.01213ZM9.10017 12.4205C9.10017 12.8251 8.77115 13.154 8.36656 13.154H4.94265C4.72576 13.154 4.55008 13.3299 4.55008 13.5466V14.6598L3.15942 13.2691C3.08581 13.1955 2.98595 13.154 2.8818 13.154H1.51862C1.11415 13.154 0.785132 12.8251 0.785132 12.4205V8.80304C0.785132 8.39858 1.11415 8.06956 1.51862 8.06956H4.37588V8.17948C4.37588 9.41532 5.38122 10.4207 6.61706 10.4207H9.10017V12.4205Z"/>
</mask>
<path d="M19.7068 3.01213C19.4899 3.01213 19.3142 3.18804 19.3142 3.40469V8.17948C19.3142 8.98227 18.661 9.63553 17.8582 9.63553H15.6206C15.5164 9.63553 15.4167 9.67675 15.3429 9.75035L12.6302 12.4632V10.0281C12.6302 9.8112 12.4544 9.63553 12.2376 9.63553H6.61706C5.81427 9.63553 5.16101 8.9824 5.16101 8.17948V2.24106C5.16101 1.43826 5.81427 0.785132 6.61706 0.785132H17.8582C18.661 0.785132 19.3142 1.43826 19.3142 2.24106V3.63994C19.3142 3.85684 19.4899 4.03251 19.7068 4.03251C19.9235 4.03251 20.0994 3.85684 20.0994 3.63994V2.24106C20.0994 1.00534 19.094 0 17.8582 0H6.61706C5.38122 0 4.37588 1.00534 4.37588 2.24106V7.28443H1.51862C0.681347 7.28443 0 7.96553 0 8.80304V12.4205C0 13.2581 0.681347 13.9392 1.51862 13.9392H2.71925L4.66491 15.8849C4.74011 15.9601 4.84058 16 4.94265 16C4.99319 16 5.04435 15.9902 5.0928 15.9701C5.23953 15.9093 5.33521 15.7663 5.33521 15.6074V13.9392H8.36656C9.20395 13.9392 9.88517 13.2581 9.88517 12.4205V10.4207H11.8451V13.4109C11.8451 13.5698 11.9407 13.7128 12.0875 13.7735C12.1359 13.7937 12.187 13.8035 12.2376 13.8035C12.3398 13.8035 12.4402 13.7636 12.5152 13.6884L15.7831 10.4207H17.8582C19.094 10.4207 20.0994 9.41532 20.0994 8.17948V3.40469C20.0994 3.18804 19.9235 3.01213 19.7068 3.01213ZM9.10017 12.4205C9.10017 12.8251 8.77115 13.154 8.36656 13.154H4.94265C4.72576 13.154 4.55008 13.3299 4.55008 13.5466V14.6598L3.15942 13.2691C3.08581 13.1955 2.98595 13.154 2.8818 13.154H1.51862C1.11415 13.154 0.785132 12.8251 0.785132 12.4205V8.80304C0.785132 8.39858 1.11415 8.06956 1.51862 8.06956H4.37588V8.17948C4.37588 9.41532 5.38122 10.4207 6.61706 10.4207H9.10017V12.4205Z" fill="#F2994A"/>
<path d="M15.3429 9.75035L14.6371 9.04335L14.6365 9.04395L15.3429 9.75035ZM12.6302 12.4632H11.6312V14.8752L13.3366 13.1696L12.6302 12.4632ZM4.37588 7.28443V8.28345H5.37491V7.28443H4.37588ZM2.71925 13.9392L3.42569 13.2328L3.13308 12.9401H2.71925V13.9392ZM4.66491 15.8849L3.95847 16.5913L3.95849 16.5913L4.66491 15.8849ZM5.0928 15.9701L4.71076 15.047L4.70973 15.0474L5.0928 15.9701ZM5.33521 13.9392V12.9401H4.33619V13.9392H5.33521ZM9.88517 10.4207V9.42164H8.88615V10.4207H9.88517ZM11.8451 10.4207H12.8441V9.42164H11.8451V10.4207ZM12.0875 13.7735L12.4705 12.8509L12.4695 12.8505L12.0875 13.7735ZM12.5152 13.6884L11.8088 12.982L11.8082 12.9826L12.5152 13.6884ZM15.7831 10.4207V9.42164H15.3693L15.0767 9.71423L15.7831 10.4207ZM4.55008 14.6598L3.84367 15.3662L5.54911 17.0716V14.6598H4.55008ZM4.37588 8.06956H5.37491V7.07053H4.37588V8.06956ZM9.10017 10.4207H10.0992V9.42164H9.10017V10.4207ZM19.7068 2.0131C18.9378 2.0131 18.3152 2.6367 18.3152 3.40469H20.3133C20.3133 3.73939 20.0421 4.01115 19.7068 4.01115V2.0131ZM18.3152 3.40469V8.17948H20.3133V3.40469H18.3152ZM18.3152 8.17948C18.3152 8.43053 18.1092 8.6365 17.8582 8.6365V10.6346C19.2127 10.6346 20.3133 9.53402 20.3133 8.17948H18.3152ZM17.8582 8.6365H15.6206V10.6346H17.8582V8.6365ZM15.6206 8.6365C15.252 8.6365 14.8983 8.78257 14.6371 9.04335L16.0488 10.4574C15.935 10.5709 15.7808 10.6346 15.6206 10.6346V8.6365ZM14.6365 9.04395L11.9238 11.7568L13.3366 13.1696L16.0494 10.4568L14.6365 9.04395ZM13.6292 12.4632V10.0281H11.6312V12.4632H13.6292ZM13.6292 10.0281C13.6292 9.25925 13.0059 8.6365 12.2376 8.6365V10.6346C11.9029 10.6346 11.6312 10.3631 11.6312 10.0281H13.6292ZM12.2376 8.6365H6.61706V10.6346H12.2376V8.6365ZM6.61706 8.6365C6.36596 8.6365 6.16004 8.4306 6.16004 8.17948H4.16199C4.16199 9.53419 5.26258 10.6346 6.61706 10.6346V8.6365ZM6.16004 8.17948V2.24106H4.16199V8.17948H6.16004ZM6.16004 2.24106C6.16004 1.99012 6.3659 1.78415 6.61706 1.78415V-0.213892C5.26263 -0.213892 4.16199 0.886408 4.16199 2.24106H6.16004ZM6.61706 1.78415H17.8582V-0.213892H6.61706V1.78415ZM17.8582 1.78415C18.1093 1.78415 18.3152 1.99012 18.3152 2.24106H20.3133C20.3133 0.886408 19.2126 -0.213892 17.8582 -0.213892V1.78415ZM18.3152 2.24106V3.63994H20.3133V2.24106H18.3152ZM18.3152 3.63994C18.3152 4.40858 18.9382 5.03153 19.7068 5.03153V3.03349C20.0417 3.03349 20.3133 3.30509 20.3133 3.63994H18.3152ZM19.7068 5.03153C20.4748 5.03153 21.0984 4.40899 21.0984 3.63994H19.1003C19.1003 3.30468 19.3721 3.03349 19.7068 3.03349V5.03153ZM21.0984 3.63994V2.24106H19.1003V3.63994H21.0984ZM21.0984 2.24106C21.0984 0.453555 19.6457 -0.999023 17.8582 -0.999023V0.999023C18.5423 0.999023 19.1003 1.55712 19.1003 2.24106H21.0984ZM17.8582 -0.999023H6.61706V0.999023H17.8582V-0.999023ZM6.61706 -0.999023C4.82951 -0.999023 3.37686 0.453555 3.37686 2.24106H5.37491C5.37491 1.55712 5.93293 0.999023 6.61706 0.999023V-0.999023ZM3.37686 2.24106V7.28443H5.37491V2.24106H3.37686ZM4.37588 6.2854H1.51862V8.28345H4.37588V6.2854ZM1.51862 6.2854C0.129707 6.2854 -0.999023 7.41368 -0.999023 8.80304H0.999023C0.999023 8.51738 1.23299 8.28345 1.51862 8.28345V6.2854ZM-0.999023 8.80304V12.4205H0.999023V8.80304H-0.999023ZM-0.999023 12.4205C-0.999023 13.8099 0.129707 14.9382 1.51862 14.9382V12.9401C1.23299 12.9401 0.999023 12.7062 0.999023 12.4205H-0.999023ZM1.51862 14.9382H2.71925V12.9401H1.51862V14.9382ZM2.01282 14.6455L3.95847 16.5913L5.37135 15.1785L3.42569 13.2328L2.01282 14.6455ZM3.95849 16.5913C4.22499 16.8578 4.58125 16.999 4.94265 16.999V15.001C5.09991 15.001 5.25523 15.0624 5.37132 15.1785L3.95849 16.5913ZM4.94265 16.999C5.12216 16.999 5.30371 16.9642 5.47588 16.8927L4.70973 15.0474C4.78498 15.0162 4.86422 15.001 4.94265 15.001V16.999ZM5.47485 16.8932C5.9948 16.678 6.33424 16.1707 6.33424 15.6074H4.33619C4.33619 15.3619 4.48426 15.1407 4.71076 15.047L5.47485 16.8932ZM6.33424 15.6074V13.9392H4.33619V15.6074H6.33424ZM5.33521 14.9382H8.36656V12.9401H5.33521V14.9382ZM8.36656 14.9382C9.75564 14.9382 10.8842 13.8098 10.8842 12.4205H8.88615C8.88615 12.7063 8.65226 12.9401 8.36656 12.9401V14.9382ZM10.8842 12.4205V10.4207H8.88615V12.4205H10.8842ZM9.88517 11.4197H11.8451V9.42164H9.88517V11.4197ZM10.846 10.4207V13.4109H12.8441V10.4207H10.846ZM10.846 13.4109C10.846 13.9742 11.1855 14.4814 11.7054 14.6966L12.4695 12.8505C12.696 12.9442 12.8441 13.1654 12.8441 13.4109H10.846ZM11.7044 14.6962C11.8764 14.7676 12.0578 14.8025 12.2376 14.8025V12.8044C12.3161 12.8044 12.3954 12.8197 12.4705 12.8509L11.7044 14.6962ZM12.2376 14.8025C12.5992 14.8025 12.9556 14.6613 13.2222 14.3942L11.8082 12.9826C11.9247 12.8659 12.0805 12.8044 12.2376 12.8044V14.8025ZM13.2216 14.3948L16.4895 11.1271L15.0767 9.71423L11.8088 12.982L13.2216 14.3948ZM15.7831 11.4197H17.8582V9.42164H15.7831V11.4197ZM17.8582 11.4197C19.6458 11.4197 21.0984 9.96707 21.0984 8.17948H19.1003C19.1003 8.86358 18.5423 9.42164 17.8582 9.42164V11.4197ZM21.0984 8.17948V3.40469H19.1003V8.17948H21.0984ZM21.0984 3.40469C21.0984 2.6363 20.4752 2.0131 19.7068 2.0131V4.01115C19.3717 4.01115 19.1003 3.73979 19.1003 3.40469H21.0984ZM8.10114 12.4205C8.10114 12.2732 8.21962 12.155 8.36656 12.155V14.153C9.32267 14.153 10.0992 13.3771 10.0992 12.4205H8.10114ZM8.36656 12.155H4.94265V14.153H8.36656V12.155ZM4.94265 12.155C4.1736 12.155 3.55106 12.7786 3.55106 13.5466H5.54911C5.54911 13.8813 5.27791 14.153 4.94265 14.153V12.155ZM3.55106 13.5466V14.6598H5.54911V13.5466H3.55106ZM5.2565 13.9533L3.86583 12.5627L2.453 13.9755L3.84367 15.3662L5.2565 13.9533ZM3.86583 12.5627C3.60529 12.3021 3.2515 12.155 2.8818 12.155V14.153C2.72041 14.153 2.56633 14.0888 2.453 13.9755L3.86583 12.5627ZM2.8818 12.155H1.51862V14.153H2.8818V12.155ZM1.51862 12.155C1.66579 12.155 1.78415 12.2733 1.78415 12.4205H-0.213892C-0.213892 13.377 0.562515 14.153 1.51862 14.153V12.155ZM1.78415 12.4205V8.80304H-0.213892V12.4205H1.78415ZM1.78415 8.80304C1.78415 8.95032 1.6659 9.06858 1.51862 9.06858V7.07053C0.562406 7.07053 -0.213892 7.84683 -0.213892 8.80304H1.78415ZM1.51862 9.06858H4.37588V7.07053H1.51862V9.06858ZM3.37686 8.06956V8.17948H5.37491V8.06956H3.37686ZM3.37686 8.17948C3.37686 9.96707 4.82947 11.4197 6.61706 11.4197V9.42164C5.93296 9.42164 5.37491 8.86358 5.37491 8.17948H3.37686ZM6.61706 11.4197H9.10017V9.42164H6.61706V11.4197ZM8.10114 10.4207V12.4205H10.0992V10.4207H8.10114Z" fill="#F2994A" mask="url(#path-1-inside-1)"/>
<mask id="path-3-inside-2" fill="white">
<path d="M16.0651 2.57262H8.41014C8.19337 2.57262 8.01758 2.74841 8.01758 2.96518C8.01758 3.18207 8.19337 3.35775 8.41014 3.35775H16.0651C16.2819 3.35775 16.4577 3.18207 16.4577 2.96518C16.4577 2.74841 16.2819 2.57262 16.0651 2.57262Z"/>
</mask>
<path d="M16.0651 2.57262H8.41014C8.19337 2.57262 8.01758 2.74841 8.01758 2.96518C8.01758 3.18207 8.19337 3.35775 8.41014 3.35775H16.0651C16.2819 3.35775 16.4577 3.18207 16.4577 2.96518C16.4577 2.74841 16.2819 2.57262 16.0651 2.57262Z" fill="#F2994A"/>
<path d="M16.0651 1.57359H8.41014V3.57164H16.0651V1.57359ZM8.41014 1.57359C7.64163 1.57359 7.01855 2.19667 7.01855 2.96518H9.0166C9.0166 3.30016 8.74512 3.57164 8.41014 3.57164V1.57359ZM7.01855 2.96518C7.01855 3.73402 7.64183 4.35677 8.41014 4.35677V2.35872C8.74492 2.35872 9.0166 2.63013 9.0166 2.96518H7.01855ZM8.41014 4.35677H16.0651V2.35872H8.41014V4.35677ZM16.0651 4.35677C16.8335 4.35677 17.4567 3.73402 17.4567 2.96518H15.4587C15.4587 2.63013 15.7304 2.35872 16.0651 2.35872V4.35677ZM17.4567 2.96518C17.4567 2.19667 16.8337 1.57359 16.0651 1.57359V3.57164C15.7302 3.57164 15.4587 3.30016 15.4587 2.96518H17.4567Z" fill="#F2994A" mask="url(#path-3-inside-2)"/>
<mask id="path-5-inside-3" fill="white">
<path d="M16.4577 5.0853C16.4577 4.86853 16.2819 4.69273 16.0651 4.69273H8.41014C8.19337 4.69273 8.01758 4.86853 8.01758 5.0853C8.01758 5.30219 8.19337 5.47786 8.41014 5.47786H16.0651C16.2819 5.47786 16.4577 5.30219 16.4577 5.0853Z"/>
</mask>
<path d="M16.4577 5.0853C16.4577 4.86853 16.2819 4.69273 16.0651 4.69273H8.41014C8.19337 4.69273 8.01758 4.86853 8.01758 5.0853C8.01758 5.30219 8.19337 5.47786 8.41014 5.47786H16.0651C16.2819 5.47786 16.4577 5.30219 16.4577 5.0853Z" fill="#F2994A"/>
<path d="M17.4567 5.0853C17.4567 4.31678 16.8337 3.69371 16.0651 3.69371V5.69176C15.7302 5.69176 15.4587 5.42027 15.4587 5.0853H17.4567ZM16.0651 3.69371H8.41014V5.69176H16.0651V3.69371ZM8.41014 3.69371C7.64163 3.69371 7.01855 4.31678 7.01855 5.0853H9.0166C9.0166 5.42027 8.74512 5.69176 8.41014 5.69176V3.69371ZM7.01855 5.0853C7.01855 5.85414 7.64183 6.47689 8.41014 6.47689V4.47884C8.74492 4.47884 9.0166 4.75024 9.0166 5.0853H7.01855ZM8.41014 6.47689H16.0651V4.47884H8.41014V6.47689ZM16.0651 6.47689C16.8335 6.47689 17.4567 5.85414 17.4567 5.0853H15.4587C15.4587 4.75024 15.7304 4.47884 16.0651 4.47884V6.47689Z" fill="#F2994A" mask="url(#path-5-inside-3)"/>
<mask id="path-7-inside-4" fill="white">
<path d="M8.41015 6.81259C8.19337 6.81259 8.01758 6.98839 8.01758 7.20516C8.01758 7.42205 8.19337 7.59772 8.41015 7.59772H12.8265C13.0433 7.59772 13.2191 7.42205 13.2191 7.20516C13.2191 6.98839 13.0433 6.81259 12.8265 6.81259H8.41015Z"/>
</mask>
<path d="M8.41015 6.81259C8.19337 6.81259 8.01758 6.98839 8.01758 7.20516C8.01758 7.42205 8.19337 7.59772 8.41015 7.59772H12.8265C13.0433 7.59772 13.2191 7.42205 13.2191 7.20516C13.2191 6.98839 13.0433 6.81259 12.8265 6.81259H8.41015Z" fill="#F2994A"/>
<path d="M8.41015 5.81357C7.64163 5.81357 7.01855 6.43664 7.01855 7.20516H9.0166C9.0166 7.54014 8.74511 7.81161 8.41015 7.81161V5.81357ZM7.01855 7.20516C7.01855 7.974 7.64184 8.59674 8.41015 8.59674V6.5987C8.74491 6.5987 9.0166 6.87009 9.0166 7.20516H7.01855ZM8.41015 8.59674H12.8265V6.5987H8.41015V8.59674ZM12.8265 8.59674C13.5948 8.59674 14.2181 7.974 14.2181 7.20516H12.2201C12.2201 6.87009 12.4918 6.5987 12.8265 6.5987V8.59674ZM14.2181 7.20516C14.2181 6.43664 13.595 5.81357 12.8265 5.81357V7.81161C12.4916 7.81161 12.2201 7.54014 12.2201 7.20516H14.2181ZM12.8265 5.81357H8.41015V7.81161H12.8265V5.81357Z" fill="#F2994A" mask="url(#path-7-inside-4)"/>
</svg>
