<svg width="210" height="86" viewBox="0 0 210 86" fill="none" xmlns="http://www.w3.org/2000/svg">
<g opacity="0.32">
<path opacity="0.4" d="M57.6209 15.8612C62.0008 15.8612 65.5515 12.3106 65.5515 7.93062C65.5515 3.55066 62.0008 0 57.6209 0C53.2409 0 49.6902 3.55066 49.6902 7.93062C49.6902 12.3106 53.2409 15.8612 57.6209 15.8612Z" fill="black"/>
<path opacity="0.4" d="M90.6651 15.8612C95.0451 15.8612 98.5957 12.3106 98.5957 7.93062C98.5957 3.55066 95.0451 0 90.6651 0C86.2851 0 82.7345 3.55066 82.7345 7.93062C82.7345 12.3106 86.2851 15.8612 90.6651 15.8612Z" fill="black"/>
<path opacity="0.4" d="M123.709 15.8612C128.089 15.8612 131.64 12.3106 131.64 7.93062C131.64 3.55066 128.089 0 123.709 0C119.329 0 115.779 3.55066 115.779 7.93062C115.779 12.3106 119.329 15.8612 123.709 15.8612Z" fill="black"/>
<path opacity="0.4" d="M156.753 15.8612C161.133 15.8612 164.684 12.3106 164.684 7.93062C164.684 3.55066 161.133 0 156.753 0C152.374 0 148.823 3.55066 148.823 7.93062C148.823 12.3106 152.374 15.8612 156.753 15.8612Z" fill="black"/>
<path opacity="0.4" d="M189.798 15.8612C194.178 15.8612 197.728 12.3106 197.728 7.93062C197.728 3.55066 194.178 0 189.798 0C185.418 0 181.867 3.55066 181.867 7.93062C181.867 12.3106 185.418 15.8612 189.798 15.8612Z" fill="black"/>
<path opacity="0.4" d="M57.6208 40.9749C62.0007 40.9749 65.5514 37.4242 65.5514 33.0443C65.5514 28.6643 62.0007 25.1136 57.6208 25.1136C53.2408 25.1136 49.6901 28.6643 49.6901 33.0443C49.6901 37.4242 53.2408 40.9749 57.6208 40.9749Z" fill="black"/>
<path opacity="0.4" d="M90.6651 40.9749C95.0451 40.9749 98.5957 37.4242 98.5957 33.0443C98.5957 28.6643 95.0451 25.1136 90.6651 25.1136C86.2851 25.1136 82.7345 28.6643 82.7345 33.0443C82.7345 37.4242 86.2851 40.9749 90.6651 40.9749Z" fill="black"/>
<path opacity="0.4" d="M123.709 40.9749C128.089 40.9749 131.64 37.4242 131.64 33.0443C131.64 28.6643 128.089 25.1136 123.709 25.1136C119.329 25.1136 115.779 28.6643 115.779 33.0443C115.779 37.4242 119.329 40.9749 123.709 40.9749Z" fill="black"/>
<path opacity="0.4" d="M156.753 40.9749C161.133 40.9749 164.684 37.4242 164.684 33.0443C164.684 28.6643 161.133 25.1136 156.753 25.1136C152.374 25.1136 148.823 28.6643 148.823 33.0443C148.823 37.4242 152.374 40.9749 156.753 40.9749Z" fill="black"/>
<path opacity="0.4" d="M189.798 40.9749C194.178 40.9749 197.728 37.4242 197.728 33.0443C197.728 28.6643 194.178 25.1136 189.798 25.1136C185.418 25.1136 181.867 28.6643 181.867 33.0443C181.867 37.4242 185.418 40.9749 189.798 40.9749Z" fill="black"/>
<path opacity="0.4" d="M57.6208 66.0885C62.0007 66.0885 65.5514 62.5379 65.5514 58.1579C65.5514 53.7779 62.0007 50.2273 57.6208 50.2273C53.2408 50.2273 49.6901 53.7779 49.6901 58.1579C49.6901 62.5379 53.2408 66.0885 57.6208 66.0885Z" fill="black"/>
<path opacity="0.4" d="M90.6651 66.0885C95.0451 66.0885 98.5957 62.5379 98.5957 58.1579C98.5957 53.7779 95.0451 50.2273 90.6651 50.2273C86.2851 50.2273 82.7345 53.7779 82.7345 58.1579C82.7345 62.5379 86.2851 66.0885 90.6651 66.0885Z" fill="black"/>
<path opacity="0.4" d="M123.709 66.0885C128.089 66.0885 131.64 62.5379 131.64 58.1579C131.64 53.7779 128.089 50.2273 123.709 50.2273C119.329 50.2273 115.779 53.7779 115.779 58.1579C115.779 62.5379 119.329 66.0885 123.709 66.0885Z" fill="black"/>
<path opacity="0.4" d="M156.753 66.0885C161.133 66.0885 164.684 62.5379 164.684 58.1579C164.684 53.7779 161.133 50.2273 156.753 50.2273C152.374 50.2273 148.823 53.7779 148.823 58.1579C148.823 62.5379 152.374 66.0885 156.753 66.0885Z" fill="black"/>
<path opacity="0.4" d="M189.798 66.0885C194.178 66.0885 197.728 62.5379 197.728 58.1579C197.728 53.7779 194.178 50.2273 189.798 50.2273C185.418 50.2273 181.867 53.7779 181.867 58.1579C181.867 62.5379 185.418 66.0885 189.798 66.0885Z" fill="black"/>
<path opacity="0.4" d="M57.6208 91.2022C62.0007 91.2022 65.5514 87.6515 65.5514 83.2715C65.5514 78.8916 62.0007 75.3409 57.6208 75.3409C53.2408 75.3409 49.6901 78.8916 49.6901 83.2715C49.6901 87.6515 53.2408 91.2022 57.6208 91.2022Z" fill="black"/>
<path opacity="0.4" d="M90.6651 91.2022C95.0451 91.2022 98.5957 87.6515 98.5957 83.2715C98.5957 78.8916 95.0451 75.3409 90.6651 75.3409C86.2851 75.3409 82.7345 78.8916 82.7345 83.2715C82.7345 87.6515 86.2851 91.2022 90.6651 91.2022Z" fill="black"/>
<path opacity="0.4" d="M123.709 91.2022C128.089 91.2022 131.64 87.6515 131.64 83.2715C131.64 78.8916 128.089 75.3409 123.709 75.3409C119.329 75.3409 115.779 78.8916 115.779 83.2715C115.779 87.6515 119.329 91.2022 123.709 91.2022Z" fill="black"/>
<path opacity="0.4" d="M156.753 91.2022C161.133 91.2022 164.684 87.6515 164.684 83.2715C164.684 78.8916 161.133 75.3409 156.753 75.3409C152.374 75.3409 148.823 78.8916 148.823 83.2715C148.823 87.6515 152.374 91.2022 156.753 91.2022Z" fill="black"/>
<path opacity="0.4" d="M189.798 91.2022C194.178 91.2022 197.728 87.6515 197.728 83.2715C197.728 78.8916 194.178 75.3409 189.798 75.3409C185.418 75.3409 181.867 78.8916 181.867 83.2715C181.867 87.6515 185.418 91.2022 189.798 91.2022Z" fill="black"/>
</g>
<g opacity="0.32">
<path opacity="0.4" d="M7.93069 29.5455C12.3106 29.5455 15.8613 25.9948 15.8613 21.6148C15.8613 17.2349 12.3106 13.6842 7.93069 13.6842C3.55073 13.6842 0 17.2349 0 21.6148C0 25.9948 3.55073 29.5455 7.93069 29.5455Z" fill="white"/>
<path opacity="0.4" d="M40.9749 29.5455C45.3549 29.5455 48.9055 25.9948 48.9055 21.6148C48.9055 17.2349 45.3549 13.6842 40.9749 13.6842C36.595 13.6842 33.0443 17.2349 33.0443 21.6148C33.0443 25.9948 36.595 29.5455 40.9749 29.5455Z" fill="white"/>
<path opacity="0.4" d="M74.0191 29.5455C78.3991 29.5455 81.9497 25.9948 81.9497 21.6148C81.9497 17.2349 78.3991 13.6842 74.0191 13.6842C69.6392 13.6842 66.0885 17.2349 66.0885 21.6148C66.0885 25.9948 69.6392 29.5455 74.0191 29.5455Z" fill="white"/>
<path opacity="0.4" d="M107.063 29.5455C111.443 29.5455 114.994 25.9948 114.994 21.6148C114.994 17.2349 111.443 13.6842 107.063 13.6842C102.683 13.6842 99.1327 17.2349 99.1327 21.6148C99.1327 25.9948 102.683 29.5455 107.063 29.5455Z" fill="white"/>
<path opacity="0.4" d="M140.108 29.5455C144.488 29.5455 148.038 25.9948 148.038 21.6148C148.038 17.2349 144.488 13.6842 140.108 13.6842C135.728 13.6842 132.177 17.2349 132.177 21.6148C132.177 25.9948 135.728 29.5455 140.108 29.5455Z" fill="white"/>
<path opacity="0.4" d="M173.152 29.5455C177.532 29.5455 181.083 25.9948 181.083 21.6148C181.083 17.2349 177.532 13.6842 173.152 13.6842C168.772 13.6842 165.221 17.2349 165.221 21.6148C165.221 25.9948 168.772 29.5455 173.152 29.5455Z" fill="white"/>
<path opacity="0.4" d="M206.196 29.5455C210.576 29.5455 214.127 25.9948 214.127 21.6148C214.127 17.2349 210.576 13.6842 206.196 13.6842C201.816 13.6842 198.266 17.2349 198.266 21.6148C198.266 25.9948 201.816 29.5455 206.196 29.5455Z" fill="white"/>
<path opacity="0.4" d="M7.93069 54.6591C12.3106 54.6591 15.8613 51.1084 15.8613 46.7285C15.8613 42.3485 12.3106 38.7979 7.93069 38.7979C3.55073 38.7979 0 42.3485 0 46.7285C0 51.1084 3.55073 54.6591 7.93069 54.6591Z" fill="white"/>
<path opacity="0.4" d="M40.9749 54.6591C45.3549 54.6591 48.9055 51.1084 48.9055 46.7285C48.9055 42.3485 45.3549 38.7979 40.9749 38.7979C36.595 38.7979 33.0443 42.3485 33.0443 46.7285C33.0443 51.1084 36.595 54.6591 40.9749 54.6591Z" fill="white"/>
<path opacity="0.4" d="M74.0191 54.6591C78.3991 54.6591 81.9497 51.1084 81.9497 46.7285C81.9497 42.3485 78.3991 38.7979 74.0191 38.7979C69.6392 38.7979 66.0885 42.3485 66.0885 46.7285C66.0885 51.1084 69.6392 54.6591 74.0191 54.6591Z" fill="white"/>
<path opacity="0.4" d="M107.063 54.6591C111.443 54.6591 114.994 51.1084 114.994 46.7285C114.994 42.3485 111.443 38.7979 107.063 38.7979C102.683 38.7979 99.1327 42.3485 99.1327 46.7285C99.1327 51.1084 102.683 54.6591 107.063 54.6591Z" fill="white"/>
<path opacity="0.4" d="M140.108 54.6591C144.488 54.6591 148.038 51.1084 148.038 46.7285C148.038 42.3485 144.488 38.7979 140.108 38.7979C135.728 38.7979 132.177 42.3485 132.177 46.7285C132.177 51.1084 135.728 54.6591 140.108 54.6591Z" fill="white"/>
<path opacity="0.4" d="M173.152 54.6591C177.532 54.6591 181.083 51.1084 181.083 46.7285C181.083 42.3485 177.532 38.7979 173.152 38.7979C168.772 38.7979 165.221 42.3485 165.221 46.7285C165.221 51.1084 168.772 54.6591 173.152 54.6591Z" fill="white"/>
<path opacity="0.4" d="M206.196 54.6591C210.576 54.6591 214.127 51.1084 214.127 46.7285C214.127 42.3485 210.576 38.7979 206.196 38.7979C201.816 38.7979 198.266 42.3485 198.266 46.7285C198.266 51.1084 201.816 54.6591 206.196 54.6591Z" fill="white"/>
<path opacity="0.4" d="M7.93069 79.7727C12.3106 79.7727 15.8613 76.2221 15.8613 71.8421C15.8613 67.4621 12.3106 63.9115 7.93069 63.9115C3.55073 63.9115 0 67.4621 0 71.8421C0 76.2221 3.55073 79.7727 7.93069 79.7727Z" fill="white"/>
<path opacity="0.4" d="M40.9749 79.7727C45.3549 79.7727 48.9055 76.2221 48.9055 71.8421C48.9055 67.4621 45.3549 63.9115 40.9749 63.9115C36.595 63.9115 33.0443 67.4621 33.0443 71.8421C33.0443 76.2221 36.595 79.7727 40.9749 79.7727Z" fill="white"/>
<path opacity="0.4" d="M74.0191 79.7727C78.3991 79.7727 81.9497 76.2221 81.9497 71.8421C81.9497 67.4621 78.3991 63.9115 74.0191 63.9115C69.6392 63.9115 66.0885 67.4621 66.0885 71.8421C66.0885 76.2221 69.6392 79.7727 74.0191 79.7727Z" fill="white"/>
<path opacity="0.4" d="M107.063 79.7727C111.443 79.7727 114.994 76.2221 114.994 71.8421C114.994 67.4621 111.443 63.9115 107.063 63.9115C102.683 63.9115 99.1327 67.4621 99.1327 71.8421C99.1327 76.2221 102.683 79.7727 107.063 79.7727Z" fill="white"/>
<path opacity="0.4" d="M140.108 79.7727C144.488 79.7727 148.038 76.2221 148.038 71.8421C148.038 67.4621 144.488 63.9115 140.108 63.9115C135.728 63.9115 132.177 67.4621 132.177 71.8421C132.177 76.2221 135.728 79.7727 140.108 79.7727Z" fill="white"/>
<path opacity="0.4" d="M173.152 79.7727C177.532 79.7727 181.083 76.2221 181.083 71.8421C181.083 67.4621 177.532 63.9115 173.152 63.9115C168.772 63.9115 165.221 67.4621 165.221 71.8421C165.221 76.2221 168.772 79.7727 173.152 79.7727Z" fill="white"/>
<path opacity="0.4" d="M206.196 79.7727C210.576 79.7727 214.127 76.2221 214.127 71.8421C214.127 67.4621 210.576 63.9115 206.196 63.9115C201.816 63.9115 198.266 67.4621 198.266 71.8421C198.266 76.2221 201.816 79.7727 206.196 79.7727Z" fill="white"/>
</g>
</svg>
