<svg width="425" height="94" viewBox="0 0 425 94" fill="none" xmlns="http://www.w3.org/2000/svg">
<g opacity="0.32">
<path opacity="0.4" d="M92.6365 25.5C99.6782 25.5 105.387 19.7916 105.387 12.75C105.387 5.70837 99.6782 0 92.6365 0C85.5949 0 79.8864 5.70837 79.8864 12.75C79.8864 19.7916 85.5949 25.5 92.6365 25.5Z" fill="black"/>
<path opacity="0.4" d="M145.762 25.5C152.803 25.5 158.512 19.7916 158.512 12.75C158.512 5.70837 152.803 0 145.762 0C138.72 0 133.012 5.70837 133.012 12.75C133.012 19.7916 138.72 25.5 145.762 25.5Z" fill="black"/>
<path opacity="0.4" d="M198.886 25.5C205.928 25.5 211.636 19.7916 211.636 12.75C211.636 5.70837 205.928 0 198.886 0C191.845 0 186.136 5.70837 186.136 12.75C186.136 19.7916 191.845 25.5 198.886 25.5Z" fill="black"/>
<path opacity="0.4" d="M252.011 25.5C259.053 25.5 264.761 19.7916 264.761 12.75C264.761 5.70837 259.053 0 252.011 0C244.97 0 239.261 5.70837 239.261 12.75C239.261 19.7916 244.97 25.5 252.011 25.5Z" fill="black"/>
<path opacity="0.4" d="M305.136 25.5C312.178 25.5 317.886 19.7916 317.886 12.75C317.886 5.70837 312.178 0 305.136 0C298.095 0 292.386 5.70837 292.386 12.75C292.386 19.7916 298.095 25.5 305.136 25.5Z" fill="black"/>
<path opacity="0.4" d="M358.262 25.5C365.303 25.5 371.012 19.7916 371.012 12.75C371.012 5.70837 365.303 0 358.262 0C351.22 0 345.512 5.70837 345.512 12.75C345.512 19.7916 351.22 25.5 358.262 25.5Z" fill="black"/>
<path opacity="0.4" d="M411.387 25.5C418.428 25.5 424.137 19.7916 424.137 12.75C424.137 5.70837 418.428 0 411.387 0C404.345 0 398.637 5.70837 398.637 12.75C398.637 19.7916 404.345 25.5 411.387 25.5Z" fill="black"/>
<path opacity="0.4" d="M92.6365 65.875C99.6782 65.875 105.387 60.1666 105.387 53.125C105.387 46.0834 99.6782 40.375 92.6365 40.375C85.5949 40.375 79.8864 46.0834 79.8864 53.125C79.8864 60.1666 85.5949 65.875 92.6365 65.875Z" fill="black"/>
<path opacity="0.4" d="M145.762 65.875C152.803 65.875 158.512 60.1666 158.512 53.125C158.512 46.0834 152.803 40.375 145.762 40.375C138.72 40.375 133.012 46.0834 133.012 53.125C133.012 60.1666 138.72 65.875 145.762 65.875Z" fill="black"/>
<path opacity="0.4" d="M198.886 65.875C205.928 65.875 211.636 60.1666 211.636 53.125C211.636 46.0834 205.928 40.375 198.886 40.375C191.845 40.375 186.136 46.0834 186.136 53.125C186.136 60.1666 191.845 65.875 198.886 65.875Z" fill="black"/>
<path opacity="0.4" d="M252.011 65.875C259.053 65.875 264.761 60.1666 264.761 53.125C264.761 46.0834 259.053 40.375 252.011 40.375C244.97 40.375 239.261 46.0834 239.261 53.125C239.261 60.1666 244.97 65.875 252.011 65.875Z" fill="black"/>
<path opacity="0.4" d="M305.136 65.875C312.178 65.875 317.886 60.1666 317.886 53.125C317.886 46.0834 312.178 40.375 305.136 40.375C298.095 40.375 292.386 46.0834 292.386 53.125C292.386 60.1666 298.095 65.875 305.136 65.875Z" fill="black"/>
<path opacity="0.4" d="M358.262 65.875C365.303 65.875 371.012 60.1666 371.012 53.125C371.012 46.0834 365.303 40.375 358.262 40.375C351.22 40.375 345.512 46.0834 345.512 53.125C345.512 60.1666 351.22 65.875 358.262 65.875Z" fill="black"/>
<path opacity="0.4" d="M411.387 65.875C418.428 65.875 424.137 60.1666 424.137 53.125C424.137 46.0834 418.428 40.375 411.387 40.375C404.345 40.375 398.637 46.0834 398.637 53.125C398.637 60.1666 404.345 65.875 411.387 65.875Z" fill="black"/>
<path opacity="0.4" d="M92.6365 106.25C99.6782 106.25 105.387 100.542 105.387 93.5C105.387 86.4584 99.6782 80.75 92.6365 80.75C85.5949 80.75 79.8864 86.4584 79.8864 93.5C79.8864 100.542 85.5949 106.25 92.6365 106.25Z" fill="black"/>
<path opacity="0.4" d="M145.762 106.25C152.803 106.25 158.512 100.542 158.512 93.5C158.512 86.4584 152.803 80.75 145.762 80.75C138.72 80.75 133.012 86.4584 133.012 93.5C133.012 100.542 138.72 106.25 145.762 106.25Z" fill="black"/>
<path opacity="0.4" d="M198.886 106.25C205.928 106.25 211.636 100.542 211.636 93.5C211.636 86.4584 205.928 80.75 198.886 80.75C191.845 80.75 186.136 86.4584 186.136 93.5C186.136 100.542 191.845 106.25 198.886 106.25Z" fill="black"/>
<path opacity="0.4" d="M252.011 106.25C259.053 106.25 264.761 100.542 264.761 93.5C264.761 86.4584 259.053 80.75 252.011 80.75C244.97 80.75 239.261 86.4584 239.261 93.5C239.261 100.542 244.97 106.25 252.011 106.25Z" fill="black"/>
<path opacity="0.4" d="M305.136 106.25C312.178 106.25 317.886 100.542 317.886 93.5C317.886 86.4584 312.178 80.75 305.136 80.75C298.095 80.75 292.386 86.4584 292.386 93.5C292.386 100.542 298.095 106.25 305.136 106.25Z" fill="black"/>
<path opacity="0.4" d="M358.262 106.25C365.303 106.25 371.012 100.542 371.012 93.5C371.012 86.4584 365.303 80.75 358.262 80.75C351.22 80.75 345.512 86.4584 345.512 93.5C345.512 100.542 351.22 106.25 358.262 106.25Z" fill="black"/>
<path opacity="0.4" d="M411.387 106.25C418.428 106.25 424.137 100.542 424.137 93.5C424.137 86.4584 418.428 80.75 411.387 80.75C404.345 80.75 398.637 86.4584 398.637 93.5C398.637 100.542 404.345 106.25 411.387 106.25Z" fill="black"/>
</g>
<g opacity="0.32">
<path opacity="0.4" d="M12.7501 47.5C19.7917 47.5 25.5001 41.7916 25.5001 34.75C25.5001 27.7084 19.7917 22 12.7501 22C5.70848 22 0 27.7084 0 34.75C0 41.7916 5.70848 47.5 12.7501 47.5Z" fill="white"/>
<path opacity="0.4" d="M65.8751 47.5C72.9167 47.5 78.6251 41.7916 78.6251 34.75C78.6251 27.7084 72.9167 22 65.8751 22C58.8335 22 53.1251 27.7084 53.1251 34.75C53.1251 41.7916 58.8335 47.5 65.8751 47.5Z" fill="white"/>
<path opacity="0.4" d="M119 47.5C126.042 47.5 131.75 41.7916 131.75 34.75C131.75 27.7084 126.042 22 119 22C111.958 22 106.25 27.7084 106.25 34.75C106.25 41.7916 111.958 47.5 119 47.5Z" fill="white"/>
<path opacity="0.4" d="M172.125 47.5C179.167 47.5 184.875 41.7916 184.875 34.75C184.875 27.7084 179.167 22 172.125 22C165.083 22 159.375 27.7084 159.375 34.75C159.375 41.7916 165.083 47.5 172.125 47.5Z" fill="white"/>
<path opacity="0.4" d="M225.25 47.5C232.292 47.5 238 41.7916 238 34.75C238 27.7084 232.292 22 225.25 22C218.208 22 212.5 27.7084 212.5 34.75C212.5 41.7916 218.208 47.5 225.25 47.5Z" fill="white"/>
<path opacity="0.4" d="M278.375 47.5C285.417 47.5 291.125 41.7916 291.125 34.75C291.125 27.7084 285.417 22 278.375 22C271.333 22 265.625 27.7084 265.625 34.75C265.625 41.7916 271.333 47.5 278.375 47.5Z" fill="white"/>
<path opacity="0.4" d="M331.5 47.5C338.542 47.5 344.25 41.7916 344.25 34.75C344.25 27.7084 338.542 22 331.5 22C324.458 22 318.75 27.7084 318.75 34.75C318.75 41.7916 324.458 47.5 331.5 47.5Z" fill="white"/>
<path opacity="0.4" d="M12.7501 87.875C19.7917 87.875 25.5001 82.1666 25.5001 75.125C25.5001 68.0834 19.7917 62.375 12.7501 62.375C5.70848 62.375 0 68.0834 0 75.125C0 82.1666 5.70848 87.875 12.7501 87.875Z" fill="white"/>
<path opacity="0.4" d="M65.8751 87.875C72.9167 87.875 78.6251 82.1666 78.6251 75.125C78.6251 68.0834 72.9167 62.375 65.8751 62.375C58.8335 62.375 53.1251 68.0834 53.1251 75.125C53.1251 82.1666 58.8335 87.875 65.8751 87.875Z" fill="white"/>
<path opacity="0.4" d="M119 87.875C126.042 87.875 131.75 82.1666 131.75 75.125C131.75 68.0834 126.042 62.375 119 62.375C111.958 62.375 106.25 68.0834 106.25 75.125C106.25 82.1666 111.958 87.875 119 87.875Z" fill="white"/>
<path opacity="0.4" d="M172.125 87.875C179.167 87.875 184.875 82.1666 184.875 75.125C184.875 68.0834 179.167 62.375 172.125 62.375C165.083 62.375 159.375 68.0834 159.375 75.125C159.375 82.1666 165.083 87.875 172.125 87.875Z" fill="white"/>
<path opacity="0.4" d="M225.25 87.875C232.292 87.875 238 82.1666 238 75.125C238 68.0834 232.292 62.375 225.25 62.375C218.208 62.375 212.5 68.0834 212.5 75.125C212.5 82.1666 218.208 87.875 225.25 87.875Z" fill="white"/>
<path opacity="0.4" d="M278.375 87.875C285.417 87.875 291.125 82.1666 291.125 75.125C291.125 68.0834 285.417 62.375 278.375 62.375C271.333 62.375 265.625 68.0834 265.625 75.125C265.625 82.1666 271.333 87.875 278.375 87.875Z" fill="white"/>
<path opacity="0.4" d="M331.5 87.875C338.542 87.875 344.25 82.1666 344.25 75.125C344.25 68.0834 338.542 62.375 331.5 62.375C324.458 62.375 318.75 68.0834 318.75 75.125C318.75 82.1666 324.458 87.875 331.5 87.875Z" fill="white"/>
</g>
</svg>
