<svg width="425" height="209" viewBox="0 0 425 209" fill="none" xmlns="http://www.w3.org/2000/svg">
<g opacity="0.32">
<path opacity="0.4" d="M92.6366 25.5C99.6782 25.5 105.387 19.7916 105.387 12.75C105.387 5.70837 99.6782 0 92.6366 0C85.595 0 79.8865 5.70837 79.8865 12.75C79.8865 19.7916 85.595 25.5 92.6366 25.5Z" fill="black"/>
<path opacity="0.4" d="M145.762 25.5C152.803 25.5 158.512 19.7916 158.512 12.75C158.512 5.70837 152.803 0 145.762 0C138.72 0 133.012 5.70837 133.012 12.75C133.012 19.7916 138.72 25.5 145.762 25.5Z" fill="black"/>
<path opacity="0.4" d="M198.886 25.5C205.928 25.5 211.636 19.7916 211.636 12.75C211.636 5.70837 205.928 0 198.886 0C191.845 0 186.136 5.70837 186.136 12.75C186.136 19.7916 191.845 25.5 198.886 25.5Z" fill="black"/>
<path opacity="0.4" d="M252.011 25.5C259.053 25.5 264.761 19.7916 264.761 12.75C264.761 5.70837 259.053 0 252.011 0C244.97 0 239.261 5.70837 239.261 12.75C239.261 19.7916 244.97 25.5 252.011 25.5Z" fill="black"/>
<path opacity="0.4" d="M305.136 25.5C312.178 25.5 317.886 19.7916 317.886 12.75C317.886 5.70837 312.178 0 305.136 0C298.095 0 292.386 5.70837 292.386 12.75C292.386 19.7916 298.095 25.5 305.136 25.5Z" fill="black"/>
<path opacity="0.4" d="M358.262 25.5C365.303 25.5 371.012 19.7916 371.012 12.75C371.012 5.70837 365.303 0 358.262 0C351.22 0 345.512 5.70837 345.512 12.75C345.512 19.7916 351.22 25.5 358.262 25.5Z" fill="black"/>
<path opacity="0.4" d="M411.387 25.5C418.428 25.5 424.137 19.7916 424.137 12.75C424.137 5.70837 418.428 0 411.387 0C404.345 0 398.637 5.70837 398.637 12.75C398.637 19.7916 404.345 25.5 411.387 25.5Z" fill="black"/>
<path opacity="0.4" d="M92.6366 65.875C99.6782 65.875 105.387 60.1666 105.387 53.125C105.387 46.0834 99.6782 40.375 92.6366 40.375C85.595 40.375 79.8865 46.0834 79.8865 53.125C79.8865 60.1666 85.595 65.875 92.6366 65.875Z" fill="black"/>
<path opacity="0.4" d="M145.762 65.875C152.803 65.875 158.512 60.1666 158.512 53.125C158.512 46.0834 152.803 40.375 145.762 40.375C138.72 40.375 133.012 46.0834 133.012 53.125C133.012 60.1666 138.72 65.875 145.762 65.875Z" fill="black"/>
<path opacity="0.4" d="M198.886 65.875C205.928 65.875 211.636 60.1666 211.636 53.125C211.636 46.0834 205.928 40.375 198.886 40.375C191.845 40.375 186.136 46.0834 186.136 53.125C186.136 60.1666 191.845 65.875 198.886 65.875Z" fill="black"/>
<path opacity="0.4" d="M252.011 65.875C259.053 65.875 264.761 60.1666 264.761 53.125C264.761 46.0834 259.053 40.375 252.011 40.375C244.97 40.375 239.261 46.0834 239.261 53.125C239.261 60.1666 244.97 65.875 252.011 65.875Z" fill="black"/>
<path opacity="0.4" d="M305.136 65.875C312.178 65.875 317.886 60.1666 317.886 53.125C317.886 46.0834 312.178 40.375 305.136 40.375C298.095 40.375 292.386 46.0834 292.386 53.125C292.386 60.1666 298.095 65.875 305.136 65.875Z" fill="black"/>
<path opacity="0.4" d="M358.262 65.875C365.303 65.875 371.012 60.1666 371.012 53.125C371.012 46.0834 365.303 40.375 358.262 40.375C351.22 40.375 345.512 46.0834 345.512 53.125C345.512 60.1666 351.22 65.875 358.262 65.875Z" fill="black"/>
<path opacity="0.4" d="M411.387 65.875C418.428 65.875 424.137 60.1666 424.137 53.125C424.137 46.0834 418.428 40.375 411.387 40.375C404.345 40.375 398.637 46.0834 398.637 53.125C398.637 60.1666 404.345 65.875 411.387 65.875Z" fill="black"/>
<path opacity="0.4" d="M92.6366 106.25C99.6782 106.25 105.387 100.542 105.387 93.5C105.387 86.4584 99.6782 80.75 92.6366 80.75C85.595 80.75 79.8865 86.4584 79.8865 93.5C79.8865 100.542 85.595 106.25 92.6366 106.25Z" fill="black"/>
<path opacity="0.4" d="M145.762 106.25C152.803 106.25 158.512 100.542 158.512 93.5C158.512 86.4584 152.803 80.75 145.762 80.75C138.72 80.75 133.012 86.4584 133.012 93.5C133.012 100.542 138.72 106.25 145.762 106.25Z" fill="black"/>
<path opacity="0.4" d="M198.886 106.25C205.928 106.25 211.636 100.542 211.636 93.5C211.636 86.4584 205.928 80.75 198.886 80.75C191.845 80.75 186.136 86.4584 186.136 93.5C186.136 100.542 191.845 106.25 198.886 106.25Z" fill="black"/>
<path opacity="0.4" d="M252.011 106.25C259.053 106.25 264.761 100.542 264.761 93.5C264.761 86.4584 259.053 80.75 252.011 80.75C244.97 80.75 239.261 86.4584 239.261 93.5C239.261 100.542 244.97 106.25 252.011 106.25Z" fill="black"/>
<path opacity="0.4" d="M305.136 106.25C312.178 106.25 317.886 100.542 317.886 93.5C317.886 86.4584 312.178 80.75 305.136 80.75C298.095 80.75 292.386 86.4584 292.386 93.5C292.386 100.542 298.095 106.25 305.136 106.25Z" fill="black"/>
<path opacity="0.4" d="M358.262 106.25C365.303 106.25 371.012 100.542 371.012 93.5C371.012 86.4584 365.303 80.75 358.262 80.75C351.22 80.75 345.512 86.4584 345.512 93.5C345.512 100.542 351.22 106.25 358.262 106.25Z" fill="black"/>
<path opacity="0.4" d="M411.387 106.25C418.428 106.25 424.137 100.542 424.137 93.5C424.137 86.4584 418.428 80.75 411.387 80.75C404.345 80.75 398.637 86.4584 398.637 93.5C398.637 100.542 404.345 106.25 411.387 106.25Z" fill="black"/>
<path opacity="0.4" d="M92.6366 146.625C99.6782 146.625 105.387 140.917 105.387 133.875C105.387 126.833 99.6782 121.125 92.6366 121.125C85.595 121.125 79.8865 126.833 79.8865 133.875C79.8865 140.917 85.595 146.625 92.6366 146.625Z" fill="black"/>
<path opacity="0.4" d="M145.762 146.625C152.803 146.625 158.512 140.917 158.512 133.875C158.512 126.833 152.803 121.125 145.762 121.125C138.72 121.125 133.012 126.833 133.012 133.875C133.012 140.917 138.72 146.625 145.762 146.625Z" fill="black"/>
<path opacity="0.4" d="M92.6366 187C99.6782 187 105.387 181.292 105.387 174.25C105.387 167.208 99.6782 161.5 92.6366 161.5C85.595 161.5 79.8865 167.208 79.8865 174.25C79.8865 181.292 85.595 187 92.6366 187Z" fill="black"/>
<path opacity="0.4" d="M145.762 187C152.803 187 158.512 181.292 158.512 174.25C158.512 167.208 152.803 161.5 145.762 161.5C138.72 161.5 133.012 167.208 133.012 174.25C133.012 181.292 138.72 187 145.762 187Z" fill="black"/>
<path opacity="0.4" d="M198.886 187C205.928 187 211.636 181.292 211.636 174.25C211.636 167.208 205.928 161.5 198.886 161.5C191.845 161.5 186.136 167.208 186.136 174.25C186.136 181.292 191.845 187 198.886 187Z" fill="black"/>
<path opacity="0.4" d="M198.886 146.625C205.928 146.625 211.636 140.917 211.636 133.875C211.636 126.833 205.928 121.125 198.886 121.125C191.845 121.125 186.136 126.833 186.136 133.875C186.136 140.917 191.845 146.625 198.886 146.625Z" fill="black"/>
<path opacity="0.4" d="M252.011 146.625C259.053 146.625 264.761 140.917 264.761 133.875C264.761 126.833 259.053 121.125 252.011 121.125C244.97 121.125 239.261 126.833 239.261 133.875C239.261 140.917 244.97 146.625 252.011 146.625Z" fill="black"/>
<path opacity="0.4" d="M305.136 146.625C312.178 146.625 317.886 140.917 317.886 133.875C317.886 126.833 312.178 121.125 305.136 121.125C298.095 121.125 292.386 126.833 292.386 133.875C292.386 140.917 298.095 146.625 305.136 146.625Z" fill="black"/>
<path opacity="0.4" d="M358.262 146.625C365.303 146.625 371.012 140.917 371.012 133.875C371.012 126.833 365.303 121.125 358.262 121.125C351.22 121.125 345.512 126.833 345.512 133.875C345.512 140.917 351.22 146.625 358.262 146.625Z" fill="black"/>
<path opacity="0.4" d="M411.387 146.625C418.428 146.625 424.137 140.917 424.137 133.875C424.137 126.833 418.428 121.125 411.387 121.125C404.345 121.125 398.637 126.833 398.637 133.875C398.637 140.917 404.345 146.625 411.387 146.625Z" fill="black"/>
</g>
<g opacity="0.32">
<path opacity="0.4" d="M12.7501 47.5C19.7917 47.5 25.5001 41.7916 25.5001 34.75C25.5001 27.7084 19.7917 22 12.7501 22C5.70848 22 0 27.7084 0 34.75C0 41.7916 5.70848 47.5 12.7501 47.5Z" fill="white"/>
<path opacity="0.4" d="M65.875 47.5C72.9166 47.5 78.625 41.7916 78.625 34.75C78.625 27.7084 72.9166 22 65.875 22C58.8334 22 53.125 27.7084 53.125 34.75C53.125 41.7916 58.8334 47.5 65.875 47.5Z" fill="white"/>
<path opacity="0.4" d="M119 47.5C126.042 47.5 131.75 41.7916 131.75 34.75C131.75 27.7084 126.042 22 119 22C111.958 22 106.25 27.7084 106.25 34.75C106.25 41.7916 111.958 47.5 119 47.5Z" fill="white"/>
<path opacity="0.4" d="M172.125 47.5C179.167 47.5 184.875 41.7916 184.875 34.75C184.875 27.7084 179.167 22 172.125 22C165.083 22 159.375 27.7084 159.375 34.75C159.375 41.7916 165.083 47.5 172.125 47.5Z" fill="white"/>
<path opacity="0.4" d="M225.25 47.5C232.292 47.5 238 41.7916 238 34.75C238 27.7084 232.292 22 225.25 22C218.208 22 212.5 27.7084 212.5 34.75C212.5 41.7916 218.208 47.5 225.25 47.5Z" fill="white"/>
<path opacity="0.4" d="M278.375 47.5C285.417 47.5 291.125 41.7916 291.125 34.75C291.125 27.7084 285.417 22 278.375 22C271.333 22 265.625 27.7084 265.625 34.75C265.625 41.7916 271.333 47.5 278.375 47.5Z" fill="white"/>
<path opacity="0.4" d="M331.5 47.5C338.542 47.5 344.25 41.7916 344.25 34.75C344.25 27.7084 338.542 22 331.5 22C324.458 22 318.75 27.7084 318.75 34.75C318.75 41.7916 324.458 47.5 331.5 47.5Z" fill="white"/>
<path opacity="0.4" d="M12.7501 87.875C19.7917 87.875 25.5001 82.1666 25.5001 75.125C25.5001 68.0834 19.7917 62.375 12.7501 62.375C5.70848 62.375 0 68.0834 0 75.125C0 82.1666 5.70848 87.875 12.7501 87.875Z" fill="white"/>
<path opacity="0.4" d="M65.875 87.875C72.9166 87.875 78.625 82.1666 78.625 75.125C78.625 68.0834 72.9166 62.375 65.875 62.375C58.8334 62.375 53.125 68.0834 53.125 75.125C53.125 82.1666 58.8334 87.875 65.875 87.875Z" fill="white"/>
<path opacity="0.4" d="M119 87.875C126.042 87.875 131.75 82.1666 131.75 75.125C131.75 68.0834 126.042 62.375 119 62.375C111.958 62.375 106.25 68.0834 106.25 75.125C106.25 82.1666 111.958 87.875 119 87.875Z" fill="white"/>
<path opacity="0.4" d="M172.125 87.875C179.167 87.875 184.875 82.1666 184.875 75.125C184.875 68.0834 179.167 62.375 172.125 62.375C165.083 62.375 159.375 68.0834 159.375 75.125C159.375 82.1666 165.083 87.875 172.125 87.875Z" fill="white"/>
<path opacity="0.4" d="M225.25 87.875C232.292 87.875 238 82.1666 238 75.125C238 68.0834 232.292 62.375 225.25 62.375C218.208 62.375 212.5 68.0834 212.5 75.125C212.5 82.1666 218.208 87.875 225.25 87.875Z" fill="white"/>
<path opacity="0.4" d="M278.375 87.875C285.417 87.875 291.125 82.1666 291.125 75.125C291.125 68.0834 285.417 62.375 278.375 62.375C271.333 62.375 265.625 68.0834 265.625 75.125C265.625 82.1666 271.333 87.875 278.375 87.875Z" fill="white"/>
<path opacity="0.4" d="M331.5 87.875C338.542 87.875 344.25 82.1666 344.25 75.125C344.25 68.0834 338.542 62.375 331.5 62.375C324.458 62.375 318.75 68.0834 318.75 75.125C318.75 82.1666 324.458 87.875 331.5 87.875Z" fill="white"/>
<path opacity="0.4" d="M12.7501 128.25C19.7917 128.25 25.5001 122.542 25.5001 115.5C25.5001 108.458 19.7917 102.75 12.7501 102.75C5.70848 102.75 0 108.458 0 115.5C0 122.542 5.70848 128.25 12.7501 128.25Z" fill="white"/>
<path opacity="0.4" d="M65.875 128.25C72.9166 128.25 78.625 122.542 78.625 115.5C78.625 108.458 72.9166 102.75 65.875 102.75C58.8334 102.75 53.125 108.458 53.125 115.5C53.125 122.542 58.8334 128.25 65.875 128.25Z" fill="white"/>
<path opacity="0.4" d="M119 128.25C126.042 128.25 131.75 122.542 131.75 115.5C131.75 108.458 126.042 102.75 119 102.75C111.958 102.75 106.25 108.458 106.25 115.5C106.25 122.542 111.958 128.25 119 128.25Z" fill="white"/>
<path opacity="0.4" d="M172.125 128.25C179.167 128.25 184.875 122.542 184.875 115.5C184.875 108.458 179.167 102.75 172.125 102.75C165.083 102.75 159.375 108.458 159.375 115.5C159.375 122.542 165.083 128.25 172.125 128.25Z" fill="white"/>
<path opacity="0.4" d="M225.25 128.25C232.292 128.25 238 122.542 238 115.5C238 108.458 232.292 102.75 225.25 102.75C218.208 102.75 212.5 108.458 212.5 115.5C212.5 122.542 218.208 128.25 225.25 128.25Z" fill="white"/>
<path opacity="0.4" d="M278.375 128.25C285.417 128.25 291.125 122.542 291.125 115.5C291.125 108.458 285.417 102.75 278.375 102.75C271.333 102.75 265.625 108.458 265.625 115.5C265.625 122.542 271.333 128.25 278.375 128.25Z" fill="white"/>
<path opacity="0.4" d="M331.5 128.25C338.542 128.25 344.25 122.542 344.25 115.5C344.25 108.458 338.542 102.75 331.5 102.75C324.458 102.75 318.75 108.458 318.75 115.5C318.75 122.542 324.458 128.25 331.5 128.25Z" fill="white"/>
<path opacity="0.4" d="M12.7501 168.625C19.7917 168.625 25.5001 162.917 25.5001 155.875C25.5001 148.833 19.7917 143.125 12.7501 143.125C5.70848 143.125 0 148.833 0 155.875C0 162.917 5.70848 168.625 12.7501 168.625Z" fill="white"/>
<path opacity="0.4" d="M65.875 168.625C72.9166 168.625 78.625 162.917 78.625 155.875C78.625 148.833 72.9166 143.125 65.875 143.125C58.8334 143.125 53.125 148.833 53.125 155.875C53.125 162.917 58.8334 168.625 65.875 168.625Z" fill="white"/>
<path opacity="0.4" d="M12.7501 209C19.7917 209 25.5001 203.292 25.5001 196.25C25.5001 189.208 19.7917 183.5 12.7501 183.5C5.70848 183.5 0 189.208 0 196.25C0 203.292 5.70848 209 12.7501 209Z" fill="white"/>
<path opacity="0.4" d="M65.875 209C72.9166 209 78.625 203.292 78.625 196.25C78.625 189.208 72.9166 183.5 65.875 183.5C58.8334 183.5 53.125 189.208 53.125 196.25C53.125 203.292 58.8334 209 65.875 209Z" fill="white"/>
<path opacity="0.4" d="M119 209C126.042 209 131.75 203.292 131.75 196.25C131.75 189.208 126.042 183.5 119 183.5C111.958 183.5 106.25 189.208 106.25 196.25C106.25 203.292 111.958 209 119 209Z" fill="white"/>
<path opacity="0.4" d="M119 168.625C126.042 168.625 131.75 162.917 131.75 155.875C131.75 148.833 126.042 143.125 119 143.125C111.958 143.125 106.25 148.833 106.25 155.875C106.25 162.917 111.958 168.625 119 168.625Z" fill="white"/>
<path opacity="0.4" d="M172.125 168.625C179.167 168.625 184.875 162.917 184.875 155.875C184.875 148.833 179.167 143.125 172.125 143.125C165.083 143.125 159.375 148.833 159.375 155.875C159.375 162.917 165.083 168.625 172.125 168.625Z" fill="white"/>
<path opacity="0.4" d="M225.25 168.625C232.292 168.625 238 162.917 238 155.875C238 148.833 232.292 143.125 225.25 143.125C218.208 143.125 212.5 148.833 212.5 155.875C212.5 162.917 218.208 168.625 225.25 168.625Z" fill="white"/>
<path opacity="0.4" d="M278.375 168.625C285.417 168.625 291.125 162.917 291.125 155.875C291.125 148.833 285.417 143.125 278.375 143.125C271.333 143.125 265.625 148.833 265.625 155.875C265.625 162.917 271.333 168.625 278.375 168.625Z" fill="white"/>
<path opacity="0.4" d="M331.5 168.625C338.542 168.625 344.25 162.917 344.25 155.875C344.25 148.833 338.542 143.125 331.5 143.125C324.458 143.125 318.75 148.833 318.75 155.875C318.75 162.917 324.458 168.625 331.5 168.625Z" fill="white"/>
</g>
</svg>
