<svg width="24" height="25" viewBox="0 0 24 25" fill="none" xmlns="http://www.w3.org/2000/svg">
<path d="M18.9999 12.0461C18.447 12.0461 18 12.4941 18 13.046V21.0461C18 21.597 17.5519 22.046 17.0001 22.046H3C2.44794 22.046 2.00006 21.597 2.00006 21.0461V7.04602C2.00006 6.49506 2.44794 6.04608 3 6.04608H11.0001C11.553 6.04608 12 5.59802 12 5.04614C12 4.49408 11.553 4.04602 11.0001 4.04602H3C1.34601 4.04602 0 5.39203 0 7.04602V21.0461C0 22.7001 1.34601 24.0461 3 24.0461H17.0001C18.6541 24.0461 20.0001 22.7001 20.0001 21.0461V13.046C20.0001 12.493 19.5529 12.0461 18.9999 12.0461Z" fill="#0033CC"/>
<path d="M9.37594 11.1351C9.306 11.2051 9.25894 11.2941 9.23898 11.39L8.53201 14.9261C8.49905 15.09 8.55105 15.259 8.66897 15.3781C8.76401 15.4731 8.892 15.524 9.0231 15.524C9.05496 15.524 9.0881 15.5211 9.12106 15.5141L12.6561 14.8071C12.7541 14.787 12.843 14.7401 12.9121 14.67L20.8241 6.758L17.289 3.22314L9.37594 11.1351Z" fill="#0033CC"/>
<path d="M23.2679 0.778152C22.2931 -0.196884 20.707 -0.196884 19.7329 0.778152L18.349 2.16206L21.884 5.6971L23.2679 4.313C23.74 3.84206 24 3.214 24 2.54604C24 1.87807 23.74 1.25002 23.2679 0.778152Z" fill="#0033CC"/>
</svg>
