<svg width="24" height="24" viewBox="0 0 24 24" fill="none" xmlns="http://www.w3.org/2000/svg">
<path d="M22.9755 0.808847L22.9466 0.782499C22.3942 0.277916 21.6781 0 20.9303 0C20.092 0 19.287 0.354894 18.7218 0.973601L8.03506 12.6735C7.93766 12.7801 7.86377 12.9059 7.8181 13.0429L6.56149 16.81C6.4162 17.2455 6.48912 17.7272 6.75651 18.0984C7.02604 18.4725 7.46025 18.6959 7.91812 18.6959H7.91819C8.11624 18.6959 8.30982 18.6551 8.49342 18.5748L12.1318 16.9831C12.2641 16.9252 12.3827 16.8403 12.4801 16.7337L23.1669 5.03386C24.279 3.81647 24.1932 1.92127 22.9755 0.808847ZM8.96911 16.1141L9.70648 13.9036L9.76867 13.8355L11.1662 15.112L11.104 15.1801L8.96911 16.1141ZM21.6432 3.64201L12.5581 13.5883L11.1605 12.3118L20.2456 2.36545C20.4233 2.17091 20.6665 2.06374 20.9304 2.06374C21.1619 2.06374 21.3836 2.14986 21.5551 2.30657L21.584 2.33291C21.9612 2.67749 21.9878 3.26476 21.6432 3.64201Z" fill="#0033CC"/>
<path d="M20.9023 9.51901C20.3324 9.51901 19.8704 9.98101 19.8704 10.5509V19.3112C19.8704 20.7582 18.6932 21.9354 17.2462 21.9354H4.74004C3.29302 21.9354 2.11586 20.7582 2.11586 19.3112V6.90666C2.11586 5.45971 3.29308 4.28249 4.74004 4.28249H13.7921C14.3619 4.28249 14.8239 3.82048 14.8239 3.25062C14.8239 2.68075 14.3619 2.21875 13.7921 2.21875H4.74004C2.15507 2.21875 0.052124 4.32176 0.052124 6.90666V19.3112C0.052124 21.8961 2.15514 23.9991 4.74004 23.9991H17.2461C19.831 23.9991 21.9341 21.8961 21.9341 19.3112V10.5509C21.9341 9.98101 21.4721 9.51901 20.9023 9.51901Z" fill="#0033CC"/>
</svg>
