<svg width="20" height="21" viewBox="0 0 20 21" fill="none" xmlns="http://www.w3.org/2000/svg">
<path d="M5.06126 20.0004L5.42946 19.8975C5.78363 19.7985 5.9905 19.4312 5.89153 19.077L1.68177 4.0119C1.62237 3.79929 1.48094 3.619 1.2886 3.51067C1.09625 3.40234 0.868757 3.37487 0.656154 3.43428L0.608602 3.44755C0.165853 3.57126 -0.0927868 4.03046 0.0309125 4.47321L4.24077 19.5383C4.33974 19.8925 4.70708 20.0994 5.06126 20.0004Z" fill="#33CC00"/>
<path d="M19.8861 9.47258C18.5511 8.80691 17.3161 7.95725 16.2172 6.94844C16.1248 6.86388 16.0887 6.73409 16.1241 6.61396C16.6686 4.55403 17.0729 2.45958 17.3344 0.344995C17.3758 -0.00672924 17.1861 -0.110178 16.9861 0.131202C13.062 4.82431 6.27234 -0.727419 2.23096 3.5381C2.27948 3.62894 2.31765 3.72495 2.34475 3.82431L5.07578 13.6036C9.12406 9.38982 15.8896 14.9071 19.8068 10.2243C20.0068 9.98293 20.0448 9.54155 19.8861 9.47258Z" fill="#33CC00"/>
</svg>
