<svg width="20" height="20" viewBox="0 0 20 20" fill="none" xmlns="http://www.w3.org/2000/svg">
<path d="M17.7 0.6C17.8657 0.6 18 0.465685 18 0.3C18 0.134315 17.8657 0 17.7 0C17.5343 0 17.4 0.134315 17.4 0.3C17.4 0.465685 17.5343 0.6 17.7 0.6Z" fill="#33CC00"/>
<path d="M14.7 2.2001C14.8657 2.2001 15 2.06578 15 1.9001C15 1.73441 14.8657 1.6001 14.7 1.6001C14.5343 1.6001 14.4 1.73441 14.4 1.9001C14.4 2.06578 14.5343 2.2001 14.7 2.2001Z" fill="#33CC00"/>
<path d="M11.1449 6.83424V10.0618H9.80005V6.02734L11.1449 6.83424Z" fill="#0638D2"/>
<path d="M14.9103 10.5999V17.9999C14.9103 18.2209 14.7313 18.3999 14.5103 18.3999H5.08966C4.86874 18.3999 4.68966 18.2209 4.68966 17.9999V10.5999H2L2.43574 5.81777C2.4984 5.12005 2.94434 4.51543 3.5923 4.24969L6.20128 3.17383L8.4552 6.83445L9.8 6.02755V10.062H11.1448V6.83445L13.5655 3.33789L13.6328 3.18189L16.0427 4.23623C16.6715 4.51139 17.1005 5.10715 17.1616 5.79083L17.6 10.5999H14.9103Z" fill="#2E5BFF"/>
<path d="M9.79993 6.02738L8.45511 6.83428L6.20117 3.17366L7.11027 2.7998L9.79993 6.02738Z" fill="#0033CC"/>
<path d="M12.7586 2.7998L9.80001 6.02738L7.11035 2.7998H8.99311H9.53103H10.069H10.6069H12.7586Z" fill="#2E5BFF"/>
<path d="M17.5999 10.6001H14.9103V11.676H17.5999V10.6001Z" fill="#48DC17"/>
<path d="M13.6328 3.18172L13.5656 3.33772L11.1449 6.83428L9.80005 6.02738L12.7586 2.7998L13.6328 3.18172Z" fill="#0033CC"/>
<path d="M4.68966 10.6001H2V11.676H4.68966V10.6001Z" fill="#48DC17"/>
<path d="M15.1793 7.10352H14.6414V11.6759H15.1793V7.10352Z" fill="#0033CC"/>
<path d="M4.95857 7.37207H4.42065V11.6755H4.95857V7.37207Z" fill="#0033CC"/>
<path d="M11.1447 8.71729H10.6068V9.25523H11.1447V8.71729Z" fill="white"/>
<path d="M11.1447 7.64111H10.6068V8.17903H11.1447V7.64111Z" fill="white"/>
<path d="M16.5 14.2001C16.6656 14.2001 16.7999 14.0658 16.7999 13.9001C16.7999 13.7344 16.6656 13.6001 16.5 13.6001C16.3343 13.6001 16.2 13.7344 16.2 13.9001C16.2 14.0658 16.3343 14.2001 16.5 14.2001Z" fill="#33CC00"/>
<path d="M2.3 13.9999C2.46569 13.9999 2.6 13.8656 2.6 13.6999C2.6 13.5342 2.46569 13.3999 2.3 13.3999C2.13431 13.3999 2 13.5342 2 13.6999C2 13.8656 2.13431 13.9999 2.3 13.9999Z" fill="#33CC00"/>
<path d="M17.4 1.9001C17.4 1.73441 17.2657 1.6001 17.1 1.6001C16.9344 1.6001 16.8 1.73441 16.8 1.9001V3.9001C16.8 4.06578 16.9344 4.2001 17.1 4.2001C17.2657 4.2001 17.4 4.06578 17.4 3.9001V1.9001Z" fill="#33CC00"/>
<path d="M16.1 2.6002C15.9344 2.6002 15.8 2.73451 15.8 2.9002C15.8 3.06588 15.9344 3.2002 16.1 3.2002H18.1C18.2657 3.2002 18.4 3.06588 18.4 2.9002C18.4 2.73451 18.2657 2.6002 18.1 2.6002H16.1Z" fill="#33CC00"/>
<path d="M5.00002 14.6999C5.00002 14.5342 4.86571 14.3999 4.70002 14.3999C4.53434 14.3999 4.40002 14.5342 4.40002 14.6999V16.6999C4.40002 16.8656 4.53434 16.9999 4.70002 16.9999C4.86571 16.9999 5.00002 16.8656 5.00002 16.6999V14.6999Z" fill="#33CC00"/>
<path d="M3.70002 15.4C3.53434 15.4 3.40002 15.5343 3.40002 15.7C3.40002 15.8657 3.53434 16 3.70002 16H5.70002C5.86571 16 6.00002 15.8657 6.00002 15.7C6.00002 15.5343 5.86571 15.4 5.70002 15.4H3.70002Z" fill="#33CC00"/>
</svg>
