<svg width="20" height="20" viewBox="0 0 20 20" fill="none" xmlns="http://www.w3.org/2000/svg">
<path d="M17.3388 6.31115L17.1642 6.49685H15.9524C15.2524 6.49685 14.5874 6.21595 14.1278 5.72621C13.828 5.40671 13.4049 5.01123 12.9669 5.01123C12.5288 5.01123 12.1057 5.19449 11.806 5.51397C11.3464 6.00373 10.6813 6.28461 9.98133 6.28461H8.48879V6.30467L7.90161 6.48975V8.31951H8.77755L8.85355 8.53561C9.21757 8.38355 9.46387 8.29575 9.64813 8.24889C9.85131 8.19727 9.97893 8.19469 10.1018 8.19469C11.2624 8.19469 12.1651 9.22899 11.9902 10.3911H11.9895C11.9435 10.7059 11.8189 11.0036 11.6291 11.2579H11.0851V11.8248H12.9669L14.2544 11.6126L14.166 11.3675L14.0924 11.2579C13.9026 11.0035 13.778 10.7057 13.7321 10.3911H13.7313C13.5413 9.12819 14.8947 7.68317 16.2856 8.03667C16.4576 8.08041 16.6837 8.15987 17.0091 8.29389L17.1319 8.45467L17.6643 8.41401L17.8765 6.17849L17.3388 6.31115Z" fill="#555555"/>
<path d="M14.4667 11.2579H14.3047C14.1148 11.0035 13.9902 10.7057 13.9443 10.3911H13.9436C13.7688 9.22919 14.6712 8.19469 15.832 8.19469C15.9549 8.19469 16.0825 8.19727 16.2856 8.24889C16.4577 8.29263 16.6838 8.37209 17.0092 8.50613L16.9427 8.73941L17.8765 8.62625V5.96627H17.1054L17.1643 6.28461H15.9525C15.2525 6.28461 14.5874 6.00373 14.1278 5.51397C13.828 5.19449 13.4049 5.01123 12.9669 5.01123V11.8248H14.4667V11.2579Z" fill="#646363"/>
<path d="M16.592 3.084C15.563 2.05498 13.5398 1.48828 12.9668 1.48828C9.97527 1.48828 7.53369 3.92998 7.53369 6.9214C7.53369 8.36698 8.10039 9.7298 9.12941 10.7588C10.1585 11.7878 11.5212 12.3545 12.9668 12.3545C13.7096 12.3545 15.563 11.7878 16.592 10.7588C18.7207 8.63012 18.7214 5.21344 16.592 3.084ZM12.9668 11.0599C10.6848 11.0599 8.82831 9.20338 8.82831 6.9214C8.82831 4.63944 10.6848 2.7829 12.9668 2.7829C15.7122 2.7829 17.3175 4.63944 17.3175 6.9214C17.3175 9.20338 15.6834 11.0599 12.9668 11.0599Z" fill="#555555"/>
<path d="M18.4 6.9214C18.4 3.92984 15.9583 1.48828 12.9669 1.48828V2.7829C15.2489 2.7829 17.1054 4.63944 17.1054 6.9214C17.1054 9.20338 15.2489 11.0599 12.9669 11.0599V12.3545C15.9585 12.3545 18.4 9.91284 18.4 6.9214Z" fill="#555555"/>
<path d="M12.9669 8.19475C13.4943 8.19475 13.9219 7.76717 13.9219 7.23971C13.9219 6.71227 13.4943 6.28467 12.9669 6.28467C12.4394 6.28467 12.0118 6.71227 12.0118 7.23971C12.0118 7.76717 12.4394 8.19475 12.9669 8.19475Z" fill="#F3D752"/>
<path d="M13.922 7.23971C13.922 6.71309 13.4935 6.28467 12.9669 6.28467V8.19475C13.4935 8.19475 13.922 7.76635 13.922 7.23971Z" fill="#E59A32"/>
<path d="M12.9669 7.55809C13.1427 7.55809 13.2852 7.41557 13.2852 7.23975C13.2852 7.06393 13.1427 6.92139 12.9669 6.92139C12.7911 6.92139 12.6486 7.06393 12.6486 7.23975C12.6486 7.41557 12.7911 7.55809 12.9669 7.55809Z" fill="#F5F5F5"/>
<path d="M13.2853 7.23975C13.2853 7.06419 13.1425 6.92139 12.9669 6.92139V7.55809C13.1425 7.55809 13.2853 7.41531 13.2853 7.23975Z" fill="#EFE6CA"/>
<path d="M1.40002 15.719C1.40002 16.3601 1.91969 16.8798 2.56074 16.8798H9.31632C9.95736 16.8798 10.477 16.3601 10.477 15.719V8.96345C10.477 8.32239 9.95736 7.80273 9.31632 7.80273H2.56074C1.91969 7.80273 1.40002 8.32239 1.40002 8.96345V15.719Z" fill="#48DC17"/>
<path d="M8.63351 9.14355C7.45359 9.14355 6.49365 10.1035 6.49365 11.2834V16.8794H9.31627C9.95731 16.8794 10.477 16.3598 10.477 15.7187V9.14355H8.63351Z" fill="#33CC00"/>
<path d="M5.60883 15.2313C5.25093 15.2313 4.93515 15.0648 4.74823 14.7718C4.48487 14.3591 4.51711 13.795 4.83447 13.2629C5.17003 12.7003 5.17581 12.1934 4.84911 11.9716C4.53705 11.7597 3.96671 11.8451 3.52441 12.4206C3.44445 12.5247 3.29533 12.5442 3.19121 12.4642C3.08717 12.3843 3.06765 12.2351 3.14763 12.131C3.42313 11.7726 3.76551 11.5321 4.13777 11.4358C4.49133 11.3443 4.84787 11.3963 5.11609 11.5784C5.53517 11.863 5.81977 12.5387 5.24259 13.5064C5.02263 13.8751 4.98673 14.2621 5.14887 14.5162C5.26121 14.6923 5.45039 14.7761 5.68173 14.7523C5.95085 14.7245 6.89569 14.4577 7.75451 12.1916C7.80103 12.0689 7.93817 12.0071 8.06091 12.0536C8.18363 12.1001 8.24539 12.2373 8.19887 12.36C7.26973 14.8118 6.16313 15.1804 5.73049 15.225C5.68949 15.2292 5.64887 15.2313 5.60883 15.2313Z" fill="white"/>
<path d="M5.1161 10.2321H3.17634C3.04512 10.2321 2.93872 10.1257 2.93872 9.99446C2.93872 9.86322 3.04512 9.75684 3.17634 9.75684H5.1161C5.24732 9.75684 5.3537 9.86322 5.3537 9.99446C5.3537 10.1257 5.24732 10.2321 5.1161 10.2321Z" fill="white"/>
<path d="M8.6335 19.2H13.3058C15.0974 19.2 16.5498 17.7476 16.5498 15.9561V11.2837C16.5498 10.6427 16.0301 10.123 15.3891 10.123H8.6335C7.99246 10.123 7.47278 10.6427 7.47278 11.2837V18.0393C7.47278 18.6804 7.99246 19.2 8.6335 19.2Z" fill="#2E5BFF"/>
<path d="M13.3057 19.1997C15.0973 19.1997 16.5497 17.7473 16.5497 15.9557V14.6611C16.5497 15.9844 15.8172 16.454 14.9649 16.4541C14.325 16.4541 13.8041 16.9749 13.8041 17.6149C13.8041 18.4672 13.3345 19.1997 12.0112 19.1997H13.3057Z" fill="#0033CC"/>
<path d="M14.5225 12.9909H9.50017C9.36895 12.9909 9.26257 12.8845 9.26257 12.7532C9.26257 12.622 9.36895 12.5156 9.50017 12.5156H14.5225C14.6537 12.5156 14.7601 12.622 14.7601 12.7532C14.7601 12.8845 14.6537 12.9909 14.5225 12.9909Z" fill="white"/>
<path d="M14.5225 15.1119H9.50017C9.36895 15.1119 9.26257 15.0055 9.26257 14.8743C9.26257 14.7431 9.36895 14.6367 9.50017 14.6367H14.5225C14.6537 14.6367 14.7601 14.7431 14.7601 14.8743C14.7601 15.0055 14.6537 15.1119 14.5225 15.1119Z" fill="white"/>
</svg>
