<svg width="20" height="20" viewBox="0 0 20 20" fill="none" xmlns="http://www.w3.org/2000/svg">
<path d="M10.149 2.54541H12.5441V4.21696H10.149V2.54541Z" fill="#2E5BFF"/>
<path d="M13.2449 4.21729H9.448C8.94006 4.21729 8.52832 4.61979 8.52832 5.1163V6.37712H14.1646V5.1163C14.1646 4.61979 13.7528 4.21729 13.2449 4.21729Z" fill="#48DC17"/>
<path d="M10.8088 4.21729H9.448C8.94006 4.21729 8.52832 4.61979 8.52832 5.1163V6.37712H11.4261C10.8746 6.06607 10.7543 5.06735 10.8088 4.21729Z" fill="#33CC00"/>
<path d="M15.4459 9.57222V7.9961C15.4459 6.86188 14.5053 5.94238 13.345 5.94238H9.34777C8.18747 5.94238 7.24683 6.86184 7.24683 7.9961V9.57222C7.24683 9.9523 7.43703 10.3083 7.7561 10.5255L7.97567 10.675C8.29476 10.8922 8.48495 11.2482 8.48495 11.6283V12.2977C8.48495 12.6777 8.29476 13.0338 7.97567 13.251L7.7561 13.4004C7.43703 13.6176 7.24683 13.9737 7.24683 14.3538V17.0988C7.24683 17.9202 7.92804 18.5861 8.76838 18.5861H13.9244C14.7647 18.5861 15.4459 17.9202 15.4459 17.0988V14.3538C15.4459 13.9737 15.2557 13.6176 14.9367 13.4004L14.7171 13.251C14.398 13.0338 14.2078 12.6777 14.2078 12.2977V11.6283C14.2078 11.2482 14.398 10.8922 14.7171 10.675L14.9367 10.5255C15.2557 10.3083 15.4459 9.95226 15.4459 9.57222Z" fill="#48DC17"/>
<path d="M11.1126 15.8144V12.292C11.1126 10.3519 9.49794 8.77344 7.51317 8.77344H7.24683V9.5721C7.24683 9.95218 7.43703 10.3082 7.7561 10.5254L7.97567 10.6749C8.29477 10.8921 8.48495 11.2481 8.48495 11.6282V12.2976C8.48495 12.6776 8.29477 13.0337 7.97567 13.2509L7.7561 13.4003C7.43703 13.6175 7.24683 13.9736 7.24683 14.3536V17.0986C7.24683 17.798 7.74083 18.3844 8.40622 18.5433C8.54731 18.3226 8.64547 18.0731 8.68909 17.806H9.07527C10.1987 17.806 11.1126 16.9125 11.1126 15.8144Z" fill="#33CC00"/>
<path d="M8.48499 11.7056H14.2078V12.2205H8.48499V11.7056Z" fill="#33CC00"/>
<path d="M7.7561 10.5255L7.90788 10.6288H14.7849L14.9367 10.5255C15.2557 10.3083 15.4459 9.95228 15.4459 9.57222V7.9961C15.4459 6.86188 14.5053 5.94238 13.345 5.94238H9.34777C8.18747 5.94238 7.24683 6.86184 7.24683 7.9961V9.57222C7.24683 9.95228 7.43703 10.3083 7.7561 10.5255Z" fill="#2E5BFF"/>
<path d="M7.7561 10.5254L7.90788 10.6287H10.6843C10.0761 9.5252 8.88283 8.77344 7.51317 8.77344H7.24683V9.5721C7.24683 9.95214 7.43703 10.3082 7.7561 10.5254Z" fill="#0033CC"/>
<path d="M7.24683 14.5073V17.0985C7.24683 17.9199 7.92804 18.5858 8.76838 18.5858H13.9244C14.7647 18.5858 15.4459 17.9199 15.4459 17.0985V14.5073H7.24683Z" fill="#2E5BFF"/>
<path d="M7.24683 14.5073V17.0985C7.24683 17.7979 7.74083 18.3842 8.40626 18.5431C8.54735 18.3224 8.64549 18.0728 8.68911 17.8058H9.07529C10.1987 17.8058 11.1127 16.9124 11.1127 15.8142V14.5073H7.24683Z" fill="#0033CC"/>
<path d="M7.51323 9.83447H5.34743C3.95889 9.83447 2.83325 10.9348 2.83325 12.2922V17.4909C2.83325 18.0049 3.25949 18.4216 3.78533 18.4216H6.67727C7.20311 18.4216 7.62937 18.0049 7.62937 17.4909V16.7452H9.07533C9.60117 16.7452 10.0274 16.3285 10.0274 15.8145V12.2922C10.0274 10.9348 8.9018 9.83447 7.51323 9.83447Z" fill="#FFF500"/>
<path d="M10.0275 14.9474C8.73083 14.633 7.86317 12.9039 7.62939 11.8921V16.7451H9.07535C9.60117 16.7451 10.0275 16.3285 10.0275 15.8145V14.9474Z" fill="#F3D752"/>
<path d="M12.2828 1.01025H10.4101C10.0528 1.01025 9.73713 1.23771 9.63143 1.57134L9.53394 1.87888C9.42905 2.20991 9.68214 2.54557 10.0366 2.54557H12.6563C13.0108 2.54557 13.2639 2.20991 13.159 1.87888L13.0615 1.57134C12.9558 1.23771 12.6401 1.01025 12.2828 1.01025Z" fill="#48DC17"/>
<path d="M4.79755 13.0673C4.73016 13.0673 4.66273 13.0421 4.61133 12.9919C4.50846 12.8913 4.50846 12.7283 4.61133 12.6278L5.21139 12.0412C5.31426 11.9407 5.48103 11.9407 5.58386 12.0412C5.68671 12.1418 5.68671 12.3048 5.58386 12.4053L4.98378 12.9919C4.93236 13.0422 4.86493 13.0673 4.79755 13.0673Z" fill="#F3D752"/>
<path d="M6.16385 15.3193C6.09646 15.3193 6.02902 15.2941 5.97763 15.2439L5.56639 14.8419C5.46355 14.7413 5.46355 14.5783 5.56639 14.4777C5.66926 14.3772 5.83603 14.3772 5.93884 14.4778L6.35011 14.8798C6.45296 14.9803 6.45296 15.1433 6.35011 15.2439C6.29866 15.2941 6.23122 15.3193 6.16385 15.3193Z" fill="#F3D752"/>
<path d="M4.39483 16.7905C4.32741 16.7905 4.26002 16.7654 4.20861 16.7151C4.10576 16.6146 4.10576 16.4516 4.20861 16.3511L4.54053 16.0266C4.64339 15.926 4.81016 15.9261 4.91299 16.0266C5.01584 16.1271 5.01584 16.2901 4.91299 16.3907L4.58105 16.7151C4.52966 16.7654 4.46226 16.7905 4.39483 16.7905Z" fill="#F3D752"/>
<path d="M11.7173 11.4144C11.7173 11.247 11.5816 11.1113 11.4142 11.1113C11.2469 11.1113 11.1112 11.247 11.1112 11.4144V13.4346C11.1112 13.6019 11.2469 13.7376 11.4142 13.7376C11.5816 13.7376 11.7173 13.6019 11.7173 13.4346V11.4144Z" fill="white"/>
<path d="M10.4041 12.1215C10.2367 12.1215 10.1011 12.2572 10.1011 12.4245C10.1011 12.5919 10.2367 12.7275 10.4041 12.7275H12.4243C12.5917 12.7275 12.7273 12.5919 12.7273 12.4245C12.7273 12.2572 12.5917 12.1215 12.4243 12.1215H10.4041Z" fill="white"/>
</svg>
