<svg width="20" height="20" viewBox="0 0 20 20" fill="none" xmlns="http://www.w3.org/2000/svg">
<path d="M15.7634 16.2237V3.80028C15.7634 3.02688 15.1364 2.3999 14.363 2.3999H5.20045C4.42703 2.3999 3.80005 3.02688 3.80005 3.80028V16.2237C3.80005 16.9971 4.42703 17.6241 5.20045 17.6241H14.363C15.1364 17.6241 15.7634 16.9971 15.7634 16.2237Z" fill="#48DC17"/>
<path d="M14.363 17.5435C15.1364 17.5435 15.7634 16.9165 15.7634 16.1431V12.4053L11.9127 16.256C11.5817 16.587 11.3374 16.9994 11.2062 17.4487L11.1785 17.5435H14.363Z" fill="#33CC00"/>
<path d="M17.7136 12.4268L12.8264 17.314C12.6159 17.5244 12.3559 17.6785 12.0702 17.762L11.3441 17.9741C10.8675 18.1133 10.4252 17.671 10.5645 17.1945L10.7766 16.4684C10.86 16.1827 11.0141 15.9226 11.2245 15.7122L16.1117 10.825C16.4545 10.4822 17.0103 10.4822 17.3531 10.825L17.7136 11.1855C18.0564 11.5282 18.0564 12.084 17.7136 12.4268Z" fill="#2E5BFF"/>
<path d="M13.2849 13.6514L11.2245 15.7118C11.0141 15.9222 10.86 16.1823 10.7766 16.468L10.5645 17.1941C10.4252 17.6706 10.8675 18.1129 11.3441 17.9737L12.0702 17.7616C12.3558 17.6781 12.6159 17.5241 12.8264 17.3136L13.9176 16.2224C13.2382 15.6005 13.1383 14.5207 13.2849 13.6514Z" fill="#0033CC"/>
<path d="M12.4133 17.6202L10.9181 16.125C10.8595 16.2338 10.8115 16.3485 10.7766 16.4681L10.5645 17.1941C10.4252 17.6707 10.8675 18.113 11.3441 17.9738L12.0702 17.7616C12.1898 17.7268 12.3044 17.6788 12.4133 17.6202Z" fill="#555555"/>
<path d="M16.91 13.2304L17.7135 12.4268C18.0563 12.084 18.0563 11.5282 17.7135 11.1854L17.353 10.825C17.0102 10.4822 16.4545 10.4822 16.1117 10.825L15.3081 11.6285L16.91 13.2304Z" fill="#FFF500"/>
<path d="M16.9125 13.2295L15.9373 14.2048L14.3357 12.6032L15.3109 11.6279L16.9125 13.2295Z" fill="#555555"/>
<path d="M13.2547 15.5311C13.1912 15.5311 13.1277 15.5068 13.0792 15.4583C12.9822 15.3614 12.9822 15.2042 13.0792 15.1073L13.8789 14.3076C13.9759 14.2106 14.1331 14.2106 14.23 14.3076C14.3269 14.4045 14.3269 14.5617 14.23 14.6587L13.4303 15.4584C13.3818 15.5068 13.3183 15.5311 13.2547 15.5311Z" fill="#FFF500"/>
<path d="M12.3791 5.53555H7.18425C6.80931 5.53555 6.50537 5.23161 6.50537 4.85667V4.26579C6.50537 3.89085 6.80931 3.58691 7.18425 3.58691H12.3791C12.754 3.58691 13.0579 3.89085 13.0579 4.26579V4.85667C13.0579 5.23159 12.754 5.53555 12.3791 5.53555Z" fill="#33CC00"/>
<path d="M12.2316 9.12644H7.41734C7.29156 9.12644 7.18958 9.02446 7.18958 8.89868C7.18958 8.77288 7.29156 8.6709 7.41734 8.6709H12.2316C12.3574 8.6709 12.4594 8.77288 12.4594 8.89868C12.4594 9.02446 12.3574 9.12644 12.2316 9.12644Z" fill="white"/>
<path d="M12.2316 11.1601H7.41734C7.29156 11.1601 7.18958 11.0582 7.18958 10.9324C7.18958 10.8066 7.29156 10.7046 7.41734 10.7046H12.2316C12.3574 10.7046 12.4594 10.8066 12.4594 10.9324C12.4594 11.0582 12.3574 11.1601 12.2316 11.1601Z" fill="white"/>
<path d="M12.2316 13.1938H7.41734C7.29156 13.1938 7.18958 13.0918 7.18958 12.966C7.18958 12.8403 7.29156 12.7383 7.41734 12.7383H12.2316C12.3574 12.7383 12.4594 12.8403 12.4594 12.966C12.4594 13.0918 12.3574 13.1938 12.2316 13.1938Z" fill="white"/>
</svg>
