<svg width="20" height="20" viewBox="0 0 20 20" fill="none" xmlns="http://www.w3.org/2000/svg">
<path d="M10 17.5999C14.1974 17.5999 17.6 14.1973 17.6 9.9999C17.6 5.80254 14.1974 2.3999 10 2.3999C5.80266 2.3999 2.40002 5.80254 2.40002 9.9999C2.40002 14.1973 5.80266 17.5999 10 17.5999Z" fill="#2E5BFF"/>
<path d="M9.99998 2.3999C9.86432 2.3999 9.7295 2.40362 9.59558 2.41062C13.6049 2.62086 16.7912 5.9382 16.7912 9.9999C16.7912 14.0616 13.6049 17.3789 9.59558 17.5892C9.7295 17.5962 9.86432 17.5999 9.99998 17.5999C14.1974 17.5999 17.6 14.1973 17.6 9.9999C17.6 5.80254 14.1974 2.3999 9.99998 2.3999Z" fill="#0033CC"/>
<path d="M9.99992 15.9227C13.2707 15.9227 15.9222 13.2712 15.9222 10.0004C15.9222 6.72962 13.2707 4.07812 9.99992 4.07812C6.72914 4.07812 4.07764 6.72962 4.07764 10.0004C4.07764 13.2712 6.72914 15.9227 9.99992 15.9227Z" fill="white"/>
<path d="M10.0001 4.07812C9.83606 4.07812 9.6737 4.0851 9.51306 4.09816C12.556 4.34588 14.9483 6.89364 14.9483 10.0004C14.9483 13.1072 12.556 15.6549 9.51306 15.9026C9.6737 15.9157 9.83606 15.9227 10.0001 15.9227C13.2709 15.9227 15.9223 13.2712 15.9223 10.0004C15.9223 6.72966 13.2709 4.07812 10.0001 4.07812Z" fill="#E1E1E1"/>
<path d="M9.89231 10.7237H6.90855C6.71453 10.7237 6.55725 10.5664 6.55725 10.3724C6.55725 10.1784 6.71453 10.0211 6.90855 10.0211H9.54095V5.5515C9.54095 5.35748 9.69823 5.2002 9.89225 5.2002C10.0863 5.2002 10.2436 5.35748 10.2436 5.5515V10.3724C10.2436 10.5664 10.0863 10.7237 9.89231 10.7237Z" fill="#646363"/>
<path d="M13.4965 12.5768C13.4424 12.5768 13.3876 12.5643 13.3361 12.5379L9.73163 10.6843C9.55907 10.5956 9.49113 10.3838 9.57985 10.2113C9.66855 10.0387 9.88035 9.97072 10.053 10.0595L13.6575 11.913C13.83 12.0017 13.898 12.2135 13.8093 12.386C13.7469 12.5072 13.624 12.5768 13.4965 12.5768Z" fill="#48DC17"/>
<path d="M9.9 11.377C10.3971 11.377 10.8 10.9292 10.8 10.377C10.8 9.82467 10.3971 9.37695 9.9 9.37695C9.40294 9.37695 9 9.82467 9 10.377C9 10.9292 9.40294 11.377 9.9 11.377Z" fill="#555555"/>
</svg>
