<svg width="20" height="20" viewBox="0 0 20 20" fill="none" xmlns="http://www.w3.org/2000/svg">
<path d="M0.85791 14.4565V17.1282C0.85791 17.7937 1.3828 18.353 2.07671 18.4266L4.09075 18.6402L0.85791 14.4565Z" fill="#555555"/>
<path d="M9.22527 14.4565V17.1282C9.22527 17.7937 8.70051 18.353 8.00657 18.4266L5.99243 18.6402L9.22527 14.4565Z" fill="#555555"/>
<path d="M9.22213 14.4305C9.22187 14.4309 9.22187 14.4309 9.22187 14.4309L4.94871 11.2236L0.861304 14.4309L0.860914 14.4305C0.858956 14.485 0.85791 14.5395 0.85791 14.5944C0.85791 16.9339 2.73089 18.8303 5.04151 18.8303C7.35229 18.8303 9.22525 16.9339 9.22525 14.5944C9.22525 14.5396 9.22421 14.485 9.22213 14.4305Z" fill="#FBC4AC"/>
<path d="M2.94208 15.5877C2.84132 15.5877 2.75964 15.506 2.75964 15.4052V15.0194C2.75964 14.9186 2.84132 14.8369 2.94208 14.8369C3.04286 14.8369 3.12454 14.9186 3.12454 15.0194V15.4052C3.12454 15.506 3.04286 15.5877 2.94208 15.5877Z" fill="#555555"/>
<path d="M6.95822 15.5877C6.85744 15.5877 6.77576 15.506 6.77576 15.4052V15.0194C6.77576 14.9186 6.85744 14.8369 6.95822 14.8369C7.05898 14.8369 7.14066 14.9186 7.14066 15.0194V15.4052C7.14066 15.506 7.05898 15.5877 6.95822 15.5877Z" fill="#555555"/>
<path d="M4.95016 16.9723C4.6945 16.9723 4.45142 16.8616 4.28318 16.6685C4.21698 16.5925 4.2249 16.4773 4.30088 16.4111C4.37688 16.3449 4.4921 16.3528 4.55832 16.4288C4.6572 16.5423 4.80004 16.6074 4.95016 16.6074C5.10028 16.6074 5.2431 16.5423 5.34202 16.4288C5.40824 16.3529 5.52348 16.3449 5.59946 16.4111C5.67544 16.4773 5.68334 16.5926 5.61714 16.6685C5.4489 16.8616 5.2058 16.9723 4.95016 16.9723Z" fill="#555555"/>
<path d="M1.55697 14.2661C1.32972 14.3292 1.09723 14.3763 0.861324 14.4023L0.86093 14.4019C0.858962 14.4568 0.85791 14.5116 0.85791 14.5669C0.85791 16.9215 2.74161 18.8301 5.06549 18.8301C5.18561 18.8301 5.30443 18.8248 5.42191 18.8147C3.33237 18.6251 1.67275 16.682 1.55697 14.2661Z" fill="#E3B098"/>
<path d="M3.06407 15.9777H2.45535C2.30829 15.9777 2.18921 15.8501 2.18921 15.6925C2.18921 15.535 2.30829 15.4072 2.45535 15.4072H3.06407C3.21113 15.4072 3.33021 15.535 3.33021 15.6925C3.33021 15.8501 3.21113 15.9777 3.06407 15.9777Z" fill="#F98084"/>
<path d="M7.62791 16.1677H7.01919C6.87213 16.1677 6.75305 16.04 6.75305 15.8824C6.75305 15.7249 6.87213 15.5972 7.01919 15.5972H7.62791C7.77497 15.5972 7.89405 15.7249 7.89405 15.8824C7.89405 16.04 7.77497 16.1677 7.62791 16.1677Z" fill="#F98084"/>
<path d="M0.85791 14.456L0.858302 14.4564C3.10533 14.2145 5.04159 12.103 5.04159 12.103C5.04159 12.103 6.97797 14.2145 9.22499 14.4564C9.22499 14.4564 9.22499 14.4564 9.22525 14.456C9.14023 12.2363 7.29983 10.4629 5.04159 10.4629C2.78347 10.4629 0.943078 12.2363 0.85791 14.456Z" fill="#555555"/>
<path d="M5.42191 10.4785C5.30217 10.4684 5.18111 10.4629 5.05861 10.4629C2.79129 10.4629 0.943426 12.2363 0.85791 14.4561L0.858304 14.4564C1.10763 14.4297 1.31381 14.3907 1.55331 14.3237C1.70217 12.29 3.37127 10.6519 5.42191 10.4785Z" fill="#3A4041"/>
<path d="M8.00542 7.29325V4.39813C8.00542 3.36387 7.16708 2.52539 6.13268 2.52539H2.27276C1.23851 2.52539 0.400024 3.36387 0.400024 4.39813V7.04385C0.400024 8.07811 1.23851 8.91645 2.27276 8.91645H8.90238L8.00542 7.29325Z" fill="#48DC17"/>
<path d="M6.2243 4.68761H2.1812C2.02118 4.68761 1.89136 4.55779 1.89136 4.39777C1.89136 4.23761 2.02118 4.10791 2.1812 4.10791H6.2243C6.38446 4.10791 6.51416 4.23761 6.51416 4.39777C6.51416 4.55779 6.38446 4.68761 6.2243 4.68761Z" fill="white"/>
<path d="M6.2243 6.01036H2.1812C2.02118 6.01036 1.89136 5.88068 1.89136 5.72052C1.89136 5.5605 2.02118 5.43066 2.1812 5.43066H6.2243C6.38446 5.43066 6.51416 5.5605 6.51416 5.72052C6.51416 5.88068 6.38446 6.01036 6.2243 6.01036Z" fill="white"/>
<path d="M4.70266 7.33312H2.1812C2.02118 7.33312 1.89136 7.20328 1.89136 7.04326C1.89136 6.8831 2.02118 6.75342 2.1812 6.75342H4.70266C4.86268 6.75342 4.99252 6.8831 4.99252 7.04326C4.99252 7.20328 4.86268 7.33312 4.70266 7.33312Z" fill="white"/>
<path d="M11.8287 16.7537V13.8584C11.8287 12.8242 12.6672 11.9858 13.7014 11.9858H17.5614C18.5956 11.9858 19.4341 12.8242 19.4341 13.8584V16.5042C19.4341 17.5384 18.5956 18.3769 17.5614 18.3769H10.9318L11.8287 16.7537Z" fill="#2E5BFF"/>
<path d="M17.653 14.1485H13.6099C13.4498 14.1485 13.3201 14.0187 13.3201 13.8587C13.3201 13.6985 13.4498 13.5688 13.6099 13.5688H17.653C17.8132 13.5688 17.9429 13.6985 17.9429 13.8587C17.9429 14.0187 17.813 14.1485 17.653 14.1485Z" fill="white"/>
<path d="M17.653 15.4713H13.6099C13.4498 15.4713 13.3201 15.3415 13.3201 15.1815C13.3201 15.0214 13.4498 14.8916 13.6099 14.8916H17.653C17.8132 14.8916 17.9429 15.0214 17.9429 15.1815C17.9429 15.3415 17.813 15.4713 17.653 15.4713Z" fill="white"/>
<path d="M17.8432 16.7945H15.3217C15.1617 16.7945 15.0319 16.6647 15.0319 16.5047C15.0319 16.3445 15.1617 16.2148 15.3217 16.2148H17.8432C18.0032 16.2148 18.133 16.3445 18.133 16.5047C18.133 16.6647 18.0032 16.7945 17.8432 16.7945Z" fill="white"/>
<path d="M9.72437 5.50842C9.72437 3.02246 11.7239 1 14.1816 1C16.6392 1 18.6387 3.02246 18.6387 5.50842H9.72437Z" fill="#555555"/>
<path d="M18.2917 7.2158C18.9489 7.2158 19.4817 6.68304 19.4817 6.02586C19.4817 5.36868 18.9489 4.83594 18.2917 4.83594C17.6346 4.83594 17.1018 5.36868 17.1018 6.02586C17.1018 6.68304 17.6346 7.2158 18.2917 7.2158Z" fill="#FFBD86"/>
<path d="M14.2328 10.0169C16.4964 10.0169 18.3314 8.18196 18.3314 5.91839C18.3314 3.65481 16.4964 1.81982 14.2328 1.81982C11.9693 1.81982 10.1343 3.65481 10.1343 5.91839C10.1343 8.18196 11.9693 10.0169 14.2328 10.0169Z" fill="#F9C59A"/>
<path d="M12.6583 9.60733C11.5837 8.55993 10.9091 7.04919 10.9091 5.36955C10.9091 4.89257 11.1589 3.95325 11.2614 3.51025C10.9094 3.59503 10.4319 4.33945 10.3379 4.69353C10.3249 4.74249 10.3129 4.79187 10.3017 4.84149C10.2694 4.83807 10.2348 4.83609 10.1971 4.83609C9.53992 4.83609 9.0072 5.36885 9.0072 6.02603C9.0072 6.68321 9.53994 7.21595 10.1971 7.21595C10.2959 7.21595 10.3751 7.20369 10.4389 7.18099C10.8214 8.25579 11.6296 9.13311 12.6583 9.60733Z" fill="#FFBD86"/>
<path d="M12.403 6.0623C12.3023 6.0623 12.2206 5.98064 12.2206 5.87984V5.49398C12.2206 5.3932 12.3023 5.31152 12.403 5.31152C12.5038 5.31152 12.5855 5.3932 12.5855 5.49398V5.87984C12.5855 5.9806 12.5038 6.0623 12.403 6.0623Z" fill="#555555"/>
<path d="M16.4192 6.0623C16.3184 6.0623 16.2367 5.98064 16.2367 5.87984V5.49398C16.2367 5.3932 16.3184 5.31152 16.4192 5.31152C16.5199 5.31152 16.6016 5.3932 16.6016 5.49398V5.87984C16.6016 5.9806 16.5199 6.0623 16.4192 6.0623Z" fill="#555555"/>
<path d="M14.4111 7.4469C14.1554 7.4469 13.9124 7.33618 13.7441 7.14314C13.6779 7.06716 13.6858 6.95192 13.7618 6.88572C13.8378 6.81952 13.953 6.82744 14.0193 6.90344C14.1181 7.01692 14.261 7.08202 14.4111 7.08202C14.5612 7.08202 14.704 7.01692 14.803 6.90342C14.8692 6.82746 14.9844 6.81952 15.0604 6.88572C15.1364 6.95194 15.1443 7.06718 15.0781 7.14316C14.9098 7.3362 14.6667 7.4469 14.4111 7.4469Z" fill="#555555"/>
<path d="M13.0545 2.9467C12.1938 2.74178 11.398 2.92962 11.1077 3.20286C10.8515 2.28072 13.9254 1.56348 14.0791 1.56348C14.2021 1.56348 15.9064 1.90502 16.7432 2.0758C17.0677 2.57104 17.6449 3.48978 17.358 3.20286C16.9994 2.8442 16.4105 2.75112 15.6673 2.9467C14.6939 3.20286 14.1304 3.20286 13.0545 2.9467Z" fill="#555555"/>
</svg>
