<svg width="20" height="20" viewBox="0 0 20 20" fill="none" xmlns="http://www.w3.org/2000/svg">
<path d="M9.80339 8.51148C9.85297 8.53734 10.0574 8.98552 10.203 9.31748C10.2952 9.52748 10.2486 9.77188 10.0852 9.93382L9.40427 10.609C9.24097 10.771 8.99449 10.8172 8.78271 10.7259C8.44797 10.5814 7.99599 10.3787 7.96989 10.3296L6.34535 10.7612C6.34753 10.8167 6.05831 11.2164 5.84127 11.5074C5.70391 11.6916 5.46717 11.7737 5.24407 11.7144L4.31385 11.4673C4.09079 11.408 3.92715 11.2194 3.90109 10.9919C3.85983 10.6323 3.81089 10.1428 3.84077 10.0958L2.65153 8.91648C2.60415 8.94612 2.11053 8.89758 1.74782 8.85668C1.51833 8.8308 1.32818 8.66858 1.26842 8.44734L1.01917 7.52496C0.959401 7.30372 1.04225 7.06896 1.22796 6.93278C1.52145 6.71752 1.92448 6.43072 1.98046 6.43292L2.41577 4.82204C2.36619 4.79616 2.16177 4.34798 2.01613 4.01604C1.92399 3.80604 1.97062 3.56164 2.13389 3.3997L2.81485 2.72448C2.97817 2.56252 3.22465 2.5163 3.43641 2.60766C3.77115 2.75208 4.22313 2.95478 4.24925 3.00394L5.87377 2.57232C5.87159 2.51682 6.16081 2.11716 6.37787 1.82614C6.51521 1.642 6.75195 1.55984 6.97507 1.6191L7.90527 1.86626C8.12835 1.92552 8.29197 2.11408 8.31807 2.34164C8.35933 2.7013 8.40827 3.19076 8.37839 3.23776L9.56763 4.417C9.61501 4.38734 10.1086 4.4359 10.4714 4.4768C10.7008 4.5027 10.891 4.6649 10.9508 4.88612L11.2 5.8085C11.2598 6.0297 11.1769 6.26448 10.9912 6.40068C10.6977 6.61594 10.2947 6.90272 10.2387 6.90052L9.80339 8.51148ZM7.18137 5.60396C6.58943 5.01702 5.62969 5.01702 5.03777 5.60396C4.44583 6.19092 4.44583 7.1426 5.03777 7.72956C5.62969 8.3165 6.58943 8.3165 7.18137 7.72956C7.77329 7.1426 7.77329 6.19092 7.18137 5.60396Z" fill="#A2DDFD"/>
<path d="M9.80339 8.51148C9.85297 8.53734 10.0574 8.98552 10.203 9.31748C10.2952 9.52748 10.2486 9.77188 10.0852 9.93382L9.40427 10.609C9.24097 10.771 8.99449 10.8172 8.78271 10.7259C8.44797 10.5814 7.99599 10.3787 7.96989 10.3296L6.34535 10.7612C6.34753 10.8167 6.05831 11.2164 5.84127 11.5074C5.70391 11.6916 5.46717 11.7737 5.24407 11.7144L4.31385 11.4673C4.09079 11.408 3.92715 11.2194 3.90109 10.9919C3.85983 10.6323 3.81089 10.1428 3.84077 10.0958L2.65153 8.91648C2.60415 8.94612 2.11053 8.89758 1.74782 8.85668C1.51833 8.8308 1.32818 8.66858 1.26842 8.44734L1.01917 7.52496C0.959401 7.30372 1.04225 7.06896 1.22796 6.93278C1.52145 6.71752 1.92448 6.43072 1.98046 6.43292L2.41577 4.82204C2.36619 4.79616 2.16177 4.34798 2.01613 4.01604C1.92399 3.80604 1.97062 3.56164 2.13389 3.3997L2.81485 2.72448C2.97817 2.56252 3.22465 2.5163 3.43641 2.60766C3.77115 2.75208 4.22313 2.95478 4.24925 3.00394L5.87377 2.57232C5.87159 2.51682 6.16081 2.11716 6.37787 1.82614C6.51521 1.642 6.75195 1.55984 6.97507 1.6191L7.90527 1.86626C8.12835 1.92552 8.29197 2.11408 8.31807 2.34164C8.35933 2.7013 8.40827 3.19076 8.37839 3.23776L9.56763 4.417C9.61501 4.38734 10.1086 4.4359 10.4714 4.4768C10.7008 4.5027 10.891 4.6649 10.9508 4.88612L11.2 5.8085C11.2598 6.0297 11.1769 6.26448 10.9912 6.40068C10.6977 6.61594 10.2947 6.90272 10.2387 6.90052L9.80339 8.51148ZM7.18137 5.60396C6.58943 5.01702 5.62969 5.01702 5.03777 5.60396C4.44583 6.19092 4.44583 7.1426 5.03777 7.72956C5.62969 8.3165 6.58943 8.3165 7.18137 7.72956C7.77329 7.1426 7.77329 6.19092 7.18137 5.60396Z" fill="#646363"/>
<path d="M9.4043 10.6092L9.8143 10.2027C3.18086 9.39033 3.81428 4.60151 4.67044 2.89221L4.24924 3.00413C4.22314 2.95497 3.7712 2.75227 3.43642 2.60785C3.22464 2.51649 2.97816 2.56273 2.81486 2.72467L2.1339 3.39985C1.97059 3.56179 1.92399 3.80621 2.01614 4.01621C2.16178 4.34813 2.3662 4.79631 2.41578 4.82219L1.98047 6.43309C1.92448 6.43091 1.52148 6.71771 1.22796 6.93297C1.04225 7.06915 0.959402 7.30391 1.01917 7.52515L1.26842 8.44753C1.32818 8.66877 1.51836 8.83099 1.74782 8.85687C2.11054 8.89777 2.60414 8.94631 2.65154 8.91669L3.84076 10.0959C3.81088 10.1429 3.85984 10.6324 3.90108 10.9921C3.9272 11.2196 4.09078 11.4082 4.31386 11.4674L5.24406 11.7146C5.46714 11.7738 5.70392 11.6917 5.84126 11.5075C6.05834 11.2165 6.34756 10.8169 6.34538 10.7614L7.96992 10.3297C7.99602 10.3789 8.44796 10.5816 8.78274 10.726C8.99452 10.8174 9.241 10.7712 9.4043 10.6092Z" fill="#555555"/>
<path d="M17.5704 15.8278C17.6284 15.8537 17.8466 16.3954 17.9899 16.7669C18.069 16.9722 18.0191 17.2042 17.8623 17.3596L16.858 18.3555C16.7013 18.5109 16.4673 18.5604 16.2603 18.4819C15.8857 18.3398 15.3394 18.1235 15.3132 18.066L13.246 18.3907C13.2391 18.4534 12.787 18.8265 12.4749 19.0764C12.3025 19.2146 12.0645 19.2391 11.8671 19.1393L10.6016 18.4999C10.4041 18.4002 10.2842 18.1948 10.2956 17.9753C10.3161 17.5781 10.3547 16.9961 10.4018 16.9537L9.4516 15.1045C9.3893 15.1173 8.89174 14.8062 8.55562 14.5892C8.36988 14.4693 8.2728 14.2524 8.30748 14.0353L8.52964 12.6443C8.56432 12.4273 8.72424 12.2508 8.93822 12.1937C9.32556 12.0903 9.89568 11.9469 9.95098 11.9781L11.4309 10.5106C11.3994 10.4558 11.544 9.89047 11.6483 9.50639C11.7059 9.29419 11.8839 9.13563 12.1028 9.10121L13.5056 8.88091C13.7245 8.84653 13.9432 8.94281 14.0641 9.12695C14.283 9.46029 14.5967 9.95365 14.5838 10.0154L16.4487 10.9576C16.4915 10.9109 17.0784 10.8726 17.479 10.8523C17.7003 10.841 17.9074 10.9599 18.008 11.1557L18.6528 12.4105C18.7534 12.6063 18.7287 12.8423 18.5894 13.0133C18.3374 13.3227 17.9611 13.771 17.8979 13.7779L17.5704 15.8278ZM14.5929 13.2029C14.0608 12.6754 13.1982 12.6754 12.6661 13.2029C12.1341 13.7305 12.1341 14.5859 12.6661 15.1135C13.1982 15.6411 14.0608 15.6411 14.5929 15.1135C15.125 14.5859 15.125 13.7305 14.5929 13.2029Z" fill="#2E5BFF"/>
<path d="M16.2602 18.4822C16.4672 18.5607 16.7012 18.5111 16.8579 18.3557L17.2514 17.9656C11.1428 17.2342 10.7442 12.4429 11.3227 10.6182L9.9509 11.9784C9.89564 11.9471 9.32548 12.0905 8.93816 12.1939C8.72416 12.2511 8.56424 12.4275 8.52954 12.6446L8.30736 14.0356C8.2727 14.2527 8.36976 14.4695 8.5555 14.5895C8.89166 14.8065 9.3892 15.1176 9.4515 15.1048L10.4017 16.9539C10.3546 16.9964 10.3159 17.5784 10.2955 17.9756C10.2841 18.1951 10.404 18.4004 10.6015 18.5002L11.8669 19.1396C12.0644 19.2393 12.3024 19.2148 12.4748 19.0767C12.7869 18.8268 13.2389 18.4537 13.2459 18.391L15.3131 18.0663C15.3393 18.1238 15.8856 18.3401 16.2602 18.4822Z" fill="#0033CC"/>
<path d="M16.2737 14.1581C16.2737 12.71 15.0898 11.5361 13.6295 11.5361C12.1692 11.5361 10.9854 12.71 10.9854 14.1581C10.9854 15.6061 12.1692 16.78 13.6295 16.78C15.0898 16.78 16.2737 15.6061 16.2737 14.1581ZM12.7652 13.301C13.2426 12.8277 14.0165 12.8277 14.4938 13.301C14.9712 13.7743 14.9712 14.5417 14.4938 15.0151C14.0165 15.4884 13.2426 15.4884 12.7652 15.0151C12.2879 14.5417 12.2879 13.7744 12.7652 13.301Z" fill="#48DC17"/>
<path d="M6.10958 9.33581C7.59632 9.33581 8.80158 8.14069 8.80158 6.66643C8.80158 5.19219 7.59632 3.99707 6.10958 3.99707C4.62284 3.99707 3.4176 5.19219 3.4176 6.66643C3.4176 8.14069 4.62284 9.33581 6.10958 9.33581ZM5.19834 5.76283C5.70164 5.26377 6.51758 5.26377 7.02086 5.76283C7.52414 6.26187 7.52414 7.07097 7.02086 7.57003C6.51758 8.06907 5.70164 8.06907 5.19834 7.57003C4.69506 7.07097 4.69506 6.26185 5.19834 5.76283Z" fill="#FFF500"/>
<path d="M17.7105 5.76528C17.7443 5.7769 17.8452 6.05234 17.9241 6.2834C17.9887 6.47226 17.9398 6.68098 17.7976 6.822L17.1261 7.48784C16.9839 7.62884 16.7734 7.67732 16.583 7.61332C16.3499 7.53496 16.0722 7.43498 16.0604 7.40146H14.5002C14.4885 7.435 14.2107 7.535 13.9776 7.61332C13.7872 7.67732 13.5767 7.62884 13.4345 7.48784L12.763 6.822C12.6208 6.68098 12.5719 6.47226 12.6364 6.2834C12.7154 6.05234 12.8163 5.7769 12.8501 5.76528V4.21812C12.8163 4.2065 12.7154 3.93106 12.6364 3.69998C12.5719 3.51112 12.6208 3.3024 12.763 3.1614L13.4345 2.49554C13.5767 2.35454 13.7872 2.30608 13.9776 2.37008C14.2106 2.44842 14.4884 2.54842 14.5002 2.58194H16.0604C16.0722 2.54838 16.3499 2.44838 16.583 2.37008C16.7734 2.30608 16.9839 2.35454 17.1261 2.49554L17.7976 3.1614C17.9398 3.3024 17.9887 3.51112 17.9241 3.69998C17.8451 3.93106 17.7443 4.2065 17.7105 4.21812V5.76528ZM15.9856 4.29234C15.5961 3.9061 14.9645 3.9061 14.575 4.29234C14.1855 4.67858 14.1855 5.30482 14.575 5.69106C14.9645 6.0773 15.5961 6.0773 15.9856 5.69106C16.3751 5.30478 16.3751 4.67858 15.9856 4.29234Z" fill="#A7A7A7"/>
<path d="M17.1262 7.48858L17.4159 7.20134C13.3383 7.28656 13.1571 3.87546 14.1986 2.44744L13.8842 2.34878C13.721 2.32514 13.5538 2.378 13.4346 2.49626L12.7631 3.1621C12.6209 3.3031 12.572 3.51184 12.6366 3.7007C12.7156 3.93176 12.8164 4.2072 12.8502 4.21882V5.76598C12.8164 5.7776 12.7155 6.05304 12.6366 6.28412C12.572 6.47298 12.6209 6.6817 12.7631 6.8227L13.4346 7.48856C13.5768 7.62956 13.7873 7.67802 13.9777 7.61402C14.2108 7.53568 14.4885 7.43572 14.5003 7.40216H16.0606C16.0723 7.43572 16.3501 7.53572 16.5831 7.61402C16.7735 7.6781 16.984 7.6296 17.1262 7.48858Z" fill="#8B97A5"/>
<path d="M4.16346 4.82373C3.70172 5.30295 3.4176 5.95185 3.4176 6.66691C3.4176 8.14115 4.62284 9.33627 6.10958 9.33627C6.28868 9.33627 6.46356 9.31853 6.63288 9.28543C4.52866 8.16371 4.0494 6.33203 4.16346 4.82373Z" fill="#F3D752"/>
<path d="M11.2253 13.0669C11.0716 13.3993 10.9852 13.7687 10.9852 14.1583C10.9852 15.6064 12.169 16.7802 13.6294 16.7802C13.6487 16.7802 13.6677 16.7792 13.687 16.7788C12.1529 15.7837 11.4577 14.3601 11.2253 13.0669Z" fill="#33CC00"/>
</svg>
