<svg width="24" height="24" viewBox="0 0 24 24" fill="none" xmlns="http://www.w3.org/2000/svg">
<path d="M21.1875 0H2.8125C1.26169 0 0 1.26169 0 2.8125V6.5625H1.875V2.8125C1.875 2.29556 2.29556 1.875 2.8125 1.875H21.1875C21.7044 1.875 22.125 2.29556 22.125 2.8125V21.1875C22.125 21.7044 21.7044 22.125 21.1875 22.125H2.8125C2.29556 22.125 1.875 21.7044 1.875 21.1875V17.4375H0V21.1875C0 22.7383 1.26169 24 2.8125 24H21.1875C22.7383 24 24 22.7383 24 21.1875V2.8125C24 1.26169 22.7383 0 21.1875 0Z" fill="#0033CC"/>
<path d="M11.25 6.17419L9.92419 7.50001L13.4867 11.0625H0V12.9375H13.4867L9.92419 16.5L11.25 17.8258L17.0758 12L11.25 6.17419Z" fill="#0033CC"/>
</svg>
