<svg width="18" height="18" viewBox="0 0 18 18" fill="none" xmlns="http://www.w3.org/2000/svg">
<g clip-path="url(#clip0)">
<path d="M10.8374 3.37329C11.0316 3.37329 11.189 3.21589 11.189 3.02173C11.189 2.82757 11.0316 2.67017 10.8374 2.67017C10.6432 2.67017 10.4858 2.82757 10.4858 3.02173C10.4858 3.21589 10.6432 3.37329 10.8374 3.37329Z" fill="#555555"/>
<path d="M17.8973 14.8827L13.1353 10.1207C12.9981 9.98346 12.7755 9.98346 12.6381 10.1207L12.5 10.2589L12.0029 9.76162L12.141 9.62356C12.2783 9.48628 12.2783 9.26367 12.141 9.12635L11.1466 8.13199C11.0093 7.99471 10.7867 7.99471 10.6494 8.13199L10.5113 8.27012L10.0034 7.76201L11.5865 6.17892C11.7305 6.25064 11.8901 6.28882 12.0557 6.28882C12.3374 6.28882 12.6023 6.1791 12.8015 5.9799C13.2127 5.56868 13.2127 4.89955 12.8015 4.48833L12.2049 3.89169C12.0676 3.75441 11.845 3.75441 11.7077 3.89169C11.5704 4.02898 11.5704 4.25158 11.7077 4.38891L12.3043 4.98554C12.4414 5.12262 12.4414 5.34565 12.3043 5.48272C12.2379 5.54913 12.1496 5.58569 12.0557 5.58569C11.9618 5.58569 11.8735 5.54913 11.8071 5.48272L8.37653 2.05214C8.23945 1.91507 8.23945 1.69203 8.37653 1.55496C8.51357 1.41789 8.7366 1.41785 8.87371 1.55496L9.47034 2.15156C9.60763 2.28885 9.83024 2.28885 9.96752 2.15156C10.1048 2.01428 10.1048 1.79167 9.96749 1.65438L9.37089 1.05778C8.95966 0.646593 8.29053 0.646593 7.87931 1.05778C7.55123 1.38589 7.48521 1.87801 7.68064 2.27246L3.02212 6.93112C2.62767 6.73569 2.13552 6.80171 1.80744 7.12979C1.39622 7.54101 1.39622 8.21011 1.80744 8.62137V8.62133L5.23802 12.0519C5.44362 12.2575 5.71372 12.3603 5.98379 12.3603C6.25386 12.3603 6.52397 12.2575 6.72956 12.0519C7.05764 11.7238 7.12366 11.2317 6.92823 10.8372L8.5117 9.25376L9.01982 9.76166L8.88165 9.89982C8.74437 10.0371 8.74437 10.2597 8.88165 10.397L9.87601 11.3914C9.94467 11.4601 10.0346 11.4944 10.1246 11.4944C10.2146 11.4944 10.3046 11.4601 10.3732 11.3914L10.5113 11.2533L11.0085 11.7504L10.8704 11.8885C10.7331 12.0258 10.7331 12.2484 10.8704 12.3858L15.6323 17.1477C15.7009 17.2163 15.7909 17.2506 15.8809 17.2506C15.9708 17.2506 16.0608 17.2163 16.1295 17.1477L17.8973 15.3799C18.0345 15.2426 18.0345 15.02 17.8973 14.8827ZM3.55843 7.38921L8.1388 2.80881L11.0505 5.72052L6.47014 10.3009L3.55843 7.38921ZM6.23238 11.5547C6.09531 11.6918 5.87228 11.6918 5.7352 11.5547L2.30462 8.12415C2.16755 7.98708 2.16755 7.76405 2.30462 7.62697C2.37314 7.55842 2.46317 7.52417 2.55321 7.52417C2.64324 7.52417 2.73328 7.55845 2.8018 7.62697L6.23238 11.0576C6.36946 11.1946 6.36946 11.4177 6.23238 11.5547ZM9.00888 8.75658L9.5062 8.25929L10.0141 8.7674L9.517 9.26451L9.00888 8.75658ZM9.62742 10.1484L10.898 8.87783L11.3952 9.37501L10.1246 10.6456L9.62742 10.1484ZM11.0085 10.7561L11.5058 10.2588L12.0029 10.7561L11.5057 11.2532L11.0085 10.7561ZM15.8809 16.4019L11.6161 12.1372L12.8868 10.8666L17.1515 15.1313L15.8809 16.4019Z" fill="#555555"/>
<path d="M9.84375 15.1412H9.68034L8.73003 13.7158C8.66486 13.618 8.55506 13.5592 8.43754 13.5592H1.75781C1.64025 13.5592 1.53049 13.618 1.46531 13.7158L0.515004 15.1412H0.351562C0.157395 15.1412 0 15.2986 0 15.4928V16.899C0 17.0932 0.157395 17.2506 0.351562 17.2506H9.84375C10.0379 17.2506 10.1953 17.0932 10.1953 16.899V15.4928C10.1953 15.2986 10.0379 15.1412 9.84375 15.1412ZM1.94597 14.2623H8.24934L8.83529 15.1412H1.36002L1.94597 14.2623ZM9.49219 16.5475H0.703125V15.8444H9.49219V16.5475Z" fill="#555555"/>
</g>
<defs>
<clipPath id="clip0">
<rect width="18" height="18" fill="white"/>
</clipPath>
</defs>
</svg>
