<svg width="60" height="60" viewBox="0 0 60 60" fill="none" xmlns="http://www.w3.org/2000/svg">
<path d="M56.6721 51.7242H3.32793C1.48966 51.7242 0 50.2345 0 48.3962V11.6038C0 9.76553 1.48966 8.27588 3.32793 8.27588H56.6721C58.5103 8.27588 60 9.76553 60 11.6038V48.3962C60 50.2345 58.5103 51.7242 56.6721 51.7242Z" fill="#E7ECED"/>
<path d="M54.8276 25.8621H34.1379V46.5517H54.8276V25.8621Z" fill="#424A60"/>
<path d="M49.439 43.5435L46.8414 42.2162C46.6634 42.1262 46.5517 41.9431 46.5517 41.7445V40.949C47.8852 40.3749 48.6517 39.2587 49.0241 37.8631C49.5859 37.6894 49.9997 37.169 49.9997 36.5514V35.8614C49.9997 35.3328 49.6955 34.8776 49.2569 34.6459C48.9528 32.0525 47.2386 31.0035 44.4828 31.0035C44.3524 31.0035 44.2241 31.0087 44.099 31.019C43.1628 31.0935 42.2152 30.9176 41.4362 30.3921C41.1124 30.1738 40.8393 29.9421 40.6479 29.699C40.561 29.5883 40.3852 29.6587 40.4017 29.7993C40.4297 30.0404 40.47 30.3218 40.531 30.63C40.7586 31.7752 40.6231 31.6076 40.1803 32.6887C39.9352 33.2856 39.7779 33.9487 39.7045 34.6511C39.2679 34.8838 38.9659 35.338 38.9659 35.8645V36.5545C38.9659 37.1721 39.3797 37.6914 39.9414 37.8662C40.3138 39.2618 41.0803 40.378 42.4138 40.9521V41.7414C42.4138 41.9431 42.299 42.1283 42.1179 42.2173L39.4552 43.529C38.7279 43.9252 38.2759 44.6876 38.2759 45.5152V46.1473C38.2759 46.1473 38.2759 46.3325 38.2759 46.4297C38.2759 46.4731 38.2872 46.5145 38.3048 46.5549H50.6617C50.6783 46.5114 50.6897 46.469 50.6897 46.4266C50.6897 46.3293 50.6897 46.1442 50.6897 46.1442V45.568C50.6897 44.7104 50.2055 43.9273 49.439 43.5435Z" fill="white"/>
<path d="M60 13.4482H0V21.7241H60V13.4482Z" fill="#38454F"/>
<path d="M14.4828 26.8965H5.17241C4.60035 26.8965 4.13793 27.3589 4.13793 27.931C4.13793 28.503 4.60035 28.9655 5.17241 28.9655H14.4828C15.0548 28.9655 15.5172 28.503 15.5172 27.931C15.5172 27.3589 15.0548 26.8965 14.4828 26.8965Z" fill="#AFB6BB"/>
<path d="M28.9655 27.931C28.9655 27.3589 28.5031 26.8965 27.931 26.8965H18.6207C18.0486 26.8965 17.5862 27.3589 17.5862 27.931C17.5862 28.503 18.0486 28.9655 18.6207 28.9655H27.931C28.5031 28.9655 28.9655 28.503 28.9655 27.931Z" fill="#AFB6BB"/>
<path d="M6.2069 32.0688H5.17241C4.60035 32.0688 4.13793 32.5313 4.13793 33.1033C4.13793 33.6754 4.60035 34.1378 5.17241 34.1378H6.2069C6.77897 34.1378 7.24138 33.6754 7.24138 33.1033C7.24138 32.5313 6.77897 32.0688 6.2069 32.0688Z" fill="#AFB6BB"/>
<path d="M12.4138 32.0688H10.3448C9.77276 32.0688 9.31034 32.5313 9.31034 33.1033C9.31034 33.6754 9.77276 34.1378 10.3448 34.1378H12.4138C12.9859 34.1378 13.4483 33.6754 13.4483 33.1033C13.4483 32.5313 12.9859 32.0688 12.4138 32.0688Z" fill="#AFB6BB"/>
<path d="M17.5862 32.0688H16.5517C15.9797 32.0688 15.5172 32.5313 15.5172 33.1033C15.5172 33.6754 15.9797 34.1378 16.5517 34.1378H17.5862C18.1583 34.1378 18.6207 33.6754 18.6207 33.1033C18.6207 32.5313 18.1583 32.0688 17.5862 32.0688Z" fill="#AFB6BB"/>
<path d="M23.7931 32.0688H21.7241C21.1521 32.0688 20.6897 32.5313 20.6897 33.1033C20.6897 33.6754 21.1521 34.1378 21.7241 34.1378H23.7931C24.3652 34.1378 24.8276 33.6754 24.8276 33.1033C24.8276 32.5313 24.3652 32.0688 23.7931 32.0688Z" fill="#AFB6BB"/>
<path d="M27.1966 32.3689C27.0093 32.5644 26.8966 32.823 26.8966 33.1033C26.8966 33.3826 27.0093 33.6413 27.1966 33.8378C27.3921 34.024 27.6621 34.1378 27.931 34.1378C28.2 34.1378 28.469 34.024 28.6655 33.8378C28.8517 33.6413 28.9655 33.3723 28.9655 33.1033C28.9655 32.8344 28.8517 32.5644 28.6655 32.3689C28.2828 31.9861 27.5793 31.9861 27.1966 32.3689Z" fill="#AFB6BB"/>
<path d="M11.0183 37.6551C8.75173 38.8345 7.98931 41.0896 7.71207 43.4296C7.28379 43.0717 6.85655 42.7127 6.42828 42.3538C5.41345 41.5034 3.94138 42.9589 4.96552 43.8165C5.93276 44.6265 6.90104 45.4375 7.86828 46.2486C8.55207 46.8227 9.60207 46.4669 9.63414 45.5172C9.70966 43.2755 9.81724 40.6107 12.0631 39.4417C13.2466 38.8262 12.2007 37.0407 11.0183 37.6551Z" fill="#7383BF"/>
<path d="M26.7041 41.91C26.2666 41.311 25.8155 40.8103 25.0159 40.7503C23.5086 40.6366 20.9214 42.7935 19.8517 40.8869C19.5807 40.4028 18.9103 40.2248 18.4366 40.5155C16.9717 41.4145 15.0569 42.7076 13.5166 41.0328C12.6114 40.049 11.1517 41.5159 12.0538 42.4955C13.9893 44.5986 16.4855 43.9541 18.6817 42.7635C19.1452 43.261 19.6997 43.6014 20.4372 43.8672C21.3776 44.2066 24.6652 42.6052 24.9197 42.9538C25.6955 44.0204 27.4924 42.99 26.7041 41.91Z" fill="#7383BF"/>
</svg>
