<svg width="18" height="18" viewBox="0 0 18 18" fill="none" xmlns="http://www.w3.org/2000/svg">
<path d="M0.527344 18H10.0898C10.3811 18 10.6172 17.7639 10.6172 17.4727V16.9102C10.6172 16.3276 10.1451 15.8555 9.5625 15.8555V15.225C9.5625 14.3902 8.88327 13.7109 8.04845 13.7109H2.56874C1.73392 13.7109 1.05469 14.3902 1.05469 15.225V15.8555C0.472137 15.8555 0 16.3276 0 16.9102V17.4727C0 17.7638 0.236206 18 0.527344 18Z" fill="#999999"/>
<path d="M6.60098 11.614C6.95144 12.0792 7.61282 12.1721 8.07795 11.8215C8.54323 11.4711 8.63606 10.8097 8.2856 10.3444L5.11192 6.13293C4.76132 5.66766 4.10008 5.57483 3.63495 5.92529C3.16967 6.27589 3.0767 6.93714 3.4273 7.40241L6.60098 11.614Z" fill="#999999"/>
<path d="M14.1809 5.90104C14.5315 6.36618 15.1928 6.45915 15.658 6.10855C16.1232 5.75808 16.2161 5.09684 15.8655 4.63157L12.6919 0.420102C12.3414 -0.0451691 11.68 -0.138141 11.2149 0.21246C10.7498 0.563061 10.6568 1.2243 11.0074 1.68957L14.1809 5.90104Z" fill="#999999"/>
<path d="M11.8671 8.96558C12.6466 8.37822 13.2318 7.64886 13.5977 6.88092L9.90497 1.98047C9.06589 2.12068 8.2036 2.48199 7.42398 3.06949C6.6445 3.65685 6.05934 4.3862 5.69336 5.15401L9.38614 10.0547C10.2252 9.91452 11.0875 9.55307 11.8671 8.96558Z" fill="#999999"/>
<path d="M13.2919 9.10156C13.0464 9.35178 12.7878 9.59169 12.5027 9.80661C12.2174 10.0214 11.9155 10.2039 11.6074 10.371L12.295 11.2836L13.9796 10.0143L13.2919 9.10156Z" fill="#999999"/>
<path d="M14.6143 10.8574L12.9297 12.1268L16.1034 16.3384C16.454 16.8036 17.1152 16.8965 17.5804 16.546C18.0456 16.1954 18.1385 15.5342 17.788 15.0689L14.6143 10.8574Z" fill="#999999"/>
</svg>
