<svg width="271" height="31" viewBox="0 0 271 31" fill="none" xmlns="http://www.w3.org/2000/svg">
<path d="M154.723 23.714V20.384C155.167 20.3 155.515 20.036 155.767 19.592C156.019 19.136 156.223 18.302 156.379 17.09L156.937 12.806H162.985V20.312H163.993V23.714H162.643V21.5H156.073V23.714H154.723ZM158.125 13.994L157.729 17.252C157.525 18.776 157.105 19.796 156.469 20.312H161.635V13.994H158.125ZM164.813 21.716V20.6C165.221 20.6 165.557 20.33 165.821 19.79C166.085 19.25 166.301 18.35 166.469 17.09L167.027 12.806H173.075V21.5H171.725V13.994H168.215L167.819 17.252C167.627 18.848 167.291 19.994 166.811 20.69C166.331 21.374 165.665 21.716 164.813 21.716ZM177.067 21.5H175.483L177.805 18.08C177.145 17.996 176.605 17.72 176.185 17.252C175.777 16.784 175.573 16.19 175.573 15.47C175.573 14.702 175.819 14.066 176.311 13.562C176.803 13.058 177.475 12.806 178.327 12.806H182.917V21.5H181.567V18.134H179.191L177.067 21.5ZM178.471 16.946H181.567V13.994H178.471C178.003 13.994 177.631 14.132 177.355 14.408C177.091 14.672 176.959 15.026 176.959 15.47C176.959 15.914 177.091 16.274 177.355 16.55C177.619 16.814 177.991 16.946 178.471 16.946ZM197.041 21.5H195.691V20.51C194.959 21.314 193.999 21.716 192.811 21.716C192.007 21.716 191.299 21.458 190.687 20.942C190.075 20.426 189.769 19.724 189.769 18.836C189.769 17.924 190.069 17.222 190.669 16.73C191.281 16.226 191.995 15.974 192.811 15.974C194.047 15.974 195.007 16.37 195.691 17.162V15.596C195.691 15.02 195.487 14.57 195.079 14.246C194.671 13.922 194.143 13.76 193.495 13.76C192.475 13.76 191.587 14.162 190.831 14.966L190.201 14.03C191.125 13.07 192.283 12.59 193.675 12.59C194.671 12.59 195.481 12.83 196.105 13.31C196.729 13.79 197.041 14.528 197.041 15.524V21.5ZM193.297 20.744C194.377 20.744 195.175 20.384 195.691 19.664V18.026C195.175 17.306 194.377 16.946 193.297 16.946C192.673 16.946 192.157 17.126 191.749 17.486C191.353 17.834 191.155 18.29 191.155 18.854C191.155 19.406 191.353 19.862 191.749 20.222C192.157 20.57 192.673 20.744 193.297 20.744ZM204.625 21.5H199.747V12.806H204.535C205.291 12.806 205.885 13.01 206.317 13.418C206.761 13.826 206.983 14.366 206.983 15.038C206.983 15.53 206.845 15.956 206.569 16.316C206.305 16.664 205.975 16.898 205.579 17.018C206.023 17.126 206.395 17.384 206.695 17.792C207.007 18.2 207.163 18.65 207.163 19.142C207.163 19.85 206.935 20.42 206.479 20.852C206.035 21.284 205.417 21.5 204.625 21.5ZM204.355 20.312C204.787 20.312 205.129 20.192 205.381 19.952C205.633 19.712 205.759 19.388 205.759 18.98C205.759 18.608 205.633 18.29 205.381 18.026C205.129 17.762 204.787 17.63 204.355 17.63H201.097V20.312H204.355ZM204.301 16.442C204.709 16.442 205.027 16.334 205.255 16.118C205.483 15.89 205.597 15.596 205.597 15.236C205.597 14.852 205.483 14.552 205.255 14.336C205.027 14.108 204.709 13.994 204.301 13.994H201.097V16.442H204.301ZM212.648 21.5H211.298V13.994H208.778V12.806H215.186V13.994H212.648V21.5ZM223.868 20.402C223.088 21.278 222.05 21.716 220.754 21.716C219.458 21.716 218.414 21.278 217.622 20.402C216.842 19.526 216.452 18.44 216.452 17.144C216.452 15.848 216.842 14.768 217.622 13.904C218.414 13.028 219.458 12.59 220.754 12.59C222.05 12.59 223.088 13.028 223.868 13.904C224.66 14.768 225.056 15.848 225.056 17.144C225.056 18.44 224.66 19.526 223.868 20.402ZM218.63 19.538C219.158 20.186 219.866 20.51 220.754 20.51C221.642 20.51 222.344 20.186 222.86 19.538C223.376 18.878 223.634 18.08 223.634 17.144C223.634 16.208 223.376 15.416 222.86 14.768C222.344 14.12 221.642 13.796 220.754 13.796C219.866 13.796 219.158 14.126 218.63 14.786C218.114 15.434 217.856 16.22 217.856 17.144C217.856 18.08 218.114 18.878 218.63 19.538ZM237.301 12.806H238.651V21.5H227.257V12.806H228.607V20.312H232.279V12.806H233.629V20.312H237.301V12.806ZM249.005 21.5H247.277L244.145 17.594L242.705 19.016V21.5H241.355V12.806H242.705V17.432L247.277 12.806H248.987L245.135 16.748L249.005 21.5ZM257.46 20.402C256.68 21.278 255.642 21.716 254.346 21.716C253.05 21.716 252.006 21.278 251.214 20.402C250.434 19.526 250.044 18.44 250.044 17.144C250.044 15.848 250.434 14.768 251.214 13.904C252.006 13.028 253.05 12.59 254.346 12.59C255.642 12.59 256.68 13.028 257.46 13.904C258.252 14.768 258.648 15.848 258.648 17.144C258.648 18.44 258.252 19.526 257.46 20.402ZM252.222 19.538C252.75 20.186 253.458 20.51 254.346 20.51C255.234 20.51 255.936 20.186 256.452 19.538C256.968 18.878 257.226 18.08 257.226 17.144C257.226 16.208 256.968 15.416 256.452 14.768C255.936 14.12 255.234 13.796 254.346 13.796C253.458 13.796 252.75 14.126 252.222 14.786C251.706 15.434 251.448 16.22 251.448 17.144C251.448 18.08 251.706 18.878 252.222 19.538ZM259.823 21.716V20.6C260.231 20.6 260.567 20.33 260.831 19.79C261.095 19.25 261.311 18.35 261.479 17.09L262.037 12.806H268.085V21.5H266.735V13.994H263.225L262.829 17.252C262.637 18.848 262.301 19.994 261.821 20.69C261.341 21.374 260.675 21.716 259.823 21.716Z" fill="black"/>
<path d="M89.3838 0.5H91.9165L101.556 23.1964H98.4082L96.0968 17.6145H84.7609L82.4249 23.1964H79.3757L89.3838 0.5ZM90.5887 3.96716H90.5149L85.8183 15.1063H95.0886L90.5887 3.96716Z" fill="black"/>
<path d="M103.99 8.19795H106.498V10.3864H106.572C107.26 9.57498 108.047 8.93564 108.957 8.49303C109.867 8.05041 110.875 7.8291 111.957 7.8291C113.137 7.8291 114.195 8.02582 115.178 8.41926C116.162 8.81269 116.973 9.35367 117.662 10.0668C118.35 10.7799 118.891 11.6159 119.26 12.5749C119.629 13.5339 119.826 14.5913 119.826 15.7224C119.826 16.8536 119.629 17.9109 119.26 18.8699C118.867 19.8289 118.35 20.665 117.662 21.3781C116.998 22.0912 116.186 22.6322 115.277 23.0256C114.367 23.419 113.383 23.6157 112.326 23.6157C110.973 23.6157 109.793 23.3207 108.785 22.7305C107.777 22.1404 107.039 21.4273 106.547 20.5666H106.473V30.5009H103.965V8.19795H103.99ZM106.498 15.6978C106.498 16.4847 106.621 17.2224 106.867 17.8863C107.113 18.5502 107.482 19.1404 107.949 19.6568C108.416 20.1486 108.982 20.5666 109.621 20.8371C110.26 21.1322 110.998 21.2797 111.809 21.2797C112.621 21.2797 113.359 21.1322 113.998 20.8371C114.662 20.542 115.203 20.1486 115.67 19.6568C116.137 19.165 116.506 18.5748 116.752 17.8863C116.998 17.2224 117.121 16.4847 117.121 15.6978C117.121 14.911 116.998 14.1733 116.752 13.5093C116.506 12.8454 116.137 12.2553 115.67 11.7389C115.203 11.2471 114.637 10.8291 113.998 10.5586C113.334 10.2635 112.621 10.116 111.809 10.116C110.998 10.116 110.26 10.2635 109.621 10.5586C108.957 10.8536 108.416 11.2471 107.949 11.7389C107.482 12.2307 107.113 12.8208 106.867 13.5093C106.621 14.1733 106.498 14.911 106.498 15.6978Z" fill="black"/>
<path d="M123.564 8.19795H126.072V10.3864H126.146C126.834 9.57498 127.621 8.93564 128.531 8.49303C129.441 8.05041 130.449 7.8291 131.531 7.8291C132.711 7.8291 133.768 8.02582 134.752 8.41926C135.736 8.81269 136.547 9.35367 137.236 10.0668C137.924 10.7799 138.465 11.6159 138.834 12.5749C139.227 13.5339 139.399 14.5913 139.399 15.7224C139.399 16.8536 139.203 17.9109 138.834 18.8699C138.44 19.8289 137.924 20.665 137.236 21.3781C136.572 22.0912 135.76 22.6322 134.85 23.0256C133.941 23.419 132.957 23.6157 131.9 23.6157C130.547 23.6157 129.367 23.3207 128.359 22.7305C127.35 22.1404 126.613 21.4273 126.121 20.5666H126.047V30.5009H123.539V8.19795H123.564ZM126.072 15.6978C126.072 16.4847 126.195 17.2224 126.441 17.8863C126.687 18.5502 127.055 19.1404 127.523 19.6568C127.99 20.1486 128.555 20.5666 129.195 20.8371C129.834 21.1322 130.572 21.2797 131.383 21.2797C132.195 21.2797 132.932 21.1322 133.572 20.8371C134.236 20.542 134.777 20.1486 135.244 19.6568C135.711 19.165 136.08 18.5748 136.326 17.8863C136.572 17.2224 136.695 16.4847 136.695 15.6978C136.695 14.911 136.572 14.1733 136.326 13.5093C136.08 12.8454 135.711 12.2553 135.244 11.7389C134.777 11.2471 134.211 10.8291 133.572 10.5586C132.908 10.2635 132.195 10.116 131.383 10.116C130.572 10.116 129.834 10.2635 129.195 10.5586C128.531 10.8536 127.99 11.2471 127.523 11.7389C127.055 12.2307 126.687 12.8208 126.441 13.5093C126.195 14.1733 126.072 14.911 126.072 15.6978Z" fill="black"/>
<path d="M31.1552 20.491C30.3929 21.4746 29.4093 22.2369 28.229 22.7779C27.0487 23.3188 25.8438 23.5893 24.5652 23.5893C23.3603 23.5893 22.2291 23.3926 21.1718 23.0238C20.1144 22.6303 19.2046 22.0894 18.4177 21.3763C17.6308 20.6632 17.0161 19.8025 16.5735 18.7943C16.1309 17.7861 15.9095 16.6796 15.9095 15.4255C15.9095 14.196 16.1309 13.0649 16.5735 12.0567C17.0161 11.0485 17.6308 10.1879 18.4177 9.4748C19.2046 8.7617 20.1144 8.22072 21.1718 7.82728C22.2291 7.43385 23.3603 7.26172 24.5652 7.26172C25.6717 7.26172 26.6799 7.45844 27.5897 7.82728C28.4995 8.22072 29.2618 8.7617 29.9011 9.4748C30.5405 10.1879 31.0077 11.0485 31.3519 12.0567C31.6962 13.0649 31.8683 14.1714 31.8683 15.4255V16.9255H20.7291C20.9259 17.8353 21.3439 18.573 21.9832 19.114C22.6226 19.655 23.4094 19.9255 24.3438 19.9255C25.1307 19.9255 25.7946 19.7533 26.3356 19.3845C26.8766 19.0402 27.3438 18.573 27.7618 18.032L31.1552 20.491ZM27.0733 13.6305C27.0979 12.819 26.8274 12.1305 26.2618 11.5403C25.6963 10.9748 24.9832 10.6797 24.1225 10.6797C23.5816 10.6797 23.1144 10.7535 22.7209 10.9256C22.3029 11.0977 21.9586 11.319 21.6881 11.5895C21.3931 11.86 21.1718 12.1551 21.0242 12.5239C20.8521 12.8682 20.7783 13.237 20.7537 13.6305H27.0733Z" fill="black"/>
<path d="M33.1714 7.60559H38.3598L42.2942 18.1792H42.368L46.0318 7.60559H50.876L44.7286 23.1709H39.6385L33.1714 7.60559Z" fill="black"/>
<path d="M67.376 20.491C66.6138 21.4746 65.6302 22.2369 64.4499 22.7779C63.2695 23.3188 62.0646 23.5893 60.786 23.5893C59.5811 23.5893 58.4499 23.3926 57.3926 23.0238C56.3352 22.6303 55.4254 22.0894 54.6385 21.3763C53.8517 20.6632 53.2369 19.8025 52.7943 18.7943C52.3517 17.7861 52.1304 16.6796 52.1304 15.4255C52.1304 14.196 52.3517 13.0649 52.7943 12.0567C53.2369 11.0485 53.8517 10.1879 54.6385 9.4748C55.4254 8.7617 56.3352 8.22072 57.3926 7.82728C58.4499 7.43385 59.5811 7.26172 60.786 7.26172C61.8925 7.26172 62.9007 7.45844 63.8105 7.82728C64.7203 8.22072 65.4826 8.7617 66.122 9.4748C66.7613 10.1879 67.2285 11.0485 67.5727 12.0567C67.917 13.0649 68.0891 14.1714 68.0891 15.4255V16.9255H56.9254C57.1221 17.8353 57.5401 18.573 58.1795 19.114C58.8188 19.655 59.6057 19.9255 60.5401 19.9255C61.3269 19.9255 61.9909 19.7533 62.5318 19.3845C63.0728 19.0402 63.54 18.573 63.9581 18.032L67.376 20.491ZM63.2941 13.6305C63.3187 12.819 63.0482 12.1305 62.4827 11.5403C61.9171 10.9748 61.204 10.6797 60.3434 10.6797C59.8024 10.6797 59.3352 10.7535 58.9417 10.9256C58.5237 11.0977 58.1795 11.319 57.909 11.5895C57.6139 11.86 57.3926 12.1551 57.245 12.5239C57.0729 12.8682 56.9991 13.237 56.9746 13.6305H63.2941Z" fill="black"/>
<path d="M75.9087 0.5H71.0891V23.1964H75.9087V0.5Z" fill="black"/>
<path d="M4.99173 8.93457H0V23.1966H14.2621V18.5738H4.99173V8.93457Z" fill="#2CFF00"/>
<path d="M4.99173 0.5H0V8.9343H4.99173V0.5Z" fill="black"/>
</svg>
