<svg width="271" height="33" viewBox="0 0 271 33" fill="none" xmlns="http://www.w3.org/2000/svg">
<path d="M154.723 25.214V21.884C155.167 21.8 155.515 21.536 155.767 21.092C156.019 20.636 156.223 19.802 156.379 18.59L156.937 14.306H162.985V21.812H163.993V25.214H162.643V23H156.073V25.214H154.723ZM158.125 15.494L157.729 18.752C157.525 20.276 157.105 21.296 156.469 21.812H161.635V15.494H158.125ZM164.813 23.216V22.1C165.221 22.1 165.557 21.83 165.821 21.29C166.085 20.75 166.301 19.85 166.469 18.59L167.027 14.306H173.075V23H171.725V15.494H168.215L167.819 18.752C167.627 20.348 167.291 21.494 166.811 22.19C166.331 22.874 165.665 23.216 164.813 23.216ZM177.067 23H175.483L177.805 19.58C177.145 19.496 176.605 19.22 176.185 18.752C175.777 18.284 175.573 17.69 175.573 16.97C175.573 16.202 175.819 15.566 176.311 15.062C176.803 14.558 177.475 14.306 178.327 14.306H182.917V23H181.567V19.634H179.191L177.067 23ZM178.471 18.446H181.567V15.494H178.471C178.003 15.494 177.631 15.632 177.355 15.908C177.091 16.172 176.959 16.526 176.959 16.97C176.959 17.414 177.091 17.774 177.355 18.05C177.619 18.314 177.991 18.446 178.471 18.446ZM197.041 23H195.691V22.01C194.959 22.814 193.999 23.216 192.811 23.216C192.007 23.216 191.299 22.958 190.687 22.442C190.075 21.926 189.769 21.224 189.769 20.336C189.769 19.424 190.069 18.722 190.669 18.23C191.281 17.726 191.995 17.474 192.811 17.474C194.047 17.474 195.007 17.87 195.691 18.662V17.096C195.691 16.52 195.487 16.07 195.079 15.746C194.671 15.422 194.143 15.26 193.495 15.26C192.475 15.26 191.587 15.662 190.831 16.466L190.201 15.53C191.125 14.57 192.283 14.09 193.675 14.09C194.671 14.09 195.481 14.33 196.105 14.81C196.729 15.29 197.041 16.028 197.041 17.024V23ZM193.297 22.244C194.377 22.244 195.175 21.884 195.691 21.164V19.526C195.175 18.806 194.377 18.446 193.297 18.446C192.673 18.446 192.157 18.626 191.749 18.986C191.353 19.334 191.155 19.79 191.155 20.354C191.155 20.906 191.353 21.362 191.749 21.722C192.157 22.07 192.673 22.244 193.297 22.244ZM204.625 23H199.747V14.306H204.535C205.291 14.306 205.885 14.51 206.317 14.918C206.761 15.326 206.983 15.866 206.983 16.538C206.983 17.03 206.845 17.456 206.569 17.816C206.305 18.164 205.975 18.398 205.579 18.518C206.023 18.626 206.395 18.884 206.695 19.292C207.007 19.7 207.163 20.15 207.163 20.642C207.163 21.35 206.935 21.92 206.479 22.352C206.035 22.784 205.417 23 204.625 23ZM204.355 21.812C204.787 21.812 205.129 21.692 205.381 21.452C205.633 21.212 205.759 20.888 205.759 20.48C205.759 20.108 205.633 19.79 205.381 19.526C205.129 19.262 204.787 19.13 204.355 19.13H201.097V21.812H204.355ZM204.301 17.942C204.709 17.942 205.027 17.834 205.255 17.618C205.483 17.39 205.597 17.096 205.597 16.736C205.597 16.352 205.483 16.052 205.255 15.836C205.027 15.608 204.709 15.494 204.301 15.494H201.097V17.942H204.301ZM212.648 23H211.298V15.494H208.778V14.306H215.186V15.494H212.648V23ZM223.868 21.902C223.088 22.778 222.05 23.216 220.754 23.216C219.458 23.216 218.414 22.778 217.622 21.902C216.842 21.026 216.452 19.94 216.452 18.644C216.452 17.348 216.842 16.268 217.622 15.404C218.414 14.528 219.458 14.09 220.754 14.09C222.05 14.09 223.088 14.528 223.868 15.404C224.66 16.268 225.056 17.348 225.056 18.644C225.056 19.94 224.66 21.026 223.868 21.902ZM218.63 21.038C219.158 21.686 219.866 22.01 220.754 22.01C221.642 22.01 222.344 21.686 222.86 21.038C223.376 20.378 223.634 19.58 223.634 18.644C223.634 17.708 223.376 16.916 222.86 16.268C222.344 15.62 221.642 15.296 220.754 15.296C219.866 15.296 219.158 15.626 218.63 16.286C218.114 16.934 217.856 17.72 217.856 18.644C217.856 19.58 218.114 20.378 218.63 21.038ZM237.301 14.306H238.651V23H227.257V14.306H228.607V21.812H232.279V14.306H233.629V21.812H237.301V14.306ZM249.005 23H247.277L244.145 19.094L242.705 20.516V23H241.355V14.306H242.705V18.932L247.277 14.306H248.987L245.135 18.248L249.005 23ZM257.46 21.902C256.68 22.778 255.642 23.216 254.346 23.216C253.05 23.216 252.006 22.778 251.214 21.902C250.434 21.026 250.044 19.94 250.044 18.644C250.044 17.348 250.434 16.268 251.214 15.404C252.006 14.528 253.05 14.09 254.346 14.09C255.642 14.09 256.68 14.528 257.46 15.404C258.252 16.268 258.648 17.348 258.648 18.644C258.648 19.94 258.252 21.026 257.46 21.902ZM252.222 21.038C252.75 21.686 253.458 22.01 254.346 22.01C255.234 22.01 255.936 21.686 256.452 21.038C256.968 20.378 257.226 19.58 257.226 18.644C257.226 17.708 256.968 16.916 256.452 16.268C255.936 15.62 255.234 15.296 254.346 15.296C253.458 15.296 252.75 15.626 252.222 16.286C251.706 16.934 251.448 17.72 251.448 18.644C251.448 19.58 251.706 20.378 252.222 21.038ZM259.823 23.216V22.1C260.231 22.1 260.567 21.83 260.831 21.29C261.095 20.75 261.311 19.85 261.479 18.59L262.037 14.306H268.085V23H266.735V15.494H263.225L262.829 18.752C262.637 20.348 262.301 21.494 261.821 22.19C261.341 22.874 260.675 23.216 259.823 23.216Z" fill="white"/>
<path d="M89.3837 0.389771H91.9165L101.556 24.8941H98.4082L96.0967 18.8676H84.7608L82.4248 24.8941H79.3757L89.3837 0.389771ZM90.5886 4.13313H90.5149L85.8182 16.1596H95.0886L90.5886 4.13313Z" fill="white"/>
<path d="M103.99 8.70096H106.498V11.0638H106.572C107.26 10.1877 108.047 9.49742 108.957 9.01955C109.867 8.54167 110.875 8.30273 111.957 8.30273C113.137 8.30273 114.195 8.51512 115.178 8.9399C116.162 9.36468 116.973 9.94875 117.662 10.7187C118.35 11.4886 118.891 12.3912 119.26 13.4266C119.629 14.462 119.826 15.6036 119.826 16.8248C119.826 18.0461 119.629 19.1877 119.26 20.2231C118.867 21.2585 118.35 22.1611 117.662 22.931C116.998 23.7009 116.186 24.285 115.277 24.7098C114.367 25.1346 113.383 25.347 112.326 25.347C110.973 25.347 109.793 25.0284 108.785 24.3912C107.777 23.754 107.039 22.9841 106.547 22.0549H106.473V32.7806H103.965V8.70096H103.99ZM106.498 16.7983C106.498 17.6479 106.621 18.4443 106.867 19.1611C107.113 19.8779 107.482 20.5151 107.949 21.0726C108.416 21.6036 108.982 22.0549 109.621 22.347C110.26 22.6655 110.998 22.8248 111.809 22.8248C112.621 22.8248 113.359 22.6655 113.998 22.347C114.662 22.0284 115.203 21.6036 115.67 21.0726C116.137 20.5417 116.506 19.9045 116.752 19.1611C116.998 18.4443 117.121 17.6479 117.121 16.7983C117.121 15.9487 116.998 15.1523 116.752 14.4355C116.506 13.7187 116.137 13.0815 115.67 12.524C115.203 11.993 114.637 11.5417 113.998 11.2496C113.334 10.931 112.621 10.7718 111.809 10.7718C110.998 10.7718 110.26 10.931 109.621 11.2496C108.957 11.5682 108.416 11.993 107.949 12.524C107.482 13.0549 107.113 13.6921 106.867 14.4355C106.621 15.1523 106.498 15.9487 106.498 16.7983Z" fill="white"/>
<path d="M123.564 8.70096H126.072V11.0638H126.146C126.834 10.1877 127.621 9.49742 128.531 9.01955C129.441 8.54167 130.449 8.30273 131.531 8.30273C132.711 8.30273 133.768 8.51512 134.752 8.9399C135.736 9.36468 136.547 9.94875 137.236 10.7187C137.924 11.4886 138.465 12.3912 138.834 13.4266C139.227 14.462 139.399 15.6036 139.399 16.8248C139.399 18.0461 139.203 19.1877 138.834 20.2231C138.44 21.2585 137.924 22.1611 137.236 22.931C136.572 23.7009 135.76 24.285 134.85 24.7098C133.94 25.1346 132.957 25.347 131.9 25.347C130.547 25.347 129.367 25.0284 128.359 24.3912C127.35 23.754 126.613 22.9841 126.121 22.0549H126.047V32.7806H123.539V8.70096H123.564ZM126.072 16.7983C126.072 17.6479 126.195 18.4443 126.441 19.1611C126.686 19.8779 127.055 20.5151 127.523 21.0726C127.99 21.6036 128.555 22.0549 129.195 22.347C129.834 22.6655 130.572 22.8248 131.383 22.8248C132.195 22.8248 132.932 22.6655 133.572 22.347C134.236 22.0284 134.777 21.6036 135.244 21.0726C135.711 20.5417 136.08 19.9045 136.326 19.1611C136.572 18.4443 136.695 17.6479 136.695 16.7983C136.695 15.9487 136.572 15.1523 136.326 14.4355C136.08 13.7187 135.711 13.0815 135.244 12.524C134.777 11.993 134.211 11.5417 133.572 11.2496C132.908 10.931 132.195 10.7718 131.383 10.7718C130.572 10.7718 129.834 10.931 129.195 11.2496C128.531 11.5682 127.99 11.993 127.523 12.524C127.055 13.0549 126.686 13.6921 126.441 14.4355C126.195 15.1523 126.072 15.9487 126.072 16.7983Z" fill="white"/>
<path d="M31.1553 21.9732C30.393 23.0352 29.4094 23.8582 28.2291 24.4422C27.0488 25.0263 25.8439 25.3183 24.5652 25.3183C23.3603 25.3183 22.2292 25.106 21.1718 24.7077C20.1145 24.283 19.2046 23.6989 18.4178 22.929C17.6309 22.1591 17.0161 21.2299 16.5735 20.1414C16.1309 19.0529 15.9096 17.8582 15.9096 16.5042C15.9096 15.1768 16.1309 13.9555 16.5735 12.867C17.0161 11.7786 17.6309 10.8493 18.4178 10.0794C19.2046 9.30953 20.1145 8.72546 21.1718 8.30068C22.2292 7.8759 23.3603 7.69006 24.5652 7.69006C25.6718 7.69006 26.6799 7.90245 27.5898 8.30068C28.4996 8.72546 29.2619 9.30953 29.9012 10.0794C30.5405 10.8493 31.0077 11.7786 31.352 12.867C31.6962 13.9555 31.8684 15.1502 31.8684 16.5042V18.1237H20.7292C20.9259 19.106 21.3439 19.9024 21.9833 20.4865C22.6226 21.0706 23.4095 21.3626 24.3439 21.3626C25.1308 21.3626 25.7947 21.1768 26.3357 20.7785C26.8766 20.4069 27.3439 19.9024 27.7619 19.3184L31.1553 21.9732ZM27.0734 14.5662C27.098 13.6901 26.8275 12.9467 26.2619 12.3095C25.6963 11.6989 24.9832 11.3803 24.1226 11.3803C23.5816 11.3803 23.1144 11.46 22.721 11.6458C22.303 11.8316 21.9587 12.0706 21.6882 12.3626C21.3931 12.6547 21.1718 12.9732 21.0243 13.3715C20.8522 13.7431 20.7784 14.1414 20.7538 14.5662H27.0734Z" fill="white"/>
<path d="M33.1714 8.0614H38.3598L42.2942 19.4773H42.368L46.0318 8.0614H50.876L44.7286 24.8667H39.6385L33.1714 8.0614Z" fill="white"/>
<path d="M67.376 21.9733C66.6138 23.0353 65.6302 23.8583 64.4499 24.4424C63.2695 25.0264 62.0646 25.3185 60.786 25.3185C59.5811 25.3185 58.4499 25.1061 57.3926 24.7079C56.3352 24.2831 55.4254 23.699 54.6385 22.9291C53.8517 22.1592 53.2369 21.23 52.7943 20.1415C52.3517 19.053 52.1304 17.8583 52.1304 16.5043C52.1304 15.1769 52.3517 13.9557 52.7943 12.8672C53.2369 11.7787 53.8517 10.8495 54.6385 10.0796C55.4254 9.30965 56.3352 8.72558 57.3926 8.3008C58.4499 7.87603 59.5811 7.69019 60.786 7.69019C61.8925 7.69019 62.9007 7.90257 63.8105 8.3008C64.7203 8.72558 65.4826 9.30965 66.122 10.0796C66.7613 10.8495 67.2285 11.7787 67.5728 12.8672C67.917 13.9557 68.0891 15.1503 68.0891 16.5043V18.1238H56.9254C57.1221 19.1061 57.5401 19.9026 58.1795 20.4866C58.8188 21.0707 59.6057 21.3627 60.5401 21.3627C61.327 21.3627 61.9909 21.1769 62.5319 20.7787C63.0728 20.407 63.54 19.9026 63.9581 19.3185L67.376 21.9733ZM63.2941 14.5663C63.3187 13.6902 63.0482 12.9468 62.4827 12.3096C61.9171 11.699 61.204 11.3804 60.3434 11.3804C59.8024 11.3804 59.3352 11.4601 58.9417 11.6459C58.5237 11.8318 58.1795 12.0707 57.909 12.3627C57.6139 12.6548 57.3926 12.9734 57.245 13.3716C57.0729 13.7433 56.9991 14.1415 56.9746 14.5663H63.2941Z" fill="white"/>
<path d="M75.9087 0.389771H71.0891V24.8941H75.9087V0.389771Z" fill="white"/>
<path d="M4.99172 9.49622H0V24.8944H14.2621V19.9033H4.99172V9.49622Z" fill="#2CFF00"/>
<path d="M4.99173 0.389771H0V9.49594H4.99173V0.389771Z" fill="white"/>
</svg>
