<svg width="100" height="22" viewBox="0 0 100 22" fill="none" xmlns="http://www.w3.org/2000/svg">
<path d="M64.1207 0H65.9376L72.8524 16.331H70.5945L68.9364 12.3146H60.8045L59.1287 16.331H56.9413L64.1207 0ZM64.9851 2.49476H64.9322L61.563 10.5099H68.2132L64.9851 2.49476Z" fill="white"/>
<path d="M74.5987 5.53801H76.398V7.11272H76.4509C76.9448 6.52884 77.5093 6.06881 78.1619 5.75033C78.8146 5.43185 79.5378 5.27261 80.314 5.27261C81.1607 5.27261 81.9192 5.41416 82.6248 5.69725C83.3304 5.98035 83.9125 6.3696 84.4064 6.88271C84.9003 7.39582 85.2884 7.99739 85.553 8.68743C85.8176 9.37747 85.9587 10.1383 85.9587 10.9522C85.9587 11.7661 85.8176 12.5269 85.553 13.2169C85.2708 13.907 84.9003 14.5085 84.4064 15.0217C83.9302 15.5348 83.348 15.924 82.6954 16.2071C82.0427 16.4902 81.3371 16.6317 80.5786 16.6317C79.6084 16.6317 78.7617 16.4194 78.0385 15.9948C77.3152 15.5701 76.786 15.057 76.4332 14.4378H76.3803V21.5859H74.5811V5.53801H74.5987ZM76.398 10.9345C76.398 11.5007 76.4862 12.0315 76.6626 12.5092C76.839 12.9869 77.1035 13.4116 77.4387 13.7831C77.7739 14.137 78.1796 14.4378 78.6382 14.6324C79.0968 14.8447 79.626 14.9509 80.2082 14.9509C80.7903 14.9509 81.3195 14.8447 81.7781 14.6324C82.2544 14.4201 82.6424 14.137 82.9776 13.7831C83.3128 13.4293 83.5774 13.0046 83.7538 12.5092C83.9301 12.0315 84.0183 11.5007 84.0183 10.9345C84.0183 10.3683 83.9301 9.8375 83.7538 9.35978C83.5774 8.88206 83.3128 8.45742 82.9776 8.08586C82.6424 7.73199 82.2367 7.4312 81.7781 7.23658C81.3018 7.02426 80.7903 6.9181 80.2082 6.9181C79.626 6.9181 79.0968 7.02426 78.6382 7.23658C78.1619 7.4489 77.7739 7.73199 77.4387 8.08586C77.1035 8.43972 76.839 8.86437 76.6626 9.35978C76.4862 9.8375 76.398 10.3683 76.398 10.9345Z" fill="white"/>
<path d="M88.64 5.53801H90.4393V7.11272H90.4922C90.9861 6.52884 91.5506 6.06881 92.2033 5.75033C92.8559 5.43185 93.5792 5.27261 94.3553 5.27261C95.202 5.27261 95.9605 5.41416 96.6661 5.69725C97.3717 5.98035 97.9538 6.3696 98.4477 6.88271C98.9417 7.39582 99.3297 7.99739 99.5943 8.68743C99.8766 9.37747 100 10.1383 100 10.9522C100 11.7661 99.8589 12.5269 99.5943 13.2169C99.3121 13.907 98.9417 14.5085 98.4477 15.0217C97.9715 15.5348 97.3894 15.924 96.7367 16.2071C96.084 16.4902 95.3784 16.6317 94.6199 16.6317C93.6497 16.6317 92.803 16.4194 92.0798 15.9948C91.3565 15.5701 90.8274 15.057 90.4746 14.4378H90.4216V21.5859H88.6224V5.53801H88.64ZM90.4393 10.9345C90.4393 11.5007 90.5275 12.0315 90.7039 12.5092C90.8803 12.9869 91.1449 13.4116 91.48 13.7831C91.8152 14.137 92.2209 14.4378 92.6795 14.6324C93.1382 14.8447 93.6674 14.9509 94.2495 14.9509C94.8316 14.9509 95.3608 14.8447 95.8194 14.6324C96.2957 14.4201 96.6838 14.137 97.0189 13.7831C97.3541 13.4293 97.6187 13.0046 97.7951 12.5092C97.9715 12.0315 98.0597 11.5007 98.0597 10.9345C98.0597 10.3683 97.9715 9.8375 97.7951 9.35978C97.6187 8.88206 97.3541 8.45742 97.0189 8.08586C96.6838 7.73199 96.278 7.4312 95.8194 7.23658C95.3431 7.02426 94.8316 6.9181 94.2495 6.9181C93.6674 6.9181 93.1382 7.02426 92.6795 7.23658C92.2033 7.4489 91.8152 7.73199 91.48 8.08586C91.1449 8.43972 90.8803 8.86437 90.7039 9.35978C90.5275 9.8375 90.4393 10.3683 90.4393 10.9345Z" fill="white"/>
<path d="M22.3495 14.3847C21.8026 15.0924 21.097 15.6409 20.2503 16.0302C19.4036 16.4194 18.5393 16.6141 17.622 16.6141C16.7576 16.6141 15.9462 16.4725 15.1877 16.2071C14.4292 15.924 13.7765 15.5348 13.212 15.0217C12.6476 14.5085 12.2066 13.8893 11.8891 13.1638C11.5715 12.4384 11.4128 11.6422 11.4128 10.7399C11.4128 9.85519 11.5715 9.0413 11.8891 8.31587C12.2066 7.59044 12.6476 6.97117 13.212 6.45806C13.7765 5.94496 14.4292 5.5557 15.1877 5.27261C15.9462 4.98952 16.7576 4.86566 17.622 4.86566C18.4158 4.86566 19.139 5.00721 19.7917 5.27261C20.4444 5.5557 20.9912 5.94496 21.4498 6.45806C21.9085 6.97117 22.2436 7.59044 22.4906 8.31587C22.7375 9.0413 22.861 9.8375 22.861 10.7399V11.8192H14.8702C15.0113 12.4738 15.3112 13.0046 15.7698 13.3939C16.2284 13.7831 16.7929 13.9777 17.4632 13.9777C18.0277 13.9777 18.504 13.8539 18.8921 13.5885C19.2801 13.3408 19.6153 13.0046 19.9152 12.6154L22.3495 14.3847ZM19.4212 9.44824C19.4389 8.86436 19.2449 8.36895 18.8391 7.94431C18.4334 7.53736 17.9219 7.32504 17.3045 7.32504C16.9164 7.32504 16.5812 7.37812 16.299 7.50197C15.9991 7.62583 15.7522 7.78507 15.5581 7.97969C15.3465 8.17432 15.1877 8.38664 15.0819 8.65204C14.9584 8.89975 14.9055 9.16515 14.8878 9.44824H19.4212Z" fill="white"/>
<path d="M23.796 5.11337H27.518L30.3403 12.7215H30.3932L33.0216 5.11337H36.4966L32.0867 16.3133H28.4352L23.796 5.11337Z" fill="white"/>
<path d="M48.3331 14.3847C47.7863 15.0924 47.0807 15.6409 46.234 16.0302C45.3873 16.4194 44.5229 16.6141 43.6056 16.6141C42.7413 16.6141 41.9299 16.4725 41.1713 16.2071C40.4128 15.924 39.7602 15.5348 39.1957 15.0217C38.6312 14.5085 38.1902 13.8893 37.8727 13.1638C37.5552 12.4384 37.3964 11.6422 37.3964 10.7399C37.3964 9.85519 37.5552 9.0413 37.8727 8.31587C38.1902 7.59044 38.6312 6.97117 39.1957 6.45806C39.7602 5.94496 40.4128 5.5557 41.1713 5.27261C41.9299 4.98952 42.7413 4.86566 43.6056 4.86566C44.3994 4.86566 45.1227 5.00721 45.7753 5.27261C46.428 5.5557 46.9748 5.94496 47.4335 6.45806C47.8921 6.97117 48.2273 7.59044 48.4742 8.31587C48.7212 9.0413 48.8447 9.8375 48.8447 10.7399V11.8192H40.8362C40.9773 12.4738 41.2772 13.0046 41.7358 13.3939C42.1944 13.7831 42.7589 13.9777 43.4292 13.9777C43.9937 13.9777 44.47 13.8539 44.8581 13.5885C45.2461 13.3408 45.5813 13.0046 45.8812 12.6154L48.3331 14.3847ZM45.4049 9.44824C45.4225 8.86436 45.2285 8.36895 44.8228 7.94431C44.4171 7.53736 43.9055 7.32504 43.2881 7.32504C42.9 7.32504 42.5649 7.37812 42.2826 7.50197C41.9828 7.62583 41.7358 7.78507 41.5418 7.97969C41.3301 8.17432 41.1713 8.38664 41.0655 8.65204C40.942 8.89975 40.8891 9.16515 40.8715 9.44824H45.4049Z" fill="white"/>
<path d="M54.4541 0H50.9967V16.331H54.4541V0Z" fill="white"/>
<path d="M3.58088 6.06882H0V16.331H10.2311V13.0046H3.58088V6.06882Z" fill="#2CFF00"/>
<path d="M3.58088 0H0V6.06882H3.58088V0Z" fill="white"/>
</svg>
