<svg width="302" height="37" viewBox="0 0 302 37" fill="none" xmlns="http://www.w3.org/2000/svg">
<path d="M102.971 0H105.888L116.993 27.9914H113.367L110.704 21.1072H97.6452L94.954 27.9914H91.4414L102.971 0ZM104.359 4.27604H104.274L98.8632 18.0139H109.543L104.359 4.27604Z" fill="white"/>
<path d="M119.797 9.49384H122.686V12.1929H122.771C123.564 11.1921 124.471 10.4036 125.519 9.85776C126.567 9.31188 127.729 9.03894 128.975 9.03894C130.335 9.03894 131.553 9.28155 132.686 9.76678C133.819 10.252 134.754 10.9192 135.547 11.7987C136.34 12.6781 136.963 13.7092 137.388 14.892C137.813 16.0747 138.04 17.3787 138.04 18.7738C138.04 20.1688 137.813 21.4728 137.388 22.6555C136.935 23.8383 136.34 24.8694 135.547 25.7488C134.782 26.6283 133.847 27.2955 132.799 27.7807C131.751 28.2659 130.618 28.5086 129.4 28.5086C127.842 28.5086 126.482 28.1446 125.321 27.4168C124.159 26.689 123.309 25.8095 122.743 24.7481H122.658V37H119.769V9.49384H119.797ZM122.686 18.7434C122.686 19.7139 122.828 20.6237 123.111 21.4425C123.394 22.2613 123.819 22.9891 124.358 23.626C124.896 24.2325 125.547 24.7481 126.284 25.0817C127.02 25.4456 127.87 25.6275 128.805 25.6275C129.74 25.6275 130.59 25.4456 131.326 25.0817C132.091 24.7177 132.714 24.2325 133.252 23.626C133.791 23.0195 134.216 22.2916 134.499 21.4425C134.782 20.6237 134.924 19.7139 134.924 18.7434C134.924 17.773 134.782 16.8632 134.499 16.0444C134.216 15.2255 133.791 14.4977 133.252 13.8609C132.714 13.2543 132.063 12.7388 131.326 12.4052C130.561 12.0413 129.74 11.8593 128.805 11.8593C127.87 11.8593 127.02 12.0413 126.284 12.4052C125.519 12.7691 124.896 13.2543 124.358 13.8609C123.819 14.4674 123.394 15.1952 123.111 16.0444C122.828 16.8632 122.686 17.773 122.686 18.7434Z" fill="white"/>
<path d="M142.346 9.49384H145.236V12.1929H145.321C146.114 11.1921 147.02 10.4036 148.068 9.85776C149.116 9.31188 150.278 9.03894 151.524 9.03894C152.884 9.03894 154.102 9.28155 155.235 9.76678C156.368 10.252 157.303 10.9192 158.096 11.7987C158.889 12.6781 159.513 13.7092 159.938 14.892C160.391 16.0747 160.589 17.3787 160.589 18.7738C160.589 20.1688 160.363 21.4728 159.938 22.6555C159.484 23.8383 158.889 24.8694 158.096 25.7488C157.331 26.6283 156.397 27.2955 155.349 27.7807C154.3 28.2659 153.167 28.5086 151.949 28.5086C150.391 28.5086 149.032 28.1446 147.87 27.4168C146.709 26.689 145.859 25.8095 145.292 24.7481H145.207V37H142.318V9.49384H142.346ZM145.236 18.7434C145.236 19.7139 145.377 20.6237 145.661 21.4425C145.944 22.2613 146.369 22.9891 146.907 23.626C147.445 24.2325 148.097 24.7481 148.833 25.0817C149.57 25.4456 150.42 25.6275 151.354 25.6275C152.289 25.6275 153.139 25.4456 153.876 25.0817C154.64 24.7177 155.264 24.2325 155.802 23.626C156.34 23.0195 156.765 22.2916 157.048 21.4425C157.331 20.6237 157.473 19.7139 157.473 18.7434C157.473 17.773 157.331 16.8632 157.048 16.0444C156.765 15.2255 156.34 14.4977 155.802 13.8609C155.264 13.2543 154.612 12.7388 153.876 12.4052C153.111 12.0413 152.289 11.8593 151.354 11.8593C150.42 11.8593 149.57 12.0413 148.833 12.4052C148.068 12.7691 147.445 13.2543 146.907 13.8609C146.369 14.4674 145.944 15.1952 145.661 16.0444C145.377 16.8632 145.236 17.773 145.236 18.7434Z" fill="white"/>
<path d="M35.8912 24.6549C35.0131 25.868 33.88 26.8081 32.5202 27.4753C31.1605 28.1424 29.7725 28.476 28.2994 28.476C26.9114 28.476 25.6083 28.2334 24.3902 27.7785C23.1721 27.2933 22.124 26.6261 21.2175 25.7467C20.3111 24.8672 19.6029 23.8058 19.093 22.5624C18.5831 21.319 18.3281 19.9543 18.3281 18.4076C18.3281 16.8913 18.5831 15.4963 19.093 14.2529C19.6029 13.0095 20.3111 11.9481 21.2175 11.0686C22.124 10.1892 23.1721 9.52197 24.3902 9.03674C25.6083 8.55152 26.9114 8.33923 28.2994 8.33923C29.5742 8.33923 30.7356 8.58185 31.7837 9.03674C32.8318 9.52197 33.71 10.1892 34.4465 11.0686C35.183 11.9481 35.7212 13.0095 36.1178 14.2529C36.5144 15.4963 36.7127 16.861 36.7127 18.4076V20.2576H23.8803C24.1069 21.3796 24.5885 22.2894 25.325 22.9566C26.0615 23.6238 26.968 23.9574 28.0445 23.9574C28.951 23.9574 29.7158 23.7451 30.339 23.2902C30.9622 22.8656 31.5004 22.2894 31.982 21.6222L35.8912 24.6549ZM31.1888 16.1938C31.2172 15.193 30.9056 14.3439 30.254 13.616C29.6025 12.9185 28.781 12.5546 27.7895 12.5546C27.1663 12.5546 26.6281 12.6456 26.1749 12.8579C25.6933 13.0702 25.2967 13.3431 24.9851 13.6767C24.6452 14.0103 24.3902 14.3742 24.2203 14.8291C24.022 15.2537 23.937 15.7086 23.9087 16.1938H31.1888Z" fill="white"/>
<path d="M38.2134 8.76331H44.1905L48.7229 21.8037H48.8079L53.0287 8.76331H58.6092L51.5273 27.96H45.6635L38.2134 8.76331Z" fill="white"/>
<path d="M77.6178 24.6549C76.7396 25.868 75.6065 26.8081 74.2468 27.4753C72.8871 28.1424 71.499 28.476 70.026 28.476C68.6379 28.476 67.3349 28.2334 66.1168 27.7785C64.8987 27.2933 63.8506 26.6261 62.9441 25.7467C62.0376 24.8672 61.3294 23.8058 60.8195 22.5624C60.3096 21.319 60.0547 19.9543 60.0547 18.4076C60.0547 16.8913 60.3096 15.4963 60.8195 14.2529C61.3294 13.0095 62.0376 11.9481 62.9441 11.0686C63.8506 10.1892 64.8987 9.52197 66.1168 9.03674C67.3349 8.55152 68.6379 8.33923 70.026 8.33923C71.3007 8.33923 72.4622 8.58185 73.5103 9.03674C74.5584 9.52197 75.4366 10.1892 76.1731 11.0686C76.9096 11.9481 77.4478 13.0095 77.8444 14.2529C78.241 15.4963 78.4393 16.861 78.4393 18.4076V20.2576H65.5786C65.8052 21.3796 66.2868 22.2894 67.0233 22.9566C67.7598 23.6238 68.6663 23.9574 69.7427 23.9574C70.6492 23.9574 71.414 23.7451 72.0372 23.2902C72.6605 22.8656 73.1987 22.2894 73.6802 21.6222L77.6178 24.6549ZM72.9154 16.1938C72.9437 15.193 72.6321 14.3439 71.9806 13.616C71.3291 12.9185 70.5076 12.5546 69.5161 12.5546C68.8929 12.5546 68.3547 12.6456 67.9014 12.8579C67.4199 13.0702 67.0233 13.3431 66.7117 13.6767C66.3717 14.0103 66.1168 14.3742 65.9468 14.8291C65.7485 15.2537 65.6635 15.7086 65.6352 16.1938H72.9154Z" fill="white"/>
<path d="M87.4472 0H81.895V27.9914H87.4472V0Z" fill="white"/>
<path d="M5.75049 10.4023H0V27.9917H16.43V22.2903H5.75049V10.4023Z" fill="#2CFF00"/>
<path d="M5.7505 0H0V10.402H5.7505V0Z" fill="white"/>
<path d="M170.957 22.707V18.9031C171.469 18.8071 171.869 18.5056 172.16 17.9984C172.45 17.4775 172.685 16.5248 172.865 15.1404L173.508 10.2467H180.475V18.8208H181.636V22.707H180.081V20.1779H172.512V22.707H170.957ZM174.876 11.6038L174.42 15.3254C174.185 17.0663 173.701 18.2314 172.968 18.8208H178.92V11.6038H174.876Z" fill="white"/>
<path d="M182.581 20.4246V19.1498C183.051 19.1498 183.438 18.8414 183.742 18.2246C184.046 17.6077 184.295 16.5797 184.488 15.1404L185.131 10.2467H192.098V20.1779H190.543V11.6038H186.5L186.044 15.3254C185.822 17.1485 185.435 18.4576 184.882 19.2526C184.329 20.034 183.562 20.4246 182.581 20.4246Z" fill="white"/>
<path d="M196.697 20.1779H194.872L197.547 16.2712C196.787 16.1753 196.165 15.86 195.681 15.3254C195.211 14.7908 194.976 14.1123 194.976 13.2898C194.976 12.4125 195.259 11.686 195.826 11.1103C196.393 10.5346 197.167 10.2467 198.148 10.2467H203.436V20.1779H201.881V16.3329H199.144L196.697 20.1779ZM198.314 14.9759H201.881V11.6038H198.314C197.775 11.6038 197.347 11.7614 197.029 12.0767C196.724 12.3783 196.572 12.7826 196.572 13.2898C196.572 13.797 196.724 14.2082 197.029 14.5235C197.333 14.8251 197.761 14.9759 198.314 14.9759Z" fill="white"/>
<path d="M219.707 20.1779H218.152V19.047C217.309 19.9654 216.203 20.4246 214.834 20.4246C213.908 20.4246 213.093 20.1299 212.388 19.5405C211.683 18.9511 211.33 18.1492 211.33 17.1348C211.33 16.093 211.676 15.2911 212.367 14.7291C213.072 14.1534 213.894 13.8655 214.834 13.8655C216.258 13.8655 217.364 14.3179 218.152 15.2226V13.4338C218.152 12.7758 217.917 12.2618 217.447 11.8916C216.977 11.5215 216.369 11.3365 215.622 11.3365C214.447 11.3365 213.424 11.7957 212.553 12.7141L211.828 11.6449C212.892 10.5483 214.226 10 215.83 10C216.977 10 217.91 10.2742 218.629 10.8225C219.348 11.3708 219.707 12.2138 219.707 13.3515V20.1779ZM215.394 19.3143C216.638 19.3143 217.558 18.9031 218.152 18.0806V16.2095C217.558 15.3871 216.638 14.9759 215.394 14.9759C214.675 14.9759 214.081 15.1815 213.611 15.5927C213.155 15.9902 212.927 16.5111 212.927 17.1554C212.927 17.7859 213.155 18.3068 213.611 18.718C214.081 19.1156 214.675 19.3143 215.394 19.3143Z" fill="white"/>
<path d="M228.444 20.1779H222.825V10.2467H228.341C229.212 10.2467 229.896 10.4798 230.394 10.9458C230.905 11.4119 231.161 12.0287 231.161 12.7964C231.161 13.3584 231.002 13.845 230.684 14.2562C230.38 14.6537 230 14.921 229.543 15.0581C230.055 15.1815 230.483 15.4762 230.829 15.9422C231.189 16.4083 231.368 16.9223 231.368 17.4844C231.368 18.2931 231.106 18.9442 230.58 19.4377C230.069 19.9312 229.357 20.1779 228.444 20.1779ZM228.133 18.8208C228.631 18.8208 229.025 18.6838 229.315 18.4096C229.606 18.1355 229.751 17.7654 229.751 17.2993C229.751 16.8744 229.606 16.5111 229.315 16.2095C229.025 15.908 228.631 15.7572 228.133 15.7572H224.38V18.8208H228.133ZM228.071 14.4001C228.541 14.4001 228.908 14.2768 229.17 14.03C229.433 13.7696 229.564 13.4338 229.564 13.0225C229.564 12.5839 229.433 12.2412 229.17 11.9945C228.908 11.734 228.541 11.6038 228.071 11.6038H224.38V14.4001H228.071Z" fill="white"/>
<path d="M237.687 20.1779H236.132V11.6038H233.228V10.2467H240.611V11.6038H237.687V20.1779Z" fill="white"/>
<path d="M250.612 18.9237C249.714 19.9243 248.518 20.4246 247.025 20.4246C245.532 20.4246 244.329 19.9243 243.417 18.9237C242.518 17.923 242.069 16.6825 242.069 15.202C242.069 13.7216 242.518 12.4879 243.417 11.501C244.329 10.5003 245.532 10 247.025 10C248.518 10 249.714 10.5003 250.612 11.501C251.525 12.4879 251.981 13.7216 251.981 15.202C251.981 16.6825 251.525 17.923 250.612 18.9237ZM244.578 17.9367C245.187 18.6769 246.002 19.047 247.025 19.047C248.048 19.047 248.857 18.6769 249.451 17.9367C250.046 17.1828 250.343 16.2712 250.343 15.202C250.343 14.1328 250.046 13.2281 249.451 12.4879C248.857 11.7477 248.048 11.3776 247.025 11.3776C246.002 11.3776 245.187 11.7546 244.578 12.5085C243.984 13.2487 243.687 14.1466 243.687 15.202C243.687 16.2712 243.984 17.1828 244.578 17.9367Z" fill="white"/>
<path d="M266.087 10.2467H267.642V20.1779H254.516V10.2467H256.072V18.8208H260.302V10.2467H261.857V18.8208H266.087V10.2467Z" fill="white"/>
<path d="M279.57 20.1779H277.579L273.971 15.7161L272.312 17.3404V20.1779H270.757V10.2467H272.312V15.531L277.579 10.2467H279.549L275.112 14.7497L279.57 20.1779Z" fill="white"/>
<path d="M289.31 18.9237C288.412 19.9243 287.216 20.4246 285.723 20.4246C284.23 20.4246 283.027 19.9243 282.115 18.9237C281.216 17.923 280.767 16.6825 280.767 15.202C280.767 13.7216 281.216 12.4879 282.115 11.501C283.027 10.5003 284.23 10 285.723 10C287.216 10 288.412 10.5003 289.31 11.501C290.223 12.4879 290.679 13.7216 290.679 15.202C290.679 16.6825 290.223 17.923 289.31 18.9237ZM283.276 17.9367C283.884 18.6769 284.7 19.047 285.723 19.047C286.746 19.047 287.555 18.6769 288.149 17.9367C288.744 17.1828 289.041 16.2712 289.041 15.202C289.041 14.1328 288.744 13.2281 288.149 12.4879C287.555 11.7477 286.746 11.3776 285.723 11.3776C284.7 11.3776 283.884 11.7546 283.276 12.5085C282.682 13.2487 282.385 14.1466 282.385 15.202C282.385 16.2712 282.682 17.1828 283.276 17.9367Z" fill="white"/>
<path d="M292.032 20.4246V19.1498C292.502 19.1498 292.889 18.8414 293.194 18.2246C293.498 17.6077 293.746 16.5797 293.94 15.1404L294.583 10.2467H301.55V20.1779H299.995V11.6038H295.951L295.495 15.3254C295.274 17.1485 294.887 18.4576 294.334 19.2526C293.781 20.034 293.014 20.4246 292.032 20.4246Z" fill="white"/>
</svg>
