<svg width="21" height="20" viewBox="0 0 21 20" fill="none" xmlns="http://www.w3.org/2000/svg">
<path d="M10 0C6.81222 0 4.21877 2.59349 4.21877 5.78123C4.21877 7.75574 5.21403 9.50196 6.72901 10.5454C5.31458 11.0335 4.01814 11.8397 2.92899 12.9289C1.04019 14.8177 0 17.3289 0 20H1.5625C1.5625 15.3475 5.34753 11.5625 10 11.5625C13.1878 11.5625 15.7812 8.96901 15.7812 5.78123C15.7812 2.59345 13.1878 0 10 0ZM10 10C7.67379 10 5.78127 8.10748 5.78127 5.78127C5.78127 3.45506 7.67379 1.5625 10 1.5625C12.3262 1.5625 14.2187 3.45502 14.2187 5.78127C14.2187 8.10752 12.3262 10 10 10Z" fill="#999999"/>
<path d="M16.7579 15.1563V11.875H15.1954V15.1563H11.9141V16.7188H15.1954V20H16.7579V16.7188H20.0391V15.1563H16.7579Z" fill="#999999"/>
</svg>
