<svg width="60" height="60" viewBox="0 0 60 60" fill="none" xmlns="http://www.w3.org/2000/svg">
<path d="M0 31.6428V55.3449L2.88103 54.1925L12.7148 44.3587L0 31.6428Z" fill="#D6C990"/>
<path d="M15.5172 9.84729L11.8086 6.13867L0 10.8621V15.5504L15.5172 31.0676V9.84729Z" fill="#D6C990"/>
<path d="M30 27.0734V24.3299L15.5172 9.84717V31.0675L20.761 36.3113L30 27.0734Z" fill="#F7E6A1"/>
<path d="M30 45.5503V43.1658L28.8083 44.3585L30 45.5503Z" fill="#7383BF"/>
<path d="M39.4179 33.748L30 43.166V45.5505L36.8565 52.407L44.4828 49.138V38.8129L39.4179 33.748Z" fill="#6472A0"/>
<path d="M44.4828 12.5908V4.65527L31.8372 10.0749L39.4179 17.6556L44.4828 12.5908Z" fill="#D6C990"/>
<path d="M31.3717 25.7018L30 24.3301V27.0735L31.3717 25.7018Z" fill="#D6C990"/>
<path d="M49.8931 7.18045L44.4828 4.65527V12.5908L49.8931 7.18045Z" fill="#F7E6A1"/>
<path d="M60 38.2375V13.1658L47.4641 25.7016L60 38.2375Z" fill="#7383BF"/>
<path d="M44.4828 49.1379L60 55.3448V54.33L44.4828 38.8127V49.1379Z" fill="#7383BF"/>
<path d="M15.5172 41.5562V31.0675L0 15.5503V31.6427L12.7148 44.3586L15.5172 41.5562Z" fill="#D1AF43"/>
<path d="M21.4748 51.6911L30 55.3448V45.5504L28.8083 44.3586L21.4748 51.6911Z" fill="#EFCE4A"/>
<path d="M15.5172 31.0676V41.5563L20.761 36.3114L15.5172 31.0676Z" fill="#EFCE4A"/>
<path d="M30 55.3448L36.8565 52.4068L30 45.5503V55.3448Z" fill="#D1AF43"/>
<path d="M15.5172 4.65527L11.8086 6.13872L15.5172 9.84734V4.65527Z" fill="#D1AF43"/>
<path d="M30 10.8622L15.5172 4.65527V9.84734L30 24.3301V10.8622Z" fill="#EFCE4A"/>
<path d="M30 24.3299L31.3717 25.7016L39.4179 17.6554L31.8372 10.0747L30 10.8619V24.3299Z" fill="#D1AF43"/>
<path d="M44.4828 38.8128V28.6831L39.4179 33.7479L44.4828 38.8128Z" fill="#D1AF43"/>
<path d="M47.4641 25.7017L44.4828 28.683V38.8127L60 54.3299V38.2375L47.4641 25.7017Z" fill="#EFCE4A"/>
<path d="M15.5172 47.16L12.7148 44.3586L2.88103 54.1924L15.5172 49.138V47.16Z" fill="#D1AF43"/>
<path d="M15.5172 49.1378L18.9776 50.6213L15.5172 47.1599V49.1378Z" fill="#EFCE4A"/>
<path d="M20.761 36.3114L28.8083 44.3587L30 43.1659V27.0735L20.761 36.3114Z" fill="#EFCE4A"/>
<path d="M44.4828 12.5906L39.4179 17.6554L44.4828 22.7202V12.5906Z" fill="#D1AF43"/>
<path d="M30 27.0734V43.1658L39.4179 33.7479L31.3717 25.7017L30 27.0734Z" fill="#D1AF43"/>
<path d="M44.4828 22.7204L47.4641 25.7018L60 13.1659V11.8966L49.8931 7.18042L44.4828 12.5908V22.7204Z" fill="#EFCE4A"/>
<path d="M12.7148 44.3586L15.5172 47.1599V41.5562L12.7148 44.3586Z" fill="#D1AF43"/>
<path d="M20.761 36.3113L15.5172 41.5561V47.1599L18.9776 50.6213L21.4748 51.6909L28.8083 44.3585L20.761 36.3113Z" fill="#EFCE4A"/>
<path d="M39.4179 17.6555L31.3717 25.7017L39.4179 33.7479L44.4828 28.6831V22.7203L39.4179 17.6555Z" fill="#D1AF43"/>
<path d="M44.4828 28.6832L47.4641 25.7018L44.4828 22.7205V28.6832Z" fill="#EFCE4A"/>
</svg>
