<svg width="26" height="26" viewBox="0 0 26 26" fill="none" xmlns="http://www.w3.org/2000/svg">
<path d="M20.5664 13.0509C18.8863 13.0509 17.5195 14.4177 17.5195 16.0977C17.5195 17.7778 18.8863 19.1446 20.5664 19.1446H24.8828C24.9 19.1446 24.9168 19.1429 24.9338 19.142C24.9507 19.1428 24.9673 19.1445 24.9843 19.1445C25.5453 19.1445 26 18.6898 26 18.1289V10.1563C26 8.80417 25.3354 7.60498 24.3163 6.86616L20.8612 1.19796C20.7203 0.966809 20.493 0.801465 20.2296 0.7387C19.9662 0.675833 19.6888 0.720774 19.4587 0.863469L16.9106 2.44358L15.7616 0.498962C15.6234 0.265165 15.3974 0.0964702 15.134 0.0304546C14.8707 -0.0355609 14.5917 0.00673981 14.3597 0.147708L4.57584 6.09378H3.04687C2.49534 6.09378 2.04506 5.65188 2.03155 5.10355C2.04506 4.55521 2.49534 4.11331 3.04687 4.11331H4.92578C5.4867 4.11331 5.9414 3.65862 5.9414 3.09769C5.9414 2.53676 5.4867 2.08207 4.92578 2.08207H3.04687C1.60987 2.08207 0.402136 3.08215 0.0827733 4.42282C0.0296562 4.54602 0 4.6816 0 4.82425V5.07816V5.12894V21.9375C0 24.1776 1.82244 26 4.06249 26H21.9375C23.6889 26 25.2379 24.8843 25.7918 23.2237C25.9693 22.6917 25.6819 22.1164 25.1498 21.9389C24.6178 21.7614 24.0425 22.0489 23.865 22.581C23.5881 23.411 22.8135 23.9688 21.9375 23.9688H4.06249C2.94247 23.9688 2.03125 23.0575 2.03125 21.9375V7.9508C2.34909 8.06353 2.6909 8.12503 3.04687 8.12503H21.9375C23.0575 8.12503 23.9687 9.03624 23.9687 10.1563V13.0509H20.5664ZM23.9687 17.1133H20.5664C20.0064 17.1133 19.5508 16.6577 19.5508 16.0977C19.5508 15.5377 20.0064 15.082 20.5664 15.082H23.9687V17.1133ZM8.48696 6.09383L14.536 2.41763L15.6174 4.24783C15.6382 4.29785 15.6621 4.34716 15.6915 4.39469C15.7136 4.43029 15.7381 4.46345 15.7636 4.49534L16.7082 6.09383H8.48696ZM19.0676 6.09378L17.9442 4.19273L19.6594 3.12912L21.4666 6.09378H19.0676Z" fill="#33CC00"/>
</svg>
