<svg width="18" height="18" viewBox="0 0 18 18" fill="none" xmlns="http://www.w3.org/2000/svg">
<path d="M9 0.53125C7.42969 0.53125 5.97656 0.929687 4.64062 1.72656C3.30469 2.5 2.23828 3.55469 1.44141 4.89062C0.667969 6.22656 0.28125 7.67969 0.28125 9.25C0.28125 10.8203 0.667969 12.2734 1.44141 13.6094C2.23828 14.9453 3.30469 16 4.64062 16.7734C5.97656 17.5703 7.42969 17.9688 9 17.9688C10.5703 17.9688 12.0234 17.5703 13.3594 16.7734C14.6953 16 15.75 14.9453 16.5234 13.6094C17.3203 12.2734 17.7188 10.8203 17.7188 9.25C17.7188 7.67969 17.3203 6.22656 16.5234 4.89062C15.75 3.55469 14.6953 2.5 13.3594 1.72656C12.0234 0.929687 10.5703 0.53125 9 0.53125ZM9 1.65625C10.3828 1.65625 11.6484 1.99609 12.7969 2.67578C13.9688 3.35547 14.8945 4.28125 15.5742 5.45312C16.2539 6.60156 16.5938 7.86719 16.5938 9.25H12.8672C12.75 8.59375 12.4336 8.05469 11.918 7.63281C11.4023 7.21094 10.8047 7 10.125 7H7.875C7.19531 7 6.59766 7.21094 6.08203 7.63281C5.56641 8.05469 5.25 8.59375 5.13281 9.25H1.40625C1.40625 7.86719 1.74609 6.60156 2.42578 5.45312C3.10547 4.28125 4.01953 3.35547 5.16797 2.67578C6.33984 1.99609 7.61719 1.65625 9 1.65625ZM8.78906 12.2031L6.43359 9.8125C6.24609 9.64844 6.19922 9.44922 6.29297 9.21484C6.43359 8.88672 6.64453 8.62891 6.92578 8.44141C7.20703 8.23047 7.52344 8.125 7.875 8.125H10.125C10.4766 8.125 10.793 8.23047 11.0742 8.44141C11.3555 8.62891 11.5664 8.88672 11.707 9.21484C11.8008 9.44922 11.7539 9.64844 11.5664 9.8125L9.21094 12.2031C9.14062 12.25 9.07031 12.2734 9 12.2734C8.92969 12.2734 8.85938 12.25 8.78906 12.2031ZM1.51172 10.375H5.37891L8.4375 13.4336V16.8086C7.26562 16.7383 6.17578 16.4102 5.16797 15.8242C4.18359 15.2383 3.36328 14.4766 2.70703 13.5391C2.07422 12.5781 1.67578 11.5234 1.51172 10.375ZM9.5625 16.8086V13.4336L12.6211 10.375H16.4883C16.3242 11.5234 15.9141 12.5781 15.2578 13.5391C14.625 14.4766 13.8047 15.2383 12.7969 15.8242C11.8125 16.4102 10.7344 16.7383 9.5625 16.8086Z" fill="#555555"/>
</svg>
