<svg width="18" height="15" viewBox="0 0 18 15" fill="none" xmlns="http://www.w3.org/2000/svg">
<path d="M17.7891 2.25781H4.71094C4.66406 2.25781 4.61719 2.23437 4.57031 2.1875C4.52344 2.14063 4.5 2.09375 4.5 2.04688V1.20312C4.5 1.15625 4.52344 1.10937 4.57031 1.0625C4.61719 1.01563 4.66406 0.992188 4.71094 0.992188H17.7891C17.8359 0.992188 17.8828 1.01563 17.9297 1.0625C17.9766 1.10937 18 1.15625 18 1.20312V2.04688C18 2.09375 17.9766 2.14063 17.9297 2.1875C17.8828 2.23437 17.8359 2.25781 17.7891 2.25781ZM18 7.67188V6.82812C18 6.78125 17.9766 6.73438 17.9297 6.6875C17.8828 6.64062 17.8359 6.61719 17.7891 6.61719H4.71094C4.66406 6.61719 4.61719 6.64062 4.57031 6.6875C4.52344 6.73438 4.5 6.78125 4.5 6.82812V7.67188C4.5 7.71875 4.52344 7.76562 4.57031 7.8125C4.61719 7.85938 4.66406 7.88281 4.71094 7.88281H17.7891C17.8359 7.88281 17.8828 7.85938 17.9297 7.8125C17.9766 7.76562 18 7.71875 18 7.67188ZM18 13.2969V12.4531C18 12.4062 17.9766 12.3594 17.9297 12.3125C17.8828 12.2656 17.8359 12.2422 17.7891 12.2422H4.71094C4.66406 12.2422 4.61719 12.2656 4.57031 12.3125C4.52344 12.3594 4.5 12.4062 4.5 12.4531V13.2969C4.5 13.3438 4.52344 13.3906 4.57031 13.4375C4.61719 13.4844 4.66406 13.5078 4.71094 13.5078H17.7891C17.8359 13.5078 17.8828 13.4844 17.9297 13.4375C17.9766 13.3906 18 13.3438 18 13.2969ZM1.6875 0.359375C1.33594 0.359375 1.03125 0.488281 0.773438 0.746094C0.539062 0.980469 0.421875 1.27344 0.421875 1.625C0.421875 1.97656 0.539062 2.28125 0.773438 2.53906C1.03125 2.77344 1.33594 2.89062 1.6875 2.89062C2.03906 2.89062 2.33203 2.77344 2.56641 2.53906C2.82422 2.28125 2.95312 1.97656 2.95312 1.625C2.95312 1.27344 2.82422 0.980469 2.56641 0.746094C2.33203 0.488281 2.03906 0.359375 1.6875 0.359375ZM1.6875 5.98438C1.33594 5.98438 1.03125 6.11328 0.773438 6.37109C0.539062 6.60547 0.421875 6.89844 0.421875 7.25C0.421875 7.60156 0.539062 7.90625 0.773438 8.16406C1.03125 8.39844 1.33594 8.51562 1.6875 8.51562C2.03906 8.51562 2.33203 8.39844 2.56641 8.16406C2.82422 7.90625 2.95312 7.60156 2.95312 7.25C2.95312 6.89844 2.82422 6.60547 2.56641 6.37109C2.33203 6.11328 2.03906 5.98438 1.6875 5.98438ZM1.6875 11.6094C1.33594 11.6094 1.03125 11.7383 0.773438 11.9961C0.539062 12.2305 0.421875 12.5234 0.421875 12.875C0.421875 13.2266 0.539062 13.5312 0.773438 13.7891C1.03125 14.0234 1.33594 14.1406 1.6875 14.1406C2.03906 14.1406 2.33203 14.0234 2.56641 13.7891C2.82422 13.5312 2.95312 13.2266 2.95312 12.875C2.95312 12.5234 2.82422 12.2305 2.56641 11.9961C2.33203 11.7383 2.03906 11.6094 1.6875 11.6094Z" fill="#0033CC"/>
</svg>
