<svg width="5" height="19" viewBox="0 0 5 19" fill="none" xmlns="http://www.w3.org/2000/svg">
<path d="M0 16.25C0 17.6284 1.12156 18.75 2.5 18.75C3.87844 18.75 5 17.6284 5 16.25C5 14.8716 3.87844 13.75 2.5 13.75C1.12156 13.75 0 14.8716 0 16.25ZM4.375 16.25C4.375 17.2841 3.53406 18.125 2.5 18.125C1.46594 18.125 0.625 17.2841 0.625 16.25C0.625 15.2159 1.46594 14.375 2.5 14.375C3.53406 14.375 4.375 15.2159 4.375 16.25Z" fill="#797979"/>
<path d="M0 2.5C0 3.87844 1.12156 5 2.5 5C3.87844 5 5 3.87844 5 2.5C5 1.12156 3.87844 -9.53674e-07 2.5 -9.53674e-07C1.12156 -9.53674e-07 0 1.12156 0 2.5ZM4.375 2.5C4.375 3.53406 3.53406 4.375 2.5 4.375C1.46594 4.375 0.625 3.53406 0.625 2.5C0.625 1.46594 1.46594 0.624999 2.5 0.624999C3.53406 0.624999 4.375 1.46594 4.375 2.5Z" fill="#797979"/>
<path d="M0 9.375C0 10.7534 1.12156 11.875 2.5 11.875C3.87844 11.875 5 10.7534 5 9.375C5 7.99656 3.87844 6.875 2.5 6.875C1.12156 6.875 0 7.99656 0 9.375ZM4.375 9.375C4.375 10.4091 3.53406 11.25 2.5 11.25C1.46594 11.25 0.625 10.4091 0.625 9.375C0.625 8.34094 1.46594 7.5 2.5 7.5C3.53406 7.5 4.375 8.34094 4.375 9.375Z" fill="#797979"/>
</svg>
