<svg width="27" height="30" viewBox="0 0 27 30" fill="none" xmlns="http://www.w3.org/2000/svg">
<path d="M25.2576 0H5.42393C3.58633 0 2.09443 1.49183 2.09443 3.3295V5.52778H0.834821C0.375421 5.52778 0 5.89823 0 6.3626C0 6.82697 0.375421 7.19253 0.834821 7.19253H2.0945V22.8026H0.834821C0.375421 22.8026 0 23.173 0 23.6374C0 24.0968 0.370531 24.4722 0.834821 24.4722H2.0945V26.6705C2.0945 28.5081 3.58633 30 5.42401 30H25.2577C25.7171 30 26.0925 29.6295 26.0925 29.1652V0.829931C26.0974 0.370531 25.717 0 25.2576 0ZM24.4227 7.82478H21.3205C20.8611 7.82478 20.4856 8.19523 20.4856 8.6596C20.4856 9.119 20.8561 9.49442 21.3205 9.49442H24.4227V10.9764H22.8914C22.432 10.9764 22.0566 11.3468 22.0566 11.8112C22.0566 12.2706 22.427 12.646 22.8914 12.646H24.4227V28.3351H5.42393C4.50513 28.3351 3.75918 27.5843 3.75918 26.6703V24.4721H5.01886C5.47826 24.4721 5.85368 24.1016 5.85368 23.6372C5.85368 23.1778 5.48315 22.8024 5.01886 22.8024H3.75918V7.19245H5.01886C5.47826 7.19245 5.85368 6.82192 5.85368 6.35763C5.85368 5.89823 5.48315 5.52281 5.01886 5.52281H3.75918V3.32454C3.75918 2.40574 4.51002 1.65979 5.42393 1.65979H24.4277L24.4227 7.82478Z" fill="#33CC00"/>
<path d="M20.9598 17.339L19.4185 15.8027C18.9641 15.3482 18.3614 15.1012 17.7192 15.1012C17.077 15.1012 16.4743 15.3482 16.0199 15.8027C16.0199 15.8027 15.4716 16.346 15.4123 16.346C15.0566 16.346 14.3799 16.0447 13.7131 15.3828C12.8782 14.548 12.6905 13.7724 12.7399 13.634L13.2932 13.0808C14.2317 12.1422 14.2317 10.6109 13.2932 9.67229L11.747 8.13102C10.8825 7.26655 9.27707 7.19243 8.33848 8.13102L7.4394 9.03011C5.50299 10.9665 6.7626 15.2544 10.2996 18.7913C12.6312 21.1229 15.4272 22.5654 17.5908 22.5654C18.5986 22.5654 19.4581 22.2443 20.0607 21.6466L20.9598 20.7475C21.8984 19.8089 21.8983 18.2874 20.9598 17.339ZM19.7742 19.5619L18.8751 20.461C18.5837 20.7525 18.1539 20.8908 17.5858 20.8908C15.8717 20.8908 13.4709 19.5965 11.4751 17.5959C8.45685 14.5826 7.5479 11.2777 8.61984 10.2008L9.51892 9.30176C9.80051 9.02017 10.3142 9.04982 10.5662 9.30176L12.1074 10.843C12.3989 11.1345 12.3989 11.6038 12.1074 11.8903L11.5542 12.4435C10.6453 13.3525 11.0602 15.0765 12.5273 16.5485C13.4363 17.4575 14.5132 18.0009 15.4023 18.0009C15.8963 18.0009 16.3211 17.8379 16.6324 17.5266L17.1856 16.9734C17.4622 16.6968 17.9513 16.6968 18.2329 16.9734L19.7741 18.5147C20.0656 18.8061 20.0656 19.2705 19.7742 19.5619Z" fill="#33CC00"/>
</svg>
