<svg width="11" height="16" viewBox="0 0 11 16" fill="none" xmlns="http://www.w3.org/2000/svg">
<path fill-rule="evenodd" clip-rule="evenodd" d="M0 5.65996C0 2.53906 2.4538 0 5.4699 0C8.486 0 10.9398 2.53906 10.9398 5.65996C10.9398 6.68312 10.673 7.68584 10.1683 8.55974L5.93691 15.0368C5.85526 15.1779 5.70842 15.2648 5.54946 15.2661H5.54584C5.38825 15.2661 5.24171 15.1818 5.15854 15.0431L0.816504 8.63621C0.282277 7.74345 0 6.71441 0 5.65996ZM5.53894 13.8884L9.38592 8.07544C9.80598 7.34813 10.0312 6.51275 10.0312 5.65996C10.0312 3.05921 7.98332 0.937037 5.4699 0.937037C2.95648 0.937037 0.905572 3.05921 0.905572 5.65996C0.905572 6.53882 1.14667 7.39612 1.59135 8.13921L5.53894 13.8884ZM2.73515 5.65996C2.73515 4.09951 3.96205 2.82998 5.4701 2.82998C6.97815 2.82998 8.20505 4.09951 8.20505 5.65996C8.20505 7.1934 7.01696 8.48993 5.4701 8.48993C3.94208 8.48993 2.73515 7.21044 2.73515 5.65996ZM3.64072 5.65996C3.64072 6.70287 4.45947 7.5529 5.4701 7.5529C6.49674 7.5529 7.29644 6.68765 7.29644 5.65996C7.29644 4.61966 6.47547 3.76701 5.4701 3.76701C4.46473 3.76701 3.64072 4.61966 3.64072 5.65996Z" fill="#0033CC"/>
</svg>
