<svg width="70" height="70" viewBox="0 0 70 70" fill="none" xmlns="http://www.w3.org/2000/svg">
<path d="M23.8714 47.7337C27.8211 51.4907 27.8211 57.663 23.8714 61.4201C19.9218 65.1771 8.28409 70.0747 4.33443 66.3178C0.384765 62.5608 5.53338 51.4909 9.48322 47.7339C13.4329 43.9768 19.8512 43.9768 23.8714 47.7337Z" fill="#FFECBA"/>
<path d="M23.7209 47.4447C27.0926 50.8164 27.0926 56.3556 23.7209 59.7274C20.3493 63.0991 10.4147 67.4944 7.04301 64.1227C3.67135 60.7511 8.06651 50.8165 11.4383 47.4449C14.81 44.0731 20.289 44.0731 23.7209 47.4447Z" fill="#FFDF8A"/>
<path d="M23.3822 47.6956C26.3436 50.657 26.3436 55.5223 23.3822 58.4838C20.4208 61.4452 11.6951 65.3057 8.73367 62.3443C5.77227 59.3829 9.63263 50.6572 12.5942 47.6958C15.5556 44.7342 20.3679 44.7342 23.3822 47.6956Z" fill="#EFC75E"/>
<path d="M14.5508 46.268V46.5853C14.5508 52.0851 19.0459 56.5802 24.5457 56.5802H24.7572C26.2379 53.7245 25.7619 50.1285 23.3293 47.6959C21.0025 45.3161 17.4065 44.8401 14.5508 46.268Z" fill="#DEB957"/>
<path d="M38.9296 31.0901C47.9727 40.1332 49.7706 52.9837 41.2035 61.5507L37.1316 65.6227C28.5645 74.1897 34.4874 53.6182 25.4444 44.5752C16.4014 35.5321 -4.22303 41.508 4.39692 32.888L8.46889 28.8161C17.0361 20.2491 29.8866 22.0472 38.9296 31.0901Z" fill="#F26C4F"/>
<path d="M68.8613 1.15864C71.6112 3.90856 70.395 21.3599 53.5253 38.2825C42.5256 49.2293 35.5979 53.0898 35.5979 53.0898C28.2471 58.0609 24.704 54.6763 20.0502 50.0226C15.3965 45.369 11.9592 41.8258 16.983 34.475C16.983 34.475 20.8964 27.4944 31.8432 16.4947C48.7128 -0.374894 66.1114 -1.64405 68.8613 1.15864Z" fill="#AFECFF"/>
<path d="M38.5073 50.7103C30.8393 55.84 27.1375 52.3497 22.3251 47.5373C17.4598 42.6721 13.9166 39.0232 19.1521 31.3551L19.9454 30.0859C17.8829 32.8888 16.984 34.4752 16.984 34.4752C11.9601 41.826 15.3975 45.3691 20.0512 50.0228C24.7048 54.6766 28.248 58.0082 35.5988 53.09C35.5988 53.09 38.8775 51.2391 44.5361 46.5325C40.6756 49.4941 38.5073 50.7103 38.5073 50.7103Z" fill="#6AD4F5"/>
<path d="M51.1455 18.8751C53.7368 21.4664 53.7368 25.6441 51.1455 28.2355C48.5543 30.8267 44.3765 30.8267 41.7852 28.2355C39.194 25.6443 39.194 21.4665 41.7852 18.8751C44.3764 16.2838 48.6072 16.2838 51.1455 18.8751Z" fill="#AFECFF"/>
<path d="M35.8631 35.2686C37.1852 36.5906 34.6469 41.2972 28.195 47.749C21.7432 54.2008 17.8299 55.9459 16.5079 54.5709C15.1858 53.2488 16.8781 49.3354 23.3298 42.8837C29.8344 36.432 34.4882 33.8936 35.8631 35.2686Z" fill="#F26C4F"/>
<path d="M46.4926 18.5044C47.8146 18.5044 49.0838 19.0332 50.0358 19.9852C50.9876 20.937 51.5165 22.2063 51.5165 23.5284C51.5165 24.8504 50.9878 26.1196 50.0358 27.0716C49.0839 28.0234 47.8146 28.5524 46.4926 28.5524C45.1705 28.5524 43.9014 28.0236 42.9494 27.0716C41.9975 26.1197 41.4686 24.8504 41.4686 23.5284C41.4686 22.2063 41.9974 20.9372 42.9494 19.9852C43.9012 19.0332 45.1705 18.5044 46.4926 18.5044ZM46.4926 16.918C44.8003 16.918 43.1081 17.5525 41.8389 18.8746C39.2477 21.4658 39.2477 25.6436 41.8389 28.2349C43.1081 29.5041 44.8003 30.1916 46.4926 30.1916C48.1848 30.1916 49.8771 29.557 51.1462 28.2349C53.7374 25.6437 53.7374 21.4659 51.1462 18.8746C49.8771 17.5525 48.1848 16.918 46.4926 16.918Z" fill="#0033CC"/>
<path d="M52.6797 2.48003C53.1557 6.02323 55.0594 9.77792 58.1795 12.898C60.9294 15.595 64.1024 17.3931 67.2226 18.1335C70.7127 9.4605 70.4483 2.79731 68.8619 1.15784C67.3282 -0.428603 60.9823 -0.692988 52.6797 2.48003Z" fill="#F26C4F"/>
</svg>
