<svg width="18" height="21" viewBox="0 0 18 21" fill="none" xmlns="http://www.w3.org/2000/svg">
<path d="M11.7559 12.3125C15.3945 12.3125 18 10.0664 18 6.5625C18 3.05859 15.3945 0.8125 11.7559 0.8125H5.60156C5.28711 0.8125 5.0625 1.08203 5.0625 1.35156V10.5156H1.28906C0.974609 10.5156 0.75 10.7852 0.75 11.0547V11.7734C0.75 12.0879 0.974609 12.3125 1.28906 12.3125H5.0625V14.918H1.28906C0.974609 14.918 0.75 15.1875 0.75 15.457V16.0859C0.75 16.4004 0.974609 16.625 1.28906 16.625H5.0625V20.3984C5.0625 20.7129 5.28711 20.9375 5.60156 20.9375H6.45508C6.76953 20.9375 6.99414 20.7129 6.99414 20.3984V16.625H14.5859C14.8555 16.625 15.125 16.4004 15.125 16.0859V15.457C15.125 15.1875 14.8555 14.918 14.5859 14.918H6.99414V12.3125H11.7559ZM6.99414 2.60938H11.7109C14.3613 2.60938 16.1133 4.04688 16.1133 6.51758C16.1133 9.0332 14.3613 10.5156 11.666 10.5156H6.99414V2.60938Z" fill="black"/>
</svg>
