<svg width="20" height="20" viewBox="0 0 20 20" fill="none" xmlns="http://www.w3.org/2000/svg">
<path d="M17.0711 3.19086C15.1823 1.33159 12.6711 0.307617 10 0.307617C7.32887 0.307617 4.81766 1.33159 2.92891 3.19086C1.0402 5.05016 0 7.52226 0 10.1517C0 12.7812 1.0402 15.2532 2.92891 17.1125C4.81766 18.9718 7.32891 19.9958 10 19.9958C12.6711 19.9958 15.1823 18.9718 17.0711 17.1125C18.9598 15.2532 20 12.7812 20 10.1517C20 7.52226 18.9598 5.0502 17.0711 3.19086ZM14.7776 7.80885L9.1891 13.3102C9.07469 13.4229 8.92473 13.4792 8.7748 13.4792C8.62484 13.4792 8.47488 13.4229 8.36047 13.3102L5.22242 10.2211C4.99359 9.99593 4.99359 9.63074 5.22242 9.40544C5.45121 9.18018 5.82223 9.18018 6.05105 9.40544L8.7748 12.0867L13.9489 6.99314C14.1777 6.76788 14.5487 6.76788 14.7776 6.99314C15.0064 7.2184 15.0064 7.58359 14.7776 7.80885Z" fill="#33CC00"/>
</svg>
