<svg width="18" height="18" viewBox="0 0 18 18" fill="none" xmlns="http://www.w3.org/2000/svg">
<path d="M0.527344 18H10.0898C10.3811 18 10.6172 17.7639 10.6172 17.4727V16.9102C10.6172 16.3276 10.1451 15.8555 9.5625 15.8555V15.225C9.5625 14.3902 8.88327 13.7109 8.04845 13.7109H2.56874C1.73392 13.7109 1.05469 14.3902 1.05469 15.225V15.8555C0.472137 15.8555 0 16.3276 0 16.9102V17.4727C0 17.7638 0.236206 18 0.527344 18Z" fill="#999999"/>
<path d="M6.6 11.614C6.95047 12.0792 7.61184 12.1721 8.07698 11.8215C8.54225 11.4711 8.63508 10.8097 8.28462 10.3444L5.11094 6.13293C4.76034 5.66766 4.0991 5.57483 3.63397 5.92529C3.1687 6.27589 3.07573 6.93714 3.42633 7.40241L6.6 11.614Z" fill="#999999"/>
<path d="M14.1807 5.90104C14.5313 6.36618 15.1926 6.45915 15.6579 6.10855C16.123 5.75808 16.216 5.09684 15.8654 4.63157L12.6917 0.420102C12.3412 -0.0451691 11.6798 -0.138141 11.2147 0.21246C10.7496 0.563061 10.6566 1.2243 11.0072 1.68957L14.1807 5.90104Z" fill="#999999"/>
<path d="M11.8674 8.9646C12.6469 8.37724 13.2321 7.64789 13.5981 6.87994L9.90527 1.97949C9.06619 2.11971 8.2039 2.48102 7.42429 3.06851C6.64481 3.65587 6.05965 4.38522 5.69366 5.15303L9.38644 10.0538C10.2255 9.91354 11.0878 9.55209 11.8674 8.9646Z" fill="#999999"/>
<path d="M13.2914 9.10156C13.0459 9.35178 12.7873 9.59169 12.5022 9.80661C12.2169 10.0214 11.915 10.2039 11.6069 10.371L12.2945 11.2836L13.9792 10.0143L13.2914 9.10156Z" fill="#999999"/>
<path d="M14.6139 10.8574L12.9293 12.1268L16.1029 16.3384C16.4535 16.8036 17.1148 16.8965 17.5799 16.546C18.0452 16.1954 18.138 15.5342 17.7876 15.0689L14.6139 10.8574Z" fill="#999999"/>
</svg>
