<svg width="25" height="25" viewBox="0 0 25 25" fill="none" xmlns="http://www.w3.org/2000/svg">
<path d="M21.9974 0H14.9254C14.1242 0 13.3707 0.312057 12.8035 0.878546L1.87293 11.8093C0.703815 12.9794 0.703815 14.8828 1.87293 16.0524L8.94501 23.1245C9.51198 23.6914 10.2658 24.0035 11.0669 24.0035C11.8685 24.0035 12.6221 23.6914 13.1885 23.1245L24.1191 12.1937C24.6858 11.6272 24.9979 10.8737 24.9979 10.0725V3.00044C24.9979 1.34566 23.6522 0 21.9974 0ZM22.9976 10.0725C22.9976 10.3394 22.8936 10.5911 22.7051 10.7801L11.774 21.7102C11.3963 22.0882 10.7373 22.0882 10.3593 21.7102L3.28769 14.6381C2.89774 14.2482 2.89774 13.6136 3.28769 13.2234L14.2177 2.2933C14.4067 2.10431 14.6582 2.00029 14.9254 2.00029H21.9974C22.549 2.00029 22.9976 2.44884 22.9976 3.00044V10.0725Z" fill="#33CC00"/>
<path d="M20.4252 4.43869C19.8636 3.84461 19.1045 3.51156 18.2879 3.50057C17.4773 3.4847 16.7032 3.80115 16.125 4.37863C14.9684 5.53529 14.9425 7.37272 16.0667 8.56137L16.3177 8.82679C16.8793 9.42038 17.6382 9.75343 18.4554 9.76442H18.4984C19.2996 9.76442 20.0506 9.45334 20.6181 8.88588C21.775 7.72921 21.8004 5.89203 20.6762 4.70387L20.4252 4.43869ZM19.2041 7.4721C19.0114 7.66475 18.756 7.77023 18.4835 7.76462C18.2113 7.7612 17.9583 7.6501 17.7713 7.45207L17.5202 7.18617C17.1457 6.79011 17.1542 6.17796 17.5398 5.79241C17.7283 5.6039 17.9783 5.50037 18.2455 5.50037H18.2599C18.5319 5.50428 18.7851 5.61489 18.9719 5.81292L19.2231 6.07907C19.5977 6.47464 19.5896 7.08654 19.2041 7.4721Z" fill="#33CC00"/>
</svg>
