<svg width="50" height="50" viewBox="0 0 50 50" fill="none" xmlns="http://www.w3.org/2000/svg">
<path d="M30.0516 45.5395C29.6431 45.647 29.224 45.7329 28.8048 45.8082C27.7192 46.0124 26.9884 47.055 27.1926 48.1513C27.2893 48.6887 27.601 49.1401 28.0094 49.4303C28.4393 49.7312 28.9767 49.871 29.5356 49.7635C30.0301 49.6667 30.5352 49.5593 31.0296 49.441C32.1044 49.1723 32.7601 48.0868 32.4914 47.0012C32.2227 45.9264 31.1264 45.2708 30.0516 45.5395Z" fill="#808080"/>
<path d="M44.9161 18.5941C45.0559 19.0133 45.3246 19.368 45.6685 19.6044C46.1737 19.9591 46.8293 20.0773 47.4634 19.8731C48.5167 19.5185 49.0864 18.3899 48.7424 17.3366C48.5812 16.8529 48.4093 16.38 48.2158 15.9071C47.8074 14.8753 46.6358 14.3701 45.604 14.7893C44.5722 15.1977 44.067 16.3693 44.4862 17.4011C44.6367 17.788 44.7764 18.1964 44.9161 18.5941Z" fill="#808080"/>
<path d="M36.5864 42.6699C36.2318 42.9064 35.8663 43.1321 35.5009 43.347C34.5443 43.9059 34.2111 45.1312 34.7593 46.0878C34.9097 46.3458 35.114 46.5607 35.3397 46.7219C35.9631 47.1626 36.8014 47.2271 37.5 46.8187C37.9407 46.5607 38.3706 46.292 38.8005 46.0126C39.7249 45.3999 39.9828 44.1532 39.3702 43.2288C38.7576 42.3152 37.5108 42.0573 36.5864 42.6699Z" fill="#808080"/>
<path d="M49.9786 24.2154C49.9356 23.1083 49.0005 22.2377 47.8934 22.2807C46.7864 22.3237 45.9158 23.2588 45.9695 24.3658C45.991 24.785 45.991 25.2149 45.9803 25.6448C45.9695 26.3435 46.3027 26.9561 46.8294 27.3323C47.1411 27.558 47.528 27.687 47.9364 27.6977C49.0435 27.7192 49.9678 26.8379 49.9893 25.7308C50 25.2364 50 24.7205 49.9786 24.2154Z" fill="#808080"/>
<path d="M44.583 37.3817C43.6909 36.7153 42.4334 36.898 41.767 37.7794C41.509 38.1233 41.2403 38.4565 40.9716 38.7789C40.2515 39.628 40.359 40.8963 41.1974 41.6164C41.2403 41.6594 41.2941 41.6917 41.3478 41.7347C42.1862 42.3258 43.3577 42.1861 44.0348 41.3907C44.368 41.0038 44.6797 40.6061 44.9914 40.1977C45.6578 39.3056 45.4751 38.0481 44.583 37.3817Z" fill="#808080"/>
<path d="M47.5387 30.1161C46.4747 29.7829 45.3461 30.3741 45.0237 31.4381C44.8947 31.8465 44.755 32.2442 44.6045 32.6526C44.2713 33.534 44.5938 34.4906 45.3246 35.0065C45.4644 35.1032 45.6041 35.1784 45.7653 35.2429C46.7971 35.6406 47.9687 35.1139 48.3556 34.0821C48.5383 33.6092 48.6995 33.1256 48.85 32.6419C49.1939 31.5778 48.6028 30.4493 47.5387 30.1161Z" fill="#808080"/>
<path d="M21.2812 45.8297C19.4862 45.5072 17.7558 44.9591 16.1221 44.196C16.1006 44.1852 16.0899 44.1745 16.0684 44.1637C15.6814 43.981 15.2945 43.7876 14.9291 43.5833C14.9291 43.5833 14.9291 43.5833 14.9183 43.5833C14.2304 43.2072 13.5641 42.788 12.9192 42.3366C3.46088 35.6728 1.19304 22.5601 7.85684 13.1126C9.30783 11.0597 11.0598 9.34001 13.0159 7.98576C13.0374 7.96426 13.0589 7.95351 13.0911 7.93202C19.9807 3.19212 29.3315 2.86968 36.6402 7.73855L35.0709 10.0064C34.6303 10.6405 34.899 11.1027 35.6621 11.0275L42.4871 10.4148C43.2502 10.3503 43.7124 9.68395 43.5082 8.94234L41.681 2.34302C41.4768 1.60141 40.9501 1.51542 40.5095 2.14956L38.9402 4.42815C33.5555 0.8168 27.1174 -0.548204 20.733 0.558846C20.0881 0.666327 19.454 0.806052 18.8306 0.967273H18.8199C18.7984 0.978021 18.7661 0.978021 18.7446 0.988769C13.2416 2.40751 8.42648 5.62118 4.99785 10.1999C4.96561 10.2321 4.94411 10.2643 4.91187 10.3073C4.79364 10.4578 4.68616 10.619 4.57868 10.7803C4.39596 11.0382 4.22399 11.3069 4.05202 11.5649C4.03052 11.5971 4.00903 11.6294 3.99828 11.6616C1.17154 16.0468 -0.193465 21.1199 0.0322447 26.279C0.0322447 26.3005 0.0322447 26.3112 0.0322447 26.3327C0.0537408 26.8379 0.0967331 27.343 0.150473 27.8482C0.150473 27.8804 0.161221 27.9127 0.161221 27.9449C0.214962 28.4501 0.290198 28.9552 0.376183 29.4604C1.26827 34.6302 3.71883 39.2949 7.37317 42.917C7.38392 42.9277 7.39467 42.9385 7.39467 42.9385C7.39467 42.9385 7.40542 42.9385 7.40542 42.9492C8.38349 43.9165 9.4583 44.8194 10.6083 45.6255C13.6178 47.7428 16.9712 49.1508 20.5718 49.7957C21.6681 49.9892 22.7107 49.2691 22.9041 48.1728C23.0976 47.0657 22.3775 46.0232 21.2812 45.8297Z" fill="#808080"/>
<path d="M23.764 8.94238C22.8611 8.94238 22.141 9.67325 22.141 10.5653V26.7627L36.9626 34.4261C37.199 34.5443 37.457 34.6088 37.7042 34.6088C38.2953 34.6088 38.865 34.2863 39.1552 33.7274C39.5636 32.9321 39.2519 31.954 38.4566 31.5348L25.3977 24.785V10.5653C25.3869 9.67325 24.6668 8.94238 23.764 8.94238Z" fill="#808080"/>
</svg>
