<svg width="18" height="18" viewBox="0 0 18 18" fill="none" xmlns="http://www.w3.org/2000/svg">
<path d="M8.99281 0C11.4761 0 13.7246 1.00981 15.3567 2.63543C16.9824 4.26803 17.9922 6.51645 17.9922 8.99978C17.9922 11.4831 16.9824 13.7315 15.3567 15.3641C13.7241 16.9898 11.4761 17.9996 8.99281 17.9996C6.50948 17.9996 4.2615 16.9898 2.63587 15.3641C1.00327 13.7315 0 11.4835 0 8.99978C0 6.51645 1.00283 4.26803 2.63543 2.63543C4.2615 1.00981 6.50948 0 8.99281 0ZM13.5794 8.50861C13.8492 8.50861 14.0636 8.73001 14.0636 8.99978C14.0636 9.26956 13.8492 9.49096 13.5794 9.49096H9.00676H8.99281C8.81281 9.49096 8.65374 9.38723 8.57093 9.2421L8.56396 9.23513L8.55698 9.22118V9.21421L8.55001 9.20026L8.54304 9.18632V9.17934L8.53607 9.1654L8.52909 9.15842V9.14448L8.52212 9.13053V9.12356L8.51515 9.10961V9.09566V9.08869V9.08172L8.50817 9.07475V9.0608V9.04685V9.03465V9.02768V9.01373V8.99978V3.14055C8.50817 2.87078 8.7226 2.65635 8.99237 2.65635C9.26215 2.65635 9.48355 2.87078 9.48355 3.14055V8.50861H13.5794ZM14.6651 3.32752C13.2125 1.87492 11.2064 0.982349 8.99281 0.982349C6.77926 0.982349 4.77315 1.87448 3.32055 3.32752C1.87492 4.78013 0.975376 6.78623 0.975376 8.99978C0.975376 11.2133 1.87448 13.2194 3.32055 14.6725C4.77315 16.1251 6.77926 17.0177 8.99281 17.0177C11.2064 17.0177 13.2125 16.1251 14.6651 14.6725C16.1177 13.2199 17.0172 11.2138 17.0172 8.99978C17.0172 6.78623 16.1181 4.78013 14.6651 3.32752Z" fill="#999999"/>
</svg>
