<svg width="18" height="17" viewBox="0 0 18 17" fill="none" xmlns="http://www.w3.org/2000/svg">
<path d="M17.7188 12.75H6.75V11.3438C6.75 11.1094 6.66797 10.9102 6.50391 10.7461C6.33984 10.582 6.14062 10.5 5.90625 10.5H4.21875C3.98438 10.5 3.78516 10.582 3.62109 10.7461C3.45703 10.9102 3.375 11.1094 3.375 11.3438V12.75H0.28125C0.210938 12.75 0.140625 12.7852 0.0703125 12.8555C0.0234375 12.9023 0 12.9609 0 13.0312V13.5938C0 13.6641 0.0234375 13.7344 0.0703125 13.8047C0.140625 13.8516 0.210938 13.875 0.28125 13.875H3.375V15.2812C3.375 15.5156 3.45703 15.7148 3.62109 15.8789C3.78516 16.043 3.98438 16.125 4.21875 16.125H5.90625C6.14062 16.125 6.33984 16.043 6.50391 15.8789C6.66797 15.7148 6.75 15.5156 6.75 15.2812V13.875H17.7188C17.7891 13.875 17.8477 13.8516 17.8945 13.8047C17.9648 13.7344 18 13.6641 18 13.5938V13.0312C18 12.9609 17.9648 12.9023 17.8945 12.8555C17.8477 12.7852 17.7891 12.75 17.7188 12.75ZM5.625 15H4.5V11.625H5.625V15ZM17.7188 2.625H9V1.21875C9 0.984375 8.91797 0.785156 8.75391 0.621094C8.58984 0.457031 8.39062 0.375 8.15625 0.375H6.46875C6.23438 0.375 6.03516 0.457031 5.87109 0.621094C5.70703 0.785156 5.625 0.984375 5.625 1.21875V2.625H0.28125C0.210938 2.625 0.140625 2.66016 0.0703125 2.73047C0.0234375 2.77734 0 2.83594 0 2.90625V3.46875C0 3.53906 0.0234375 3.60938 0.0703125 3.67969C0.140625 3.72656 0.210938 3.75 0.28125 3.75H5.625V5.15625C5.625 5.39063 5.70703 5.58984 5.87109 5.75391C6.03516 5.91797 6.23438 6 6.46875 6H8.15625C8.39062 6 8.58984 5.91797 8.75391 5.75391C8.91797 5.58984 9 5.39063 9 5.15625V3.75H17.7188C17.7891 3.75 17.8477 3.72656 17.8945 3.67969C17.9648 3.60938 18 3.53906 18 3.46875V2.90625C18 2.83594 17.9648 2.77734 17.8945 2.73047C17.8477 2.66016 17.7891 2.625 17.7188 2.625ZM7.875 4.875H6.75V1.5H7.875V4.875ZM17.7188 7.6875H14.625V6.28125C14.625 6.04688 14.543 5.84766 14.3789 5.68359C14.2148 5.51953 14.0156 5.4375 13.7812 5.4375H12.0938C11.8594 5.4375 11.6602 5.51953 11.4961 5.68359C11.332 5.84766 11.25 6.04688 11.25 6.28125V7.6875H0.28125C0.210938 7.6875 0.140625 7.72266 0.0703125 7.79297C0.0234375 7.83984 0 7.89844 0 7.96875V8.53125C0 8.60156 0.0234375 8.67188 0.0703125 8.74219C0.140625 8.78906 0.210938 8.8125 0.28125 8.8125H11.25V10.2188C11.25 10.4531 11.332 10.6523 11.4961 10.8164C11.6602 10.9805 11.8594 11.0625 12.0938 11.0625H13.7812C14.0156 11.0625 14.2148 10.9805 14.3789 10.8164C14.543 10.6523 14.625 10.4531 14.625 10.2188V8.8125H17.7188C17.7891 8.8125 17.8477 8.78906 17.8945 8.74219C17.9648 8.67188 18 8.60156 18 8.53125V7.96875C18 7.89844 17.9648 7.83984 17.8945 7.79297C17.8477 7.72266 17.7891 7.6875 17.7188 7.6875ZM13.5 9.9375H12.375V6.5625H13.5V9.9375Z" fill="#555555"/>
</svg>
