<svg width="23" height="25" viewBox="0 0 23 25" fill="none" xmlns="http://www.w3.org/2000/svg">
<path d="M15.7576 8.77203L13.879 8.70312L13.4717 19.8258L15.3503 19.8944L15.7576 8.77203Z" fill="#EA4242"/>
<path d="M12.124 8.73828H10.2441V19.861H12.124V8.73828Z" fill="#EA4242"/>
<path d="M8.89826 19.8258L8.49096 8.70312L6.6123 8.77208L7.01965 19.8948L8.89826 19.8258Z" fill="#EA4242"/>
<path d="M0 4.10156V5.98144H1.95886L3.51286 23.6409C3.55547 24.1262 3.96188 24.4984 4.44905 24.4984H17.89C18.3772 24.4984 18.7839 24.1259 18.8262 23.6406L20.3802 5.98144H22.3707V4.10156H0ZM17.029 22.6185H5.30977L3.84595 5.98144H18.4932L17.029 22.6185Z" fill="#EA4242"/>
<path d="M14.2544 0.5H8.11343C7.24962 0.5 6.54688 1.20275 6.54688 2.06656V5.04308H8.42675V2.37987H13.9411V5.04308H15.821V2.06656C15.821 1.20275 15.1182 0.5 14.2544 0.5Z" fill="#EA4242"/>
</svg>
