<svg width="38" height="38" viewBox="0 0 38 38" fill="none" xmlns="http://www.w3.org/2000/svg">
<rect x="1.5" y="1.5" width="35" height="35" rx="17.5" fill="#F3F3F3" stroke="white" stroke-width="3"/>
<path d="M19.9336 15.2949L22.9336 18.2949L16.418 24.8105L13.7461 25.1152C13.5586 25.1309 13.4023 25.0762 13.2773 24.9512C13.1523 24.8262 13.0977 24.6699 13.1133 24.4824L13.418 21.8105L19.9336 15.2949ZM24.7852 14.8496L23.3789 13.4434C23.1602 13.2246 22.8945 13.1152 22.582 13.1152C22.2695 13.1152 22.0039 13.2246 21.7852 13.4434L20.4492 14.7793L23.4492 17.7793L24.7852 16.4434C25.0039 16.2246 25.1133 15.959 25.1133 15.6465C25.1133 15.334 25.0039 15.0684 24.7852 14.8496Z" fill="#0033CC"/>
</svg>
