<svg width="31" height="30" viewBox="0 0 31 30" fill="none" xmlns="http://www.w3.org/2000/svg">
<path d="M15 0C10.2183 0 6.32815 3.89024 6.32815 8.67185C6.32815 11.6336 7.82104 14.2529 10.0935 15.818C7.97187 16.5502 6.02722 17.7596 4.39349 19.3933C1.56029 22.2266 0 25.9933 0 30H2.34375C2.34375 23.0213 8.0213 17.3437 15 17.3437C19.7817 17.3437 23.6718 13.4535 23.6718 8.67185C23.6718 3.89018 19.7817 0 15 0ZM15 15C11.5107 15 8.6719 12.1612 8.6719 8.6719C8.6719 5.18258 11.5107 2.34375 15 2.34375C18.4893 2.34375 21.3281 5.18252 21.3281 8.6719C21.3281 12.1613 18.4893 15 15 15Z" fill="#33CC00"/>
<path d="M25.1362 22.7337V17.8118H22.7924V22.7337H17.8705V25.0774H22.7924V29.9993H25.1362V25.0774H30.058V22.7337H25.1362Z" fill="#33CC00"/>
</svg>
