<svg width="20" height="19" viewBox="0 0 20 19" fill="none" xmlns="http://www.w3.org/2000/svg">
<path d="M4.64844 6.28906C3.78693 6.28906 3.08594 6.99005 3.08594 7.85156V13.75C3.08594 14.6115 3.78693 15.3125 4.64844 15.3125H7.61719C8.4787 15.3125 9.17969 14.6115 9.17969 13.75V7.85156C9.17969 6.99005 8.4787 6.28906 7.61719 6.28906H4.64844ZM7.61719 13.75H4.64844V7.85156H7.61719L7.6181 13.75C7.6181 13.75 7.61795 13.75 7.61719 13.75ZM16.8359 10.8203C16.8359 11.2518 16.4862 11.6016 16.0547 11.6016H11.5234C11.0919 11.6016 10.7422 11.2518 10.7422 10.8203C10.7422 10.3888 11.0919 10.0391 11.5234 10.0391H16.0547C16.4862 10.0391 16.8359 10.3888 16.8359 10.8203ZM16.8359 13.7891C16.8359 14.2206 16.4862 14.5703 16.0547 14.5703H11.5234C11.0919 14.5703 10.7422 14.2206 10.7422 13.7891C10.7422 13.3575 11.0919 13.0078 11.5234 13.0078H16.0547C16.4862 13.0078 16.8359 13.3575 16.8359 13.7891ZM16.8359 7.85156C16.8359 8.28308 16.4862 8.63281 16.0547 8.63281H11.5234C11.0919 8.63281 10.7422 8.28308 10.7422 7.85156C10.7422 7.42004 11.0919 7.07031 11.5234 7.07031H16.0547C16.4862 7.07031 16.8359 7.42004 16.8359 7.85156ZM17.6562 0H2.34375C1.05133 0 0 1.05133 0 2.34375V15.3125C0 17.0357 1.40182 18.4375 3.125 18.4375H16.875C18.5982 18.4375 20 17.0357 20 15.3125C20 14.881 19.6503 14.5312 19.2188 14.5312C18.7872 14.5312 18.4375 14.881 18.4375 15.3125C18.4375 16.174 17.7365 16.875 16.875 16.875H3.125C2.26349 16.875 1.5625 16.174 1.5625 15.3125V4.72656H18.4375V11.4062C18.4375 11.8378 18.7872 12.1875 19.2188 12.1875C19.6503 12.1875 20 11.8378 20 11.4062V2.34375C20 1.05133 18.9487 0 17.6562 0ZM14.4922 1.5625C14.9229 1.5625 15.2734 1.91299 15.2734 2.34375C15.2734 2.77451 14.9229 3.125 14.4922 3.125C14.0614 3.125 13.7109 2.77451 13.7109 2.34375C13.7109 1.91299 14.0614 1.5625 14.4922 1.5625ZM18.3984 2.34375C18.3984 2.77451 18.0479 3.125 17.6172 3.125C17.1864 3.125 16.8359 2.77451 16.8359 2.34375C16.8359 1.91299 17.1864 1.5625 17.6172 1.5625C18.0479 1.5625 18.3984 1.91299 18.3984 2.34375ZM1.5625 2.34375C1.5625 1.91299 1.91299 1.5625 2.34375 1.5625H12.2829C12.196 1.8071 12.1484 2.06985 12.1484 2.34375C12.1484 2.63229 12.2011 2.90863 12.2969 3.16406H1.5625V2.34375Z" fill="#DADADA"/>
</svg>
