<svg width="60" height="60" viewBox="0 0 60 60" fill="none" xmlns="http://www.w3.org/2000/svg">
<path d="M51.7241 42.4138C48.2968 42.4138 45.5171 39.6341 45.5171 36.2069C45.5171 32.7796 48.297 30 51.7241 30H57.9311V14.4828C57.9311 13.3407 57.0041 12.4138 55.8621 12.4138H4.13789C1.85273 12.4138 0 14.2666 0 16.5517V55.8622C0 58.1473 1.85273 60.0001 4.13789 60.0001H55.8621C57.0042 60.0001 57.9311 59.0731 57.9311 57.9311V42.4138H51.7241Z" fill="#805333"/>
<path d="M10.3448 17.5862H8.2759C7.70379 17.5862 7.24137 17.1237 7.24137 16.5516C7.24137 15.9795 7.70379 15.5171 8.2759 15.5171H10.3448C10.917 15.5171 11.3794 15.9795 11.3794 16.5516C11.3794 17.1237 10.917 17.5862 10.3448 17.5862ZM17.5862 17.5862H15.5173C14.9452 17.5862 14.4827 17.1237 14.4827 16.5516C14.4827 15.9795 14.9452 15.5171 15.5173 15.5171H17.5862C18.1583 15.5171 18.6207 15.9795 18.6207 16.5516C18.6207 17.1237 18.1583 17.5862 17.5862 17.5862ZM24.8276 17.5862H22.7586C22.1865 17.5862 21.7241 17.1237 21.7241 16.5516C21.7241 15.9795 22.1865 15.5171 22.7586 15.5171H24.8276C25.3997 15.5171 25.8621 15.9795 25.8621 16.5516C25.8621 17.1237 25.3997 17.5862 24.8276 17.5862ZM32.0689 17.5862H30C29.4279 17.5862 28.9655 17.1237 28.9655 16.5516C28.9655 15.9795 29.4279 15.5171 30 15.5171H32.0689C32.6411 15.5171 33.1035 15.9795 33.1035 16.5516C33.1035 17.1237 32.6411 17.5862 32.0689 17.5862ZM39.3103 17.5862H37.2414C36.6693 17.5862 36.2068 17.1237 36.2068 16.5516C36.2068 15.9795 36.6693 15.5171 37.2414 15.5171H39.3103C39.8824 15.5171 40.3448 15.9795 40.3448 16.5516C40.3448 17.1237 39.8824 17.5862 39.3103 17.5862ZM46.5517 17.5862H44.4827C43.9106 17.5862 43.4482 17.1237 43.4482 16.5516C43.4482 15.9795 43.9106 15.5171 44.4827 15.5171H46.5517C47.1238 15.5171 47.5862 15.9795 47.5862 16.5516C47.5862 17.1237 47.1238 17.5862 46.5517 17.5862ZM53.7931 17.5862H51.7241C51.152 17.5862 50.6896 17.1237 50.6896 16.5516C50.6896 15.9795 51.152 15.5171 51.7241 15.5171H53.7931C54.3652 15.5171 54.8276 15.9795 54.8276 16.5516C54.8276 17.1237 54.3652 17.5862 53.7931 17.5862ZM4.13789 22.4627C3.56579 22.4627 3.10336 22.0003 3.10336 21.4281V20.6895C3.10336 20.1319 3.19231 19.5826 3.3661 19.0571C3.54715 18.5139 4.13262 18.2233 4.67368 18.4001C5.21578 18.5801 5.50957 19.1656 5.32957 19.7077C5.22504 20.0222 5.17231 20.3532 5.17231 20.6894V21.428C5.17243 22.0003 4.71 22.4627 4.13789 22.4627ZM4.13789 29.704C3.56579 29.704 3.10336 29.2416 3.10336 28.6695V26.6006C3.10336 26.0285 3.56579 25.566 4.13789 25.566C4.71 25.566 5.17243 26.0285 5.17243 26.6006V28.6695C5.17243 29.2416 4.71 29.704 4.13789 29.704ZM4.13789 36.9454C3.56579 36.9454 3.10336 36.483 3.10336 35.9109V33.8419C3.10336 33.2698 3.56579 32.8074 4.13789 32.8074C4.71 32.8074 5.17243 33.2698 5.17243 33.8419V35.9109C5.17243 36.483 4.71 36.9454 4.13789 36.9454ZM4.13789 44.1869C3.56579 44.1869 3.10336 43.7245 3.10336 43.1524V41.0834C3.10336 40.5113 3.56579 40.0489 4.13789 40.0489C4.71 40.0489 5.17243 40.5113 5.17243 41.0834V43.1524C5.17243 43.7245 4.71 44.1869 4.13789 44.1869ZM4.13789 51.4283C3.56579 51.4283 3.10336 50.9658 3.10336 50.3937V48.3248C3.10336 47.7527 3.56579 47.2903 4.13789 47.2903C4.71 47.2903 5.17243 47.7527 5.17243 48.3248V50.3937C5.17243 50.9658 4.71 51.4283 4.13789 51.4283ZM7.68727 56.8551C7.63969 56.8551 7.59106 56.8521 7.54137 56.8448C6.68684 56.7248 5.86864 56.3855 5.17442 55.8651C4.71821 55.5227 4.6261 54.874 4.96852 54.4168C5.31094 53.9595 5.95852 53.8675 6.41684 54.2098C6.83168 54.5212 7.31989 54.7239 7.82989 54.7963C8.39578 54.876 8.78989 55.3994 8.7102 55.9653C8.63789 56.4816 8.1941 56.8551 7.68727 56.8551ZM14.9265 56.8965H12.8576C12.2855 56.8965 11.8231 56.434 11.8231 55.8619C11.8231 55.2898 12.2855 54.8274 12.8576 54.8274H14.9265C15.4976 54.8274 15.9611 55.2898 15.9611 55.8619C15.9611 56.434 15.4976 56.8965 14.9265 56.8965ZM22.1679 56.8965H20.0989C19.5268 56.8965 19.0644 56.434 19.0644 55.8619C19.0644 55.2898 19.5268 54.8274 20.0989 54.8274H22.1679C22.7389 54.8274 23.2024 55.2898 23.2024 55.8619C23.2024 56.434 22.7389 56.8965 22.1679 56.8965ZM29.4093 56.8965H27.3403C26.7682 56.8965 26.3058 56.434 26.3058 55.8619C26.3058 55.2898 26.7682 54.8274 27.3403 54.8274H29.4093C29.9803 54.8274 30.4438 55.2898 30.4438 55.8619C30.4438 56.434 29.9803 56.8965 29.4093 56.8965ZM36.6507 56.8965H34.5818C34.0097 56.8965 33.5473 56.434 33.5473 55.8619C33.5473 55.2898 34.0097 54.8274 34.5818 54.8274H36.6507C37.2218 54.8274 37.6853 55.2898 37.6853 55.8619C37.6852 56.434 37.2217 56.8965 36.6507 56.8965ZM43.8921 56.8965H41.8231C41.2509 56.8965 40.7885 56.434 40.7885 55.8619C40.7885 55.2898 41.2509 54.8274 41.8231 54.8274H43.892C44.4631 54.8274 44.9265 55.2898 44.9265 55.8619C44.9265 56.434 44.4631 56.8965 43.8921 56.8965ZM51.1335 56.8965H49.0645C48.4924 56.8965 48.03 56.434 48.03 55.8619C48.03 55.2898 48.4924 54.8274 49.0645 54.8274H51.1335C51.7045 54.8274 52.168 55.2898 52.168 55.8619C52.1679 56.434 51.7045 56.8965 51.1335 56.8965Z" fill="#593821"/>
<path d="M57.9311 42.4138H51.7241C48.2968 42.4138 45.5172 39.6341 45.5172 36.2068C45.5172 32.7796 48.297 30 51.7241 30H57.9311C59.0732 30 60 30.927 60 32.0689V40.3448C60 41.487 59.0731 42.4138 57.9311 42.4138Z" fill="#593821"/>
<path d="M48.9298 12.4137L45.3308 2.69067L20.0625 12.4137H48.9298Z" fill="#24AE5F"/>
<path d="M20.0613 12.4138L39.6803 4.86516L36.6451 0L16.7438 12.4138H20.0613Z" fill="#188945"/>
<path d="M54.8276 37.2414H50.6897C50.1176 37.2414 49.6552 36.779 49.6552 36.2069C49.6552 35.6348 50.1176 35.1724 50.6897 35.1724H54.8276C55.3997 35.1724 55.8621 35.6348 55.8621 36.2069C55.8621 36.779 55.3997 37.2414 54.8276 37.2414Z" fill="#ECF0F1"/>
</svg>
