<svg width="21" height="18" viewBox="0 0 21 18" fill="none" xmlns="http://www.w3.org/2000/svg">
<path d="M20.0978 15.6633L11.5023 0.778711C11.224 0.296807 10.7098 0 10.1533 0C9.59683 0 9.08258 0.296746 8.80432 0.778711L0.208803 15.6633C-0.0695806 16.1452 -0.0695805 16.7391 0.20868 17.2211C0.486941 17.7031 1.00119 18 1.55778 18H18.7488C19.3053 18 19.8196 17.7031 20.0979 17.2211C20.3761 16.7391 20.3761 16.1452 20.0978 15.6633ZM1.55778 16.4423L10.1533 1.55767L18.7488 16.4423H1.55778Z" fill="#EA4242"/>
<path d="M9.07448 6.92086L9.5212 12.035C9.54727 12.3361 9.78621 12.5842 10.0976 12.6115C10.4464 12.642 10.7539 12.3839 10.7843 12.035L11.2311 6.92086C11.2359 6.8611 11.2365 6.79412 11.2311 6.7325C11.1791 6.13692 10.6541 5.69636 10.0586 5.7483C9.4631 5.80037 9.02248 6.3254 9.07448 6.92086Z" fill="#EA4242"/>
<path d="M10.1532 14.7146C10.6466 14.7146 11.0466 14.3146 11.0466 13.8212C11.0466 13.3277 10.6466 12.9277 10.1532 12.9277C9.65977 12.9277 9.25977 13.3277 9.25977 13.8212C9.25977 14.3146 9.65977 14.7146 10.1532 14.7146Z" fill="#EA4242"/>
</svg>
